Nextria-Variable.glyphspackage
{
glyphname = exclam;
layers = (
{
layerId = master01;
shapes = (
{
closed = 1;
nodes = (
(181,430,l),
(181,680,l),
(99,680,l),
(99,430,l),
(107,182,l),
(173,182,l)
);
},
{
closed = 1;
nodes = (
(186,91,l),
(94,91,l),
(94,0,l),
(186,0,l)
);
}
);
width = 280;
},
{
layerId = "D73FB141-FF25-4743-A62C-F58A1C57CDB9";
shapes = (
{
closed = 1;
nodes = (
(199,460,l),
(199,680,l),
(84,680,l),
(84,460,l),
(96,199,l),
(186,199,l)
);
},
{
closed = 1;
nodes = (
(201,119,l),
(80,119,l),
(80,0,l),
(201,0,l)
);
}
);
width = 281;
},
{
layerId = "7D2027AC-297A-4D58-8EA2-55B17EBAD0F9";
shapes = (
{
closed = 1;
nodes = (
(235,460,l),
(274,680,l),
(159,680,l),
(120,460,l),
(86,199,l),
(176,199,l)
);
},
{
closed = 1;
nodes = (
(177,119,l),
(56,119,l),
(35,0,l),
(156,0,l)
);
}
);
width = 281;
},
{
layerId = "C21AB58A-0F03-4AE0-976E-29AD56D058A6";
shapes = (
{
closed = 1;
nodes = (
(213,430,l),
(257,680,l),
(175,680,l),
(131,430,l),
(95,182,l),
(161,182,l)
);
},
{
closed = 1;
nodes = (
(158,91,l),
(66,91,l),
(50,0,l),
(142,0,l)
);
}
);
width = 280;
},
{
layerId = "552872BC-8C7A-453E-A7A0-DCEE3439D276";
shapes = (
{
closed = 1;
nodes = (
(170,410,l),
(170,680,l),
(110,680,l),
(110,410,l),
(115,172,l),
(165,172,l)
);
},
{
closed = 1;
nodes = (
(176,73,l),
(104,73,l),
(104,0,l),
(176,0,l)
);
}
);
width = 280;
},
{
layerId = "EEA6B9EF-1944-48F9-8F0D-85D16B14CE21";
shapes = (
{
closed = 1;
nodes = (
(199,410,l),
(247,680,l),
(187,680,l),
(139,410,l),
(102,172,l),
(152,172,l)
);
},
{
closed = 1;
nodes = (
(146,73,l),
(74,73,l),
(61,0,l),
(133,0,l)
);
}
);
width = 280;
}
);
unicode = 33;
}
{
glyphname = quotedbl;
kernLeft = quotesingle;
kernRight = quotesingle;
layers = (
{
layerId = master01;
shapes = (
{
closed = 1;
nodes = (
(136,602,l),
(136,680,l),
(56,680,l),
(56,602,l),
(69,430,l),
(123,430,l)
);
},
{
closed = 1;
nodes = (
(297,602,l),
(297,680,l),
(217,680,l),
(217,602,l),
(230,430,l),
(284,430,l)
);
}
);
width = 353;
},
{
layerId = "D73FB141-FF25-4743-A62C-F58A1C57CDB9";
shapes = (
{
closed = 1;
nodes = (
(159,584,l),
(159,680,l),
(52,680,l),
(52,584,l),
(72,388,l),
(139,388,l)
);
},
{
closed = 1;
nodes = (
(334,584,l),
(334,680,l),
(227,680,l),
(227,584,l),
(247,388,l),
(314,388,l)
);
}
);
width = 386;
},
{
layerId = "7D2027AC-297A-4D58-8EA2-55B17EBAD0F9";
shapes = (
{
closed = 1;
nodes = (
(217,584,l),
(234,680,l),
(127,680,l),
(110,584,l),
(95,388,l),
(162,388,l)
);
},
{
closed = 1;
nodes = (
(392,584,l),
(409,680,l),
(302,680,l),
(285,584,l),
(270,388,l),
(337,388,l)
);
}
);
width = 386;
},
{
layerId = "C21AB58A-0F03-4AE0-976E-29AD56D058A6";
shapes = (
{
closed = 1;
nodes = (
(198,602,l),
(212,680,l),
(132,680,l),
(118,602,l),
(101,430,l),
(155,430,l)
);
},
{
closed = 1;
nodes = (
(359,602,l),
(373,680,l),
(293,680,l),
(279,602,l),
(262,430,l),
(316,430,l)
);
}
);
width = 353;
},
{
layerId = "552872BC-8C7A-453E-A7A0-DCEE3439D276";
shapes = (
{
closed = 1;
nodes = (
(121,614,l),
(121,680,l),
(59,680,l),
(59,614,l),
(67,458,l),
(113,458,l)
);
},
{
closed = 1;
nodes = (
(273,614,l),
(273,680,l),
(211,680,l),
(211,614,l),
(219,458,l),
(265,458,l)
);
}
);
width = 332;
},
{
layerId = "EEA6B9EF-1944-48F9-8F0D-85D16B14CE21";
shapes = (
{
closed = 1;
nodes = (
(186,614,l),
(198,680,l),
(136,680,l),
(124,614,l),
(105,458,l),
(151,458,l)
);
},
{
closed = 1;
nodes = (
(338,614,l),
(350,680,l),
(288,680,l),
(276,614,l),
(257,458,l),
(303,458,l)
);
}
);
width = 332;
}
);
unicode = 34;
}
{
glyphname = numbersign;
layers = (
{
layerId = master01;
shapes = (
{
closed = 1;
nodes = (
(370,0,l),
(431,195,l),
(552,195,l),
(552,261,l),
(451,261,l),
(500,418,l),
(622,418,l),
(622,484,l),
(521,484,l),
(582,680,l),
(510,680,l),
(449,484,l),
(278,484,l),
(339,680,l),
(267,680,l),
(206,484,l),
(86,484,l),
(86,418,l),
(186,418,l),
(137,261,l),
(16,261,l),
(16,195,l),
(117,195,l),
(56,0,l),
(127,0,l),
(188,195,l),
(360,195,l),
(299,0,l)
);
},
{
closed = 1;
nodes = (
(257,418,l),
(429,418,l),
(380,261,l),
(208,261,l)
);
}
);
width = 638;
},
{
layerId = "D73FB141-FF25-4743-A62C-F58A1C57CDB9";
shapes = (
{
closed = 1;
nodes = (
(391,0,l),
(448,185,l),
(569,185,l),
(569,272,l),
(474,272,l),
(516,408,l),
(639,408,l),
(639,495,l),
(542,495,l),
(599,680,l),
(504,680,l),
(447,495,l),
(301,495,l),
(358,680,l),
(263,680,l),
(206,495,l),
(85,495,l),
(85,408,l),
(180,408,l),
(138,272,l),
(15,272,l),
(15,185,l),
(112,185,l),
(55,0,l),
(150,0,l),
(207,185,l),
(353,185,l),
(296,0,l)
);
},
{
closed = 1;
nodes = (
(275,408,l),
(421,408,l),
(379,272,l),
(233,272,l)
);
}
);
width = 654;
},
{
layerId = "7D2027AC-297A-4D58-8EA2-55B17EBAD0F9";
shapes = (
{
closed = 1;
nodes = (
(353,0,l),
(440,185,l),
(557,185,l),
(572,272,l),
(481,272,l),
(546,408,l),
(666,408,l),
(681,495,l),
(587,495,l),
(674,680,l),
(572,680,l),
(485,495,l),
(346,495,l),
(433,680,l),
(331,680,l),
(244,495,l),
(127,495,l),
(112,408,l),
(203,408,l),
(138,272,l),
(18,272,l),
(3,185,l),
(97,185,l),
(10,0,l),
(112,0,l),
(199,185,l),
(338,185,l),
(251,0,l)
);
},
{
closed = 1;
nodes = (
(305,408,l),
(444,408,l),
(379,272,l),
(240,272,l)
);
}
);
width = 654;
},
{
layerId = "C21AB58A-0F03-4AE0-976E-29AD56D058A6";
shapes = (
{
closed = 1;
nodes = (
(332,0,l),
(425,195,l),
(542,195,l),
(554,261,l),
(457,261,l),
(532,418,l),
(652,418,l),
(663,484,l),
(564,484,l),
(658,680,l),
(581,680,l),
(487,484,l),
(321,484,l),
(415,680,l),
(338,680,l),
(244,484,l),
(127,484,l),
(116,418,l),
(212,418,l),
(137,261,l),
(18,261,l),
(6,195,l),
(105,195,l),
(12,0,l),
(89,0,l),
(182,195,l),
(348,195,l),
(255,0,l)
);
},
{
closed = 1;
nodes = (
(289,418,l),
(455,418,l),
(380,261,l),
(214,261,l)
);
}
);
width = 638;
},
{
layerId = "552872BC-8C7A-453E-A7A0-DCEE3439D276";
shapes = (
{
closed = 1;
nodes = (
(357,0,l),
(421,202,l),
(541,202,l),
(541,254,l),
(437,254,l),
(491,426,l),
(611,426,l),
(611,478,l),
(507,478,l),
(571,680,l),
(515,680,l),
(451,478,l),
(263,478,l),
(327,680,l),
(271,680,l),
(207,478,l),
(87,478,l),
(87,426,l),
(191,426,l),
(137,254,l),
(17,254,l),
(17,202,l),
(121,202,l),
(57,0,l),
(113,0,l),
(177,202,l),
(365,202,l),
(301,0,l)
);
},
{
closed = 1;
nodes = (
(247,426,l),
(435,426,l),
(381,254,l),
(193,254,l)
);
}
);
width = 628;
},
{
layerId = "EEA6B9EF-1944-48F9-8F0D-85D16B14CE21";
shapes = (
{
closed = 1;
nodes = (
(318,0,l),
(416,202,l),
(534,202,l),
(543,254,l),
(441,254,l),
(525,426,l),
(643,426,l),
(652,478,l),
(550,478,l),
(648,680,l),
(588,680,l),
(490,478,l),
(306,478,l),
(404,680,l),
(344,680,l),
(246,478,l),
(128,478,l),
(119,426,l),
(221,426,l),
(137,254,l),
(19,254,l),
(10,202,l),
(112,202,l),
(14,0,l),
(74,0,l),
(172,202,l),
(356,202,l),
(258,0,l)
);
},
{
closed = 1;
nodes = (
(281,426,l),
(465,426,l),
(381,254,l),
(197,254,l)
);
}
);
width = 628;
}
);
unicode = 35;
}
{
glyphname = dollar;
layers = (
{
layerId = master01;
shapes = (
{
closed = 1;
nodes = (
(464,283,o),
(413,347,o),
(312,377,cs),
(231,401,ls),
(159,423,o),
(135,458,o),
(135,510,cs),
(135,582,o),
(179,611,o),
(255,611,cs),
(302,611,o),
(351,599,o),
(415,571,c),
(443,646,l),
(393,669,o),
(344,682,o),
(297,688,c),
(297,813,l),
(217,813,l),
(217,688,l),
(95,676,o),
(47,598,o),
(47,504,cs),
(47,413,o),
(93,350,o),
(195,320,cs),
(276,296,ls),
(347,275,o),
(376,235,o),
(376,176,cs),
(376,105,o),
(329,68,o),
(245,68,cs),
(187,68,o),
(135,80,o),
(64,112,c),
(37,38,l),
(100,9,o),
(161,-6,o),
(217,-9,c),
(217,-133,l),
(297,-133,l),
(297,-7,l),
(413,10,o),
(464,82,o),
(464,183,cs)
);
}
);
width = 506;
},
{
layerId = "D73FB141-FF25-4743-A62C-F58A1C57CDB9";
shapes = (
{
closed = 1;
nodes = (
(480,295,o),
(430,356,o),
(331,389,cs),
(249,416,ls),
(191,435,o),
(169,460,o),
(169,503,cs),
(169,560,o),
(206,579,o),
(268,579,cs),
(314,579,o),
(354,568,o),
(418,543,c),
(455,646,l),
(404,668,o),
(358,682,o),
(312,687,c),
(312,825,l),
(202,825,l),
(202,685,l),
(96,665,o),
(47,592,o),
(47,497,cs),
(47,399,o),
(96,336,o),
(194,304,cs),
(276,277,ls),
(338,257,o),
(358,233,o),
(358,187,cs),
(358,128,o),
(319,101,o),
(242,101,cs),
(191,101,o),
(144,112,o),
(69,144,c),
(32,41,l),
(96,12,o),
(150,-3,o),
(202,-8,c),
(202,-145,l),
(312,-145,l),
(312,-4,l),
(427,16,o),
(480,89,o),
(480,191,cs)
);
}
);
width = 518;
},
{
layerId = "7D2027AC-297A-4D58-8EA2-55B17EBAD0F9";
shapes = (
{
closed = 1;
nodes = (
(467,295,o),
(423,347,o),
(348,381,cs),
(275,414,ls),
(227,436,o),
(209,456,o),
(209,492,cs),
(209,549,o),
(248,579,o),
(322,579,cs),
(367,579,o),
(404,567,o),
(461,543,c),
(503,646,l),
(462,664,o),
(425,677,o),
(388,684,c),
(413,825,l),
(303,825,l),
(279,688,l),
(144,673,o),
(83,588,o),
(83,481,cs),
(83,395,o),
(123,343,o),
(201,308,cs),
(274,275,ls),
(321,254,o),
(341,231,o),
(341,194,cs),
(341,139,o),
(301,101,o),
(211,101,cs),
(156,101,o),
(113,112,o),
(44,144,c),
(2,41,l),
(58,14,o),
(107,-1,o),
(156,-7,c),
(132,-145,l),
(242,-145,l),
(266,-7,l),
(410,11,o),
(467,101,o),
(467,204,cs)
);
}
);
width = 517.96831;
},
{
layerId = "C21AB58A-0F03-4AE0-976E-29AD56D058A6";
shapes = (
{
closed = 1;
nodes = (
(450,281,o),
(405,333,o),
(328,367,cs),
(257,399,ls),
(199,425,o),
(177,453,o),
(177,498,cs),
(177,567,o),
(224,611,o),
(313,611,cs),
(362,611,o),
(408,598,o),
(465,571,c),
(495,646,l),
(454,666,o),
(414,679,o),
(373,685,c),
(396,813,l),
(316,813,l),
(294,690,l),
(148,683,o),
(87,596,o),
(87,493,cs),
(87,412,o),
(124,360,o),
(206,324,cs),
(278,292,ls),
(334,267,o),
(359,235,o),
(359,186,cs),
(359,114,o),
(307,68,o),
(208,68,cs),
(153,68,o),
(102,81,o),
(35,113,c),
(5,38,l),
(62,10,o),
(117,-4,o),
(171,-9,c),
(150,-133,l),
(230,-133,l),
(251,-8,l),
(395,7,o),
(450,96,o),
(450,193,cs)
);
}
);
width = 506;
},
{
layerId = "552872BC-8C7A-453E-A7A0-DCEE3439D276";
shapes = (
{
closed = 1;
nodes = (
(454,275,o),
(402,342,o),
(300,370,cs),
(220,392,ls),
(138,415,o),
(113,457,o),
(113,515,cs),
(113,597,o),
(161,633,o),
(247,633,cs),
(295,633,o),
(349,620,o),
(413,590,c),
(435,646,l),
(385,669,o),
(334,683,o),
(287,688,c),
(287,805,l),
(227,805,l),
(227,689,l),
(93,682,o),
(47,602,o),
(47,510,cs),
(47,423,o),
(91,360,o),
(196,331,cs),
(276,309,ls),
(354,288,o),
(388,236,o),
(388,170,cs),
(388,90,o),
(336,47,o),
(247,47,cs),
(185,47,o),
(130,59,o),
(62,91,c),
(41,36,l),
(104,7,o),
(169,-7,o),
(227,-10,c),
(227,-125,l),
(287,-125,l),
(287,-8,l),
(404,5,o),
(454,78,o),
(454,178,cs)
);
}
);
width = 499;
},
{
layerId = "EEA6B9EF-1944-48F9-8F0D-85D16B14CE21";
shapes = (
{
closed = 1;
nodes = (
(440,273,o),
(394,325,o),
(316,359,cs),
(245,390,ls),
(181,418,o),
(157,452,o),
(157,503,cs),
(157,580,o),
(208,633,o),
(307,633,cs),
(360,633,o),
(411,620,o),
(469,590,c),
(491,647,l),
(451,668,o),
(408,680,o),
(365,686,c),
(386,805,l),
(326,805,l),
(305,690,l),
(151,690,o),
(90,601,o),
(90,501,cs),
(90,424,o),
(125,372,o),
(210,335,cs),
(281,304,ls),
(343,277,o),
(372,239,o),
(372,182,cs),
(372,98,o),
(312,47,o),
(207,47,cs),
(152,47,o),
(95,61,o),
(30,93,c),
(8,36,l),
(65,8,o),
(125,-6,o),
(182,-9,c),
(162,-125,l),
(222,-125,l),
(242,-9,l),
(386,4,o),
(440,94,o),
(440,187,cs)
);
}
);
width = 498.54969;
}
);
unicode = 36;
}
{
glyphname = ampersand;
layers = (
{
layerId = master01;
shapes = (
{
closed = 1;
nodes = (
(173,65,o),
(126,96,o),
(126,167,cs),
(126,219,o),
(152,258,o),
(225,302,cs),
(296,345,ls),
(372,391,o),
(425,440,o),
(425,531,cs),
(425,632,o),
(359,690,o),
(255,690,cs),
(143,690,o),
(81,622,o),
(81,534,cs),
(81,473,o),
(111,417,o),
(176,362,c),
(86,304,o),
(42,249,o),
(42,165,cs),
(42,61,o),
(110,-10,o),
(229,-10,cs),
(330,-10,o),
(394,44,o),
(405,116,c),
(469,0,l),
(561,0,l),
(400,277,l),
(333,237,l),
(383,143,o),
(330,65,o),
(234,65,cs)
);
},
{
closed = 1;
nodes = (
(163,588,o),
(202,616,o),
(256,616,cs),
(305,616,o),
(342,590,o),
(342,530,cs),
(342,477,o),
(315,448,o),
(256,411,cs),
(235,398,l),
(181,450,o),
(163,494,o),
(163,532,cs)
);
}
);
width = 560;
},
{
layerId = "D73FB141-FF25-4743-A62C-F58A1C57CDB9";
shapes = (
{
closed = 1;
nodes = (
(188,96,o),
(153,120,o),
(153,174,cs),
(153,207,o),
(166,243,o),
(226,282,cs),
(296,327,ls),
(381,381,o),
(440,430,o),
(440,524,cs),
(440,628,o),
(368,690,o),
(255,690,cs),
(137,690,o),
(73,618,o),
(73,528,cs),
(73,469,o),
(101,419,o),
(166,369,c),
(71,307,o),
(36,244,o),
(36,169,cs),
(36,64,o),
(107,-10,o),
(226,-10,cs),
(316,-10,o),
(376,35,o),
(395,99,c),
(439,0,l),
(564,0,l),
(412,295,l),
(320,239,l),
(362,158,o),
(316,96,o),
(237,96,cs)
);
},
{
closed = 1;
nodes = (
(184,564,o),
(216,586,o),
(256,586,cs),
(295,586,o),
(325,565,o),
(325,517,cs),
(325,482,o),
(309,464,o),
(240,418,c),
(240,418,l),
(199,455,o),
(184,493,o),
(184,522,cs)
);
}
);
width = 561;
},
{
background = {
shapes = (
{
closed = 1;
nodes = (
(462,235,o),
(445,276,o),
(416,315,c),
(439,319,ls),
(482,327,o),
(526,337,o),
(575,352,c),
(542,454,l),
(499,439,o),
(455,427,o),
(387,412,cs),
(271,387,l),
(222,440,o),
(203,483,o),
(203,520,cs),
(203,572,o),
(239,586,o),
(277,586,cs),
(336,586,o),
(363,551,o),
(343,478,c),
(453,493,l),
(487,593,o),
(421,690,o),
(279,690,cs),
(163,690,o),
(88,631,o),
(88,530,cs),
(88,465,o),
(124,408,o),
(171,362,c),
(55,323,o),
(4,256,o),
(4,163,cs),
(4,52,o),
(84,-10,o),
(214,-10,cs),
(351,-10,o),
(462,59,o),
(462,186,cs)
);
},
{
closed = 1;
nodes = (
(119,224,o),
(163,265,o),
(269,286,cs),
(317,295,l),
(337,261,o),
(347,228,o),
(347,201,cs),
(347,133,o),
(288,96,o),
(216,96,cs),
(157,96,o),
(119,122,o),
(119,171,cs)
);
}
);
};
layerId = "7D2027AC-297A-4D58-8EA2-55B17EBAD0F9";
shapes = (
{
closed = 1;
nodes = (
(145,96,o),
(114,120,o),
(124,174,cs),
(130,207,o),
(149,243,o),
(216,282,cs),
(294,327,ls),
(388,381,o),
(456,430,o),
(472,524,cs),
(491,628,o),
(430,690,o),
(317,690,cs),
(199,690,o),
(122,618,o),
(106,528,cs),
(96,469,o),
(115,419,o),
(171,369,c),
(65,307,o),
(19,244,o),
(6,169,cs),
(-13,64,o),
(45,-10,o),
(164,-10,cs),
(254,-10,o),
(322,35,o),
(353,99,c),
(379,0,l),
(504,0,l),
(404,295,l),
(302,239,l),
(330,158,o),
(273,96,o),
(194,96,cs)
);
},
{
closed = 1;
nodes = (
(223,564,o),
(259,586,o),
(299,586,cs),
(338,586,o),
(365,565,o),
(356,517,cs),
(350,482,o),
(331,464,o),
(254,418,c),
(254,418,l),
(219,455,o),
(211,493,o),
(216,522,cs)
);
}
);
width = 555;
},
{
background = {
shapes = (
{
closed = 1;
nodes = (
(457,238,o),
(438,284,o),
(403,325,c),
(417,328,ls),
(485,342,o),
(532,355,o),
(582,375,c),
(557,449,l),
(512,428,o),
(461,412,o),
(370,392,cs),
(270,370,l),
(205,430,o),
(185,479,o),
(185,524,cs),
(185,594,o),
(233,616,o),
(287,616,cs),
(364,616,o),
(400,569,o),
(374,478,c),
(454,493,l),
(489,596,o),
(426,690,o),
(288,690,cs),
(176,690,o),
(101,631,o),
(101,528,cs),
(101,457,o),
(139,399,o),
(195,352,c),
(71,316,o),
(11,253,o),
(11,157,cs),
(11,47,o),
(91,-10,o),
(215,-10,cs),
(352,-10,o),
(457,60,o),
(457,187,cs)
);
},
{
closed = 1;
nodes = (
(95,230,o),
(144,270,o),
(270,297,cs),
(332,310,l),
(360,272,o),
(374,231,o),
(374,194,cs),
(374,111,o),
(308,65,o),
(217,65,cs),
(144,65,o),
(95,95,o),
(95,161,cs)
);
}
);
};
layerId = "C21AB58A-0F03-4AE0-976E-29AD56D058A6";
shapes = (
{
closed = 1;
nodes = (
(127,65,o),
(85,96,o),
(97,167,cs),
(107,219,o),
(140,258,o),
(220,302,cs),
(299,345,ls),
(383,391,o),
(445,440,o),
(461,531,cs),
(478,632,o),
(423,690,o),
(319,690,cs),
(207,690,o),
(133,622,o),
(117,534,cs),
(106,473,o),
(127,417,o),
(182,362,c),
(82,304,o),
(28,249,o),
(13,165,cs),
(-5,61,o),
(50,-10,o),
(169,-10,cs),
(270,-10,o),
(344,44,o),
(368,116,c),
(411,0,l),
(503,0,l),
(391,277,l),
(317,237,l),
(350,143,o),
(284,65,o),
(188,65,cs)
);
},
{
closed = 1;
nodes = (
(209,588,o),
(253,616,o),
(307,616,cs),
(356,616,o),
(388,590,o),
(378,530,cs),
(368,477,o),
(336,448,o),
(271,411,cs),
(247,398,l),
(202,450,o),
(192,494,o),
(199,532,cs)
);
}
);
width = 566;
},
{
layerId = "552872BC-8C7A-453E-A7A0-DCEE3439D276";
shapes = (
{
closed = 1;
nodes = (
(163,45,o),
(109,81,o),
(109,163,cs),
(109,228,o),
(144,269,o),
(225,316,cs),
(296,357,ls),
(367,398,o),
(416,448,o),
(416,537,cs),
(416,636,o),
(354,690,o),
(255,690,cs),
(147,690,o),
(87,626,o),
(87,539,cs),
(87,476,o),
(119,416,o),
(183,357,c),
(95,303,o),
(46,253,o),
(46,163,cs),
(46,59,o),
(113,-10,o),
(232,-10,cs),
(340,-10,o),
(406,50,o),
(410,129,c),
(490,0,l),
(560,0,l),
(392,266,l),
(343,236,l),
(398,133,o),
(340,45,o),
(232,45,cs)
);
},
{
closed = 1;
nodes = (
(149,604,o),
(193,637,o),
(256,637,cs),
(313,637,o),
(354,608,o),
(354,539,cs),
(354,475,o),
(319,438,o),
(268,408,cs),
(230,385,l),
(169,448,o),
(149,496,o),
(149,539,cs)
);
}
);
width = 560;
},
{
background = {
shapes = (
{
closed = 1;
nodes = (
(455,240,o),
(434,290,o),
(396,333,c),
(403,334,ls),
(487,353,o),
(536,367,o),
(587,391,c),
(568,446,l),
(521,422,o),
(467,403,o),
(360,380,cs),
(270,360,l),
(193,425,o),
(173,478,o),
(173,528,cs),
(173,610,o),
(229,637,o),
(294,637,cs),
(384,637,o),
(426,582,o),
(396,478,c),
(456,493,l),
(491,598,o),
(430,690,o),
(295,690,cs),
(186,690,o),
(111,632,o),
(111,527,cs),
(111,453,o),
(150,394,o),
(212,346,c),
(82,310,o),
(17,253,o),
(17,153,cs),
(17,44,o),
(97,-10,o),
(217,-10,cs),
(354,-10,o),
(455,62,o),
(455,188,cs)
);
},
{
closed = 1;
nodes = (
(80,234,o),
(132,274,o),
(272,305,cs),
(342,320,l),
(376,280,o),
(392,235,o),
(392,190,cs),
(392,97,o),
(322,45,o),
(218,45,cs),
(136,45,o),
(80,78,o),
(80,155,cs)
);
}
);
};
layerId = "EEA6B9EF-1944-48F9-8F0D-85D16B14CE21";
shapes = (
{
closed = 1;
nodes = (
(113,45,o),
(65,81,o),
(80,163,cs),
(91,228,o),
(133,269,o),
(223,316,cs),
(301,357,ls),
(379,398,o),
(437,448,o),
(453,537,cs),
(470,636,o),
(418,690,o),
(319,690,cs),
(211,690,o),
(139,626,o),
(124,539,cs),
(113,476,o),
(134,416,o),
(188,357,c),
(90,303,o),
(33,253,o),
(17,163,cs),
(-2,59,o),
(53,-10,o),
(172,-10,cs),
(280,-10,o),
(357,50,o),
(375,129,c),
(432,0,l),
(502,0,l),
(381,266,l),
(327,236,l),
(364,133,o),
(290,45,o),
(182,45,cs)
);
},
{
closed = 1;
nodes = (
(198,604,o),
(247,637,o),
(310,637,cs),
(367,637,o),
(403,608,o),
(391,539,cs),
(380,475,o),
(338,438,o),
(282,408,cs),
(240,385,l),
(190,448,o),
(179,496,o),
(186,539,cs)
);
}
);
width = 573.76146;
}
);
unicode = 38;
}
{
glyphname = quotesingle;
kernLeft = quotesingle;
kernRight = quotesingle;
layers = (
{
layerId = master01;
shapes = (
{
closed = 1;
nodes = (
(136,602,l),
(136,680,l),
(56,680,l),
(56,602,l),
(69,430,l),
(123,430,l)
);
}
);
width = 192;
},
{
layerId = "D73FB141-FF25-4743-A62C-F58A1C57CDB9";
shapes = (
{
closed = 1;
nodes = (
(159,584,l),
(159,680,l),
(52,680,l),
(52,584,l),
(72,388,l),
(139,388,l)
);
}
);
width = 211;
},
{
layerId = "7D2027AC-297A-4D58-8EA2-55B17EBAD0F9";
shapes = (
{
closed = 1;
nodes = (
(217,584,l),
(234,680,l),
(127,680,l),
(110,584,l),
(95,388,l),
(162,388,l)
);
}
);
width = 211;
},
{
layerId = "C21AB58A-0F03-4AE0-976E-29AD56D058A6";
shapes = (
{
closed = 1;
nodes = (
(198,602,l),
(212,680,l),
(132,680,l),
(118,602,l),
(101,430,l),
(155,430,l)
);
}
);
width = 192;
},
{
layerId = "552872BC-8C7A-453E-A7A0-DCEE3439D276";
shapes = (
{
closed = 1;
nodes = (
(121,614,l),
(121,680,l),
(59,680,l),
(59,614,l),
(67,458,l),
(113,458,l)
);
}
);
width = 180;
},
{
layerId = "EEA6B9EF-1944-48F9-8F0D-85D16B14CE21";
shapes = (
{
closed = 1;
nodes = (
(186,614,l),
(198,680,l),
(136,680,l),
(124,614,l),
(105,458,l),
(151,458,l)
);
}
);
width = 180;
}
);
unicode = 39;
}
{
glyphname = parenleft;
layers = (
{
layerId = master01;
shapes = (
{
closed = 1;
nodes = (
(145,317,ls),
(145,460,o),
(197,581,o),
(312,694,c),
(257,750,l),
(122,626,o),
(60,478,o),
(60,317,cs),
(60,280,ls),
(60,119,o),
(122,-29,o),
(257,-153,c),
(312,-97,l),
(197,15,o),
(145,136,o),
(145,280,cs)
);
}
);
width = 315;
},
{
layerId = "D73FB141-FF25-4743-A62C-F58A1C57CDB9";
shapes = (
{
closed = 1;
nodes = (
(167,317,ls),
(167,447,o),
(218,559,o),
(332,675,c),
(252,750,l),
(116,618,o),
(49,472,o),
(49,317,cs),
(49,280,ls),
(49,125,o),
(116,-21,o),
(252,-153,c),
(332,-78,l),
(218,38,o),
(167,150,o),
(167,280,cs)
);
}
);
width = 333;
},
{
layerId = "7D2027AC-297A-4D58-8EA2-55B17EBAD0F9";
shapes = (
{
closed = 1;
nodes = (
(166,206,ls),
(166,399,o),
(253,530,o),
(406,665,c),
(340,750,l),
(155,597,o),
(49,428,o),
(49,221,cs),
(49,190,ls),
(49,81,o),
(96,-51,o),
(181,-153,c),
(270,-88,l),
(202,-1,o),
(166,98,o),
(166,184,cs)
);
}
);
width = 335;
},
{
layerId = "C21AB58A-0F03-4AE0-976E-29AD56D058A6";
shapes = (
{
closed = 1;
nodes = (
(145,217,ls),
(145,405,o),
(235,555,o),
(391,687,c),
(346,750,l),
(155,598,o),
(62,407,o),
(62,222,cs),
(62,195,ls),
(62,81,o),
(105,-51,o),
(187,-153,c),
(250,-104,l),
(181,-14,o),
(145,95,o),
(145,193,cs)
);
}
);
width = 316;
},
{
layerId = "552872BC-8C7A-453E-A7A0-DCEE3439D276";
shapes = (
{
closed = 1;
nodes = (
(131,317,ls),
(131,470,o),
(183,596,o),
(300,708,c),
(261,750,l),
(127,632,o),
(68,482,o),
(68,317,cs),
(68,280,ls),
(68,115,o),
(127,-35,o),
(261,-153,c),
(300,-111,l),
(183,1,o),
(131,127,o),
(131,280,cs)
);
}
);
width = 304;
},
{
layerId = "EEA6B9EF-1944-48F9-8F0D-85D16B14CE21";
shapes = (
{
closed = 1;
nodes = (
(131,225,ls),
(131,410,o),
(224,572,o),
(382,703,c),
(350,750,l),
(155,600,o),
(71,393,o),
(71,223,cs),
(71,199,ls),
(71,81,o),
(112,-52,o),
(192,-153,c),
(237,-116,l),
(168,-23,o),
(131,94,o),
(131,200,cs)
);
}
);
width = 304;
}
);
unicode = 40;
}
{
glyphname = parenright;
layers = (
{
layerId = master01;
shapes = (
{
closed = 1;
nodes = (
(255,317,ls),
(255,478,o),
(193,626,o),
(58,750,c),
(2,694,l),
(118,581,o),
(170,460,o),
(170,317,cs),
(170,280,ls),
(170,136,o),
(118,15,o),
(2,-97,c),
(58,-153,l),
(193,-29,o),
(255,119,o),
(255,280,cs)
);
}
);
width = 315;
},
{
layerId = "D73FB141-FF25-4743-A62C-F58A1C57CDB9";
shapes = (
{
closed = 1;
nodes = (
(284,317,ls),
(284,472,o),
(217,618,o),
(81,750,c),
(1,675,l),
(115,559,o),
(166,447,o),
(166,317,cs),
(166,280,ls),
(166,150,o),
(115,38,o),
(1,-78,c),
(81,-153,l),
(217,-21,o),
(284,125,o),
(284,280,cs)
);
}
);
width = 333;
},
{
layerId = "7D2027AC-297A-4D58-8EA2-55B17EBAD0F9";
shapes = (
{
closed = 1;
nodes = (
(301,407,ls),
(301,516,o),
(254,648,o),
(169,750,c),
(80,685,l),
(148,598,o),
(184,499,o),
(184,413,cs),
(184,391,ls),
(184,198,o),
(97,67,o),
(-56,-68,c),
(10,-153,l),
(195,0,o),
(301,169,o),
(301,376,cs)
);
}
);
width = 334.55513;
},
{
layerId = "C21AB58A-0F03-4AE0-976E-29AD56D058A6";
shapes = (
{
closed = 1;
nodes = (
(271,401,ls),
(271,516,o),
(227,648,o),
(145,750,c),
(83,701,l),
(151,611,o),
(188,501,o),
(188,403,cs),
(188,379,ls),
(188,191,o),
(97,41,o),
(-58,-90,c),
(-12,-153,l),
(178,-1,o),
(271,190,o),
(271,374,cs)
);
}
);
width = 315;
},
{
layerId = "552872BC-8C7A-453E-A7A0-DCEE3439D276";
shapes = (
{
closed = 1;
nodes = (
(236,317,ls),
(236,482,o),
(177,632,o),
(43,750,c),
(4,708,l),
(121,596,o),
(173,470,o),
(173,317,cs),
(173,280,ls),
(173,127,o),
(121,1,o),
(4,-111,c),
(43,-153,l),
(177,-35,o),
(236,115,o),
(236,280,cs)
);
}
);
width = 304;
},
{
layerId = "EEA6B9EF-1944-48F9-8F0D-85D16B14CE21";
shapes = (
{
closed = 1;
nodes = (
(251,398,ls),
(251,516,o),
(210,649,o),
(130,750,c),
(85,713,l),
(154,620,o),
(191,503,o),
(191,397,cs),
(191,372,ls),
(191,187,o),
(98,25,o),
(-60,-106,c),
(-28,-153,l),
(167,-3,o),
(251,204,o),
(251,374,cs)
);
}
);
width = 303.29943;
}
);
unicode = 41;
}
{
glyphname = asterisk;
layers = (
{
layerId = master01;
shapes = (
{
closed = 1;
nodes = (
(324,387,l),
(233,481,l),
(362,504,l),
(392,515,l),
(370,585,l),
(339,575,l),
(221,518,l),
(239,648,l),
(239,680,l),
(165,680,l),
(165,648,l),
(182,518,l),
(64,574,l),
(34,585,l),
(11,514,l),
(42,504,l),
(171,480,l),
(80,386,l),
(61,361,l),
(121,317,l),
(140,342,l),
(202,459,l),
(264,343,l),
(283,317,l),
(343,361,l)
);
}
);
width = 404;
},
{
layerId = "D73FB141-FF25-4743-A62C-F58A1C57CDB9";
shapes = (
{
closed = 1;
nodes = (
(325,407,l),
(246,477,l),
(351,489,l),
(398,505,l),
(369,595,l),
(321,580,l),
(230,528,l),
(251,630,l),
(251,680,l),
(156,680,l),
(156,630,l),
(177,527,l),
(86,579,l),
(39,594,l),
(9,504,l),
(57,488,l),
(162,476,l),
(84,406,l),
(55,366,l),
(132,310,l),
(161,350,l),
(205,446,l),
(248,351,l),
(277,310,l),
(354,366,l)
);
}
);
width = 407;
},
{
layerId = "7D2027AC-297A-4D58-8EA2-55B17EBAD0F9";
shapes = (
{
closed = 1;
nodes = (
(353,387,l),
(288,470,l),
(393,464,l),
(442,471,l),
(429,565,l),
(379,558,l),
(280,523,l),
(319,620,l),
(327,669,l),
(234,686,l),
(225,636,l),
(229,531,l),
(147,598,l),
(104,621,l),
(59,538,l),
(103,514,l),
(203,484,l),
(115,428,l),
(80,394,l),
(146,325,l),
(181,360,l),
(241,448,l),
(267,346,l),
(289,300,l),
(374,342,l)
);
}
);
width = 412.94999;
},
{
layerId = "C21AB58A-0F03-4AE0-976E-29AD56D058A6";
shapes = (
{
closed = 1;
nodes = (
(348,367,l),
(274,476,l),
(406,476,l),
(437,481,l),
(427,554,l),
(395,550,l),
(270,515,l),
(309,639,l),
(315,670,l),
(242,683,l),
(236,652,l),
(231,521,l),
(124,597,l),
(96,612,l),
(62,547,l),
(90,532,l),
(213,487,l),
(107,409,l),
(84,388,l),
(136,334,l),
(159,355,l),
(240,459,l),
(281,335,l),
(295,306,l),
(362,339,l)
);
}
);
width = 406;
},
{
layerId = "552872BC-8C7A-453E-A7A0-DCEE3439D276";
shapes = (
{
closed = 1;
nodes = (
(324,374,l),
(226,484,l),
(370,515,l),
(389,522,l),
(371,579,l),
(352,572,l),
(216,513,l),
(231,660,l),
(231,680,l),
(171,680,l),
(171,660,l),
(186,513,l),
(50,572,l),
(31,579,l),
(13,522,l),
(32,515,l),
(176,484,l),
(78,374,l),
(66,358,l),
(115,322,l),
(127,338,l),
(201,466,l),
(275,338,l),
(287,322,l),
(336,358,l)
);
}
);
width = 402;
},
{
layerId = "EEA6B9EF-1944-48F9-8F0D-85D16B14CE21";
shapes = (
{
closed = 1;
nodes = (
(345,355,l),
(267,480,l),
(415,485,l),
(435,489,l),
(427,548,l),
(407,545,l),
(263,511,l),
(303,652,l),
(307,672,l),
(248,682,l),
(244,663,l),
(233,516,l),
(110,597,l),
(92,607,l),
(65,554,l),
(82,544,l),
(219,488,l),
(103,397,l),
(88,384,l),
(130,340,l),
(145,353,l),
(239,466,l),
(291,328,l),
(300,310,l),
(354,337,l)
);
}
);
width = 402;
}
);
unicode = 42;
}
{
glyphname = plus;
layers = (
{
layerId = master01;
shapes = (
{
closed = 1;
nodes = (
(501,334,l),
(331,334,l),
(331,509,l),
(256,509,l),
(256,334,l),
(87,334,l),
(87,262,l),
(256,262,l),
(256,87,l),
(331,87,l),
(331,262,l),
(501,262,l)
);
}
);
width = 588;
},
{
layerId = "D73FB141-FF25-4743-A62C-F58A1C57CDB9";
shapes = (
{
closed = 1;
nodes = (
(501,355,l),
(345,355,l),
(345,515,l),
(243,515,l),
(243,355,l),
(87,355,l),
(87,255,l),
(243,255,l),
(243,95,l),
(345,95,l),
(345,255,l),
(501,255,l)
);
}
);
width = 588;
},
{
layerId = "7D2027AC-297A-4D58-8EA2-55B17EBAD0F9";
shapes = (
{
closed = 1;
nodes = (
(519,355,l),
(363,355,l),
(391,515,l),
(289,515,l),
(261,355,l),
(105,355,l),
(87,255,l),
(243,255,l),
(215,95,l),
(317,95,l),
(345,255,l),
(501,255,l)
);
}
);
width = 588;
},
{
layerId = "C21AB58A-0F03-4AE0-976E-29AD56D058A6";
shapes = (
{
closed = 1;
nodes = (
(516,334,l),
(346,334,l),
(377,509,l),
(302,509,l),
(271,334,l),
(102,334,l),
(89,262,l),
(259,262,l),
(228,87,l),
(302,87,l),
(333,262,l),
(503,262,l)
);
}
);
width = 588;
},
{
layerId = "552872BC-8C7A-453E-A7A0-DCEE3439D276";
shapes = (
{
closed = 1;
nodes = (
(501,321,l),
(322,321,l),
(322,506,l),
(266,506,l),
(266,321,l),
(87,321,l),
(87,268,l),
(266,268,l),
(266,83,l),
(322,83,l),
(322,268,l),
(501,268,l)
);
}
);
width = 588;
},
{
layerId = "EEA6B9EF-1944-48F9-8F0D-85D16B14CE21";
shapes = (
{
closed = 1;
nodes = (
(515,321,l),
(336,321,l),
(368,506,l),
(312,506,l),
(280,321,l),
(101,321,l),
(91,268,l),
(270,268,l),
(238,83,l),
(294,83,l),
(326,268,l),
(505,268,l)
);
}
);
width = 588;
}
);
unicode = 43;
}
{
glyphname = comma;
kernLeft = period;
kernRight = period;
layers = (
{
layerId = master01;
shapes = (
{
closed = 1;
nodes = (
(55,91,l),
(55,-24,o),
(49,-82,o),
(0,-178,c),
(54,-208,l),
(116,-108,o),
(137,-25,o),
(137,72,cs),
(137,91,l)
);
}
);
width = 192;
},
{
layerId = "D73FB141-FF25-4743-A62C-F58A1C57CDB9";
shapes = (
{
closed = 1;
nodes = (
(49,119,l),
(49,-24,o),
(41,-102,o),
(-3,-184,c),
(69,-223,l),
(141,-109,o),
(161,-12,o),
(161,100,cs),
(161,119,l)
);
}
);
width = 211;
},
{
layerId = "7D2027AC-297A-4D58-8EA2-55B17EBAD0F9";
shapes = (
{
closed = 1;
nodes = (
(25,119,l),
(2,-10,o),
(-16,-75,o),
(-80,-184,c),
(-15,-223,l),
(77,-109,o),
(113,-17,o),
(134,100,cs),
(137,119,l)
);
}
);
width = 211;
},
{
layerId = "C21AB58A-0F03-4AE0-976E-29AD56D058A6";
shapes = (
{
closed = 1;
nodes = (
(27,91,l),
(6,-23,o),
(-13,-81,o),
(-75,-177,c),
(-26,-208,l),
(50,-115,o),
(88,-36,o),
(106,72,cs),
(109,91,l)
);
}
);
width = 192;
},
{
layerId = "552872BC-8C7A-453E-A7A0-DCEE3439D276";
shapes = (
{
closed = 1;
nodes = (
(59,73,l),
(59,-33,o),
(47,-87,o),
(2,-175,c),
(44,-199,l),
(100,-109,o),
(121,-34,o),
(121,54,cs),
(121,73,l)
);
}
);
width = 180;
},
{
layerId = "EEA6B9EF-1944-48F9-8F0D-85D16B14CE21";
shapes = (
{
closed = 1;
nodes = (
(29,73,l),
(10,-32,o),
(-11,-85,o),
(-72,-173,c),
(-34,-199,l),
(33,-120,o),
(72,-50,o),
(88,54,cs),
(91,73,l)
);
}
);
width = 180;
}
);
unicode = 44;
}
{
glyphname = hyphen;
kernLeft = hyphen;
kernRight = hyphen;
layers = (
{
layerId = master01;
shapes = (
{
closed = 1;
nodes = (
(336,267,l),
(336,339,l),
(56,339,l),
(56,267,l)
);
}
);
width = 392;
},
{
layerId = "D73FB141-FF25-4743-A62C-F58A1C57CDB9";
shapes = (
{
closed = 1;
nodes = (
(354,265,l),
(354,365,l),
(50,365,l),
(50,265,l)
);
}
);
width = 404;
},
{
layerId = "7D2027AC-297A-4D58-8EA2-55B17EBAD0F9";
shapes = (
{
closed = 1;
nodes = (
(356,265,l),
(373,365,l),
(69,365,l),
(52,265,l)
);
}
);
width = 404;
},
{
layerId = "C21AB58A-0F03-4AE0-976E-29AD56D058A6";
shapes = (
{
closed = 1;
nodes = (
(339,267,l),
(352,339,l),
(72,339,l),
(59,267,l)
);
}
);
width = 392;
},
{
layerId = "552872BC-8C7A-453E-A7A0-DCEE3439D276";
shapes = (
{
closed = 1;
nodes = (
(324,269,l),
(324,322,l),
(60,322,l),
(60,269,l)
);
}
);
width = 384;
},
{
layerId = "EEA6B9EF-1944-48F9-8F0D-85D16B14CE21";
shapes = (
{
closed = 1;
nodes = (
(328,269,l),
(338,322,l),
(74,322,l),
(64,269,l)
);
}
);
width = 384;
}
);
unicode = 45;
}
{
glyphname = period;
kernLeft = period;
kernRight = period;
layers = (
{
layerId = master01;
shapes = (
{
closed = 1;
nodes = (
(142,91,l),
(50,91,l),
(50,0,l),
(142,0,l)
);
}
);
width = 192;
},
{
layerId = "D73FB141-FF25-4743-A62C-F58A1C57CDB9";
shapes = (
{
closed = 1;
nodes = (
(166,119,l),
(45,119,l),
(45,0,l),
(166,0,l)
);
}
);
width = 211;
},
{
layerId = "7D2027AC-297A-4D58-8EA2-55B17EBAD0F9";
shapes = (
{
closed = 1;
nodes = (
(142,119,l),
(21,119,l),
(0,0,l),
(121,0,l)
);
}
);
width = 211;
},
{
layerId = "C21AB58A-0F03-4AE0-976E-29AD56D058A6";
shapes = (
{
closed = 1;
nodes = (
(114,91,l),
(22,91,l),
(6,0,l),
(98,0,l)
);
}
);
width = 192;
},
{
layerId = "552872BC-8C7A-453E-A7A0-DCEE3439D276";
shapes = (
{
closed = 1;
nodes = (
(126,73,l),
(54,73,l),
(54,0,l),
(126,0,l)
);
}
);
width = 180;
},
{
layerId = "EEA6B9EF-1944-48F9-8F0D-85D16B14CE21";
shapes = (
{
closed = 1;
nodes = (
(96,73,l),
(24,73,l),
(11,0,l),
(83,0,l)
);
}
);
width = 180;
}
);
unicode = 46;
}
{
glyphname = slash;
layers = (
{
layerId = master01;
shapes = (
{
closed = 1;
nodes = (
(-39,-143,l),
(44,-143,l),
(373,740,l),
(289,740,l)
);
}
);
width = 364;
},
{
layerId = "D73FB141-FF25-4743-A62C-F58A1C57CDB9";
shapes = (
{
closed = 1;
nodes = (
(-39,-143,l),
(79,-143,l),
(403,740,l),
(285,740,l)
);
}
);
width = 394;
},
{
layerId = "7D2027AC-297A-4D58-8EA2-55B17EBAD0F9";
shapes = (
{
closed = 1;
nodes = (
(-109,-143,l),
(12,-143,l),
(488,740,l),
(367,740,l)
);
}
);
width = 394;
},
{
layerId = "C21AB58A-0F03-4AE0-976E-29AD56D058A6";
shapes = (
{
closed = 1;
nodes = (
(-107,-143,l),
(-21,-143,l),
(459,740,l),
(373,740,l)
);
}
);
width = 364;
},
{
layerId = "552872BC-8C7A-453E-A7A0-DCEE3439D276";
shapes = (
{
closed = 1;
nodes = (
(-39,-143,l),
(22,-143,l),
(353,740,l),
(292,740,l)
);
}
);
width = 344;
},
{
layerId = "EEA6B9EF-1944-48F9-8F0D-85D16B14CE21";
shapes = (
{
closed = 1;
nodes = (
(-107,-143,l),
(-44,-143,l),
(440,740,l),
(377,740,l)
);
}
);
width = 344;
}
);
unicode = 47;
}
{
glyphname = zero;
layers = (
{
layerId = master01;
shapes = (
{
closed = 1;
nodes = (
(537,595,o),
(451,690,o),
(306,690,cs),
(162,690,o),
(76,595,o),
(76,415,cs),
(76,266,ls),
(76,85,o),
(161,-10,o),
(306,-10,cs),
(451,-10,o),
(537,85,o),
(537,266,cs),
(537,415,ls)
);
},
{
closed = 1;
nodes = (
(449,266,ls),
(449,128,o),
(396,68,o),
(306,68,cs),
(217,68,o),
(164,128,o),
(164,266,cs),
(164,415,ls),
(164,553,o),
(217,611,o),
(306,611,cs),
(396,611,o),
(449,553,o),
(449,415,cs)
);
}
);
width = 613;
},
{
layerId = "D73FB141-FF25-4743-A62C-F58A1C57CDB9";
shapes = (
{
closed = 1;
nodes = (
(545,585,o),
(462,690,o),
(305,690,cs),
(147,690,o),
(65,585,o),
(65,412,cs),
(65,269,ls),
(65,96,o),
(147,-10,o),
(305,-10,cs),
(462,-10,o),
(545,96,o),
(545,269,cs),
(545,412,ls)
);
},
{
closed = 1;
nodes = (
(424,269,ls),
(424,158,o),
(386,101,o),
(305,101,cs),
(223,101,o),
(186,158,o),
(186,269,cs),
(186,412,ls),
(186,523,o),
(223,579,o),
(305,579,cs),
(386,579,o),
(424,523,o),
(424,412,cs)
);
}
);
width = 610;
},
{
layerId = "7D2027AC-297A-4D58-8EA2-55B17EBAD0F9";
shapes = (
{
closed = 1;
nodes = (
(602,575,o),
(516,690,o),
(364,690,cs),
(208,690,o),
(124,588,o),
(91,402,cs),
(69,279,ls),
(37,102,o),
(124,-10,o),
(277,-10,cs),
(432,-10,o),
(515,89,o),
(549,279,cs),
(571,402,ls)
);
},
{
closed = 1;
nodes = (
(428,279,ls),
(406,158,o),
(365,101,o),
(282,101,cs),
(202,101,o),
(169,162,o),
(190,279,cs),
(212,402,ls),
(233,519,o),
(276,579,o),
(357,579,cs),
(438,579,o),
(470,516,o),
(450,402,cs)
);
}
);
width = 610;
},
{
layerId = "C21AB58A-0F03-4AE0-976E-29AD56D058A6";
shapes = (
{
closed = 1;
nodes = (
(595,578,o),
(514,690,o),
(368,690,cs),
(223,690,o),
(136,592,o),
(105,417,cs),
(81,282,ls),
(49,100,o),
(128,-10,o),
(277,-10,cs),
(421,-10,o),
(508,86,o),
(540,264,cs),
(563,399,ls)
);
},
{
closed = 1;
nodes = (
(452,264,ls),
(428,133,o),
(372,68,o),
(279,68,cs),
(187,68,o),
(145,142,o),
(169,282,cs),
(193,417,ls),
(216,546,o),
(273,611,o),
(364,611,cs),
(457,611,o),
(500,537,o),
(475,399,cs)
);
}
);
width = 613;
},
{
layerId = "552872BC-8C7A-453E-A7A0-DCEE3439D276";
shapes = (
{
closed = 1;
nodes = (
(532,602,o),
(444,690,o),
(308,690,cs),
(172,690,o),
(84,602,o),
(84,417,cs),
(84,264,ls),
(84,78,o),
(171,-10,o),
(308,-10,cs),
(445,-10,o),
(532,78,o),
(532,264,cs),
(532,417,ls)
);
},
{
closed = 1;
nodes = (
(466,264,ls),
(466,109,o),
(403,47,o),
(308,47,cs),
(214,47,o),
(150,109,o),
(150,264,cs),
(150,417,ls),
(150,573,o),
(214,633,o),
(308,633,cs),
(403,633,o),
(466,573,o),
(466,417,cs)
);
}
);
width = 616;
},
{
layerId = "EEA6B9EF-1944-48F9-8F0D-85D16B14CE21";
shapes = (
{
closed = 1;
nodes = (
(591,580,o),
(514,690,o),
(371,690,cs),
(233,690,o),
(144,595,o),
(115,427,cs),
(90,284,ls),
(58,99,o),
(132,-10,o),
(277,-10,cs),
(415,-10,o),
(504,84,o),
(534,254,cs),
(559,397,ls)
);
},
{
closed = 1;
nodes = (
(468,254,ls),
(444,117,o),
(377,47,o),
(278,47,cs),
(177,47,o),
(129,129,o),
(156,284,cs),
(181,427,ls),
(205,564,o),
(271,633,o),
(370,633,cs),
(470,633,o),
(520,552,o),
(493,397,cs)
);
}
);
width = 616;
}
);
unicode = 48;
}
{
glyphname = one;
layers = (
{
layerId = master01;
shapes = (
{
closed = 1;
nodes = (
(57,520,l),
(175,588,l),
(175,0,l),
(260,0,l),
(260,680,l),
(181,680,l),
(19,586,l)
);
}
);
width = 366;
},
{
layerId = "D73FB141-FF25-4743-A62C-F58A1C57CDB9";
shapes = (
{
closed = 1;
nodes = (
(63,492,l),
(165,548,l),
(165,0,l),
(283,0,l),
(283,680,l),
(183,680,l),
(10,583,l)
);
}
);
width = 377;
},
{
layerId = "7D2027AC-297A-4D58-8EA2-55B17EBAD0F9";
shapes = (
{
closed = 1;
nodes = (
(106,489,l),
(216,544,l),
(120,0,l),
(238,0,l),
(358,680,l),
(258,680,l),
(68,583,l)
);
}
);
width = 377;
},
{
layerId = "C21AB58A-0F03-4AE0-976E-29AD56D058A6";
shapes = (
{
closed = 1;
nodes = (
(106,518,l),
(234,585,l),
(131,0,l),
(216,0,l),
(336,680,l),
(257,680,l),
(78,586,l)
);
}
);
width = 366;
},
{
layerId = "552872BC-8C7A-453E-A7A0-DCEE3439D276";
shapes = (
{
closed = 1;
nodes = (
(54,540,l),
(182,615,l),
(182,0,l),
(245,0,l),
(245,680,l),
(180,680,l),
(25,588,l)
);
}
);
width = 360;
},
{
layerId = "EEA6B9EF-1944-48F9-8F0D-85D16B14CE21";
shapes = (
{
closed = 1;
nodes = (
(107,538,l),
(247,613,l),
(139,0,l),
(202,0,l),
(322,680,l),
(257,680,l),
(86,588,l)
);
}
);
width = 360;
}
);
unicode = 49;
}
{
glyphname = two;
layers = (
{
layerId = master01;
shapes = (
{
closed = 1;
nodes = (
(435,79,l),
(132,79,l),
(134,170,o),
(163,227,o),
(226,260,cs),
(291,294,ls),
(367,332,o),
(437,380,o),
(437,488,cs),
(437,505,ls),
(437,614,o),
(378,690,o),
(230,690,cs),
(173,690,o),
(110,677,o),
(44,647,c),
(72,574,l),
(133,600,o),
(182,611,o),
(228,611,cs),
(309,611,o),
(352,579,o),
(352,505,cs),
(352,488,ls),
(352,423,o),
(312,395,o),
(251,363,cs),
(186,330,ls),
(108,290,o),
(47,215,o),
(47,66,cs),
(47,0,l),
(435,0,l)
);
}
);
width = 493;
},
{
layerId = "D73FB141-FF25-4743-A62C-F58A1C57CDB9";
shapes = (
{
closed = 1;
nodes = (
(452,113,l),
(158,113,l),
(161,180,o),
(183,221,o),
(232,245,cs),
(300,279,ls),
(381,319,o),
(454,372,o),
(454,481,cs),
(454,499,ls),
(454,603,o),
(395,690,o),
(233,690,cs),
(174,690,o),
(114,677,o),
(40,644,c),
(77,541,l),
(142,565,o),
(183,579,o),
(229,579,cs),
(304,579,o),
(336,548,o),
(336,499,cs),
(336,481,ls),
(336,433,o),
(300,406,o),
(248,380,cs),
(180,346,ls),
(103,308,o),
(40,238,o),
(40,95,cs),
(40,0,l),
(452,0,l)
);
}
);
width = 505;
},
{
layerId = "7D2027AC-297A-4D58-8EA2-55B17EBAD0F9";
shapes = (
{
closed = 1;
nodes = (
(143,113,l),
(157,173,o),
(179,208,o),
(238,236,cs),
(312,272,ls),
(422,325,o),
(482,360,o),
(501,468,cs),
(505,491,ls),
(523,594,o),
(460,690,o),
(306,690,cs),
(246,690,o),
(188,677,o),
(109,644,c),
(137,541,l),
(206,568,o),
(250,579,o),
(293,579,cs),
(370,579,o),
(396,543,o),
(387,491,cs),
(383,469,ls),
(376,429,o),
(352,412,o),
(277,376,cs),
(203,340,ls),
(100,290,o),
(48,235,o),
(22,95,c),
(5,0,l),
(417,0,l),
(437,113,l)
);
}
);
width = 514.479;
},
{
layerId = "C21AB58A-0F03-4AE0-976E-29AD56D058A6";
shapes = (
{
closed = 1;
nodes = (
(106,79,l),
(124,167,o),
(154,216,o),
(230,252,cs),
(301,286,ls),
(403,335,o),
(464,370,o),
(482,480,cs),
(485,500,ls),
(502,601,o),
(443,690,o),
(298,690,cs),
(243,690,o),
(183,677,o),
(110,647,c),
(132,574,l),
(199,601,o),
(251,611,o),
(292,611,cs),
(376,611,o),
(412,569,o),
(400,500,cs),
(397,480,ls),
(387,418,o),
(347,393,o),
(272,358,cs),
(201,323,ls),
(104,276,o),
(46,217,o),
(19,66,cs),
(7,0,l),
(396,0,l),
(410,79,l)
);
}
);
width = 496;
},
{
layerId = "552872BC-8C7A-453E-A7A0-DCEE3439D276";
shapes = (
{
closed = 1;
nodes = (
(425,57,l),
(115,57,l),
(117,165,o),
(149,232,o),
(223,271,cs),
(286,304,ls),
(359,342,o),
(427,387,o),
(427,493,cs),
(427,510,ls),
(427,623,o),
(367,690,o),
(228,690,cs),
(173,690,o),
(108,678,o),
(47,649,c),
(69,597,l),
(128,624,o),
(182,633,o),
(228,633,cs),
(313,633,o),
(364,600,o),
(364,510,cs),
(364,493,ls),
(364,418,o),
(321,389,o),
(253,353,cs),
(190,320,ls),
(111,279,o),
(52,200,o),
(52,47,cs),
(52,0,l),
(425,0,l)
);
}
);
width = 485;
},
{
layerId = "EEA6B9EF-1944-48F9-8F0D-85D16B14CE21";
shapes = (
{
closed = 1;
nodes = (
(83,57,l),
(103,164,o),
(138,221,o),
(225,263,cs),
(294,296,ls),
(391,342,o),
(453,377,o),
(470,488,cs),
(473,507,ls),
(489,607,o),
(432,690,o),
(294,690,cs),
(242,690,o),
(180,678,o),
(112,649,c),
(130,596,l),
(195,623,o),
(252,633,o),
(292,633,cs),
(381,633,o),
(424,587,o),
(410,506,cs),
(407,488,ls),
(395,412,o),
(344,381,o),
(270,346,cs),
(201,313,ls),
(107,268,o),
(46,206,o),
(17,47,c),
(9,0,l),
(382,0,l),
(392,57,l)
);
}
);
width = 485;
}
);
unicode = 50;
}
{
glyphname = three;
layers = (
{
layerId = master01;
shapes = (
{
closed = 1;
nodes = (
(432,193,ls),
(432,264,o),
(395,316,o),
(337,343,c),
(392,371,o),
(426,422,o),
(426,489,cs),
(426,503,ls),
(426,613,o),
(364,690,o),
(220,690,cs),
(162,690,o),
(100,677,o),
(34,647,c),
(62,574,l),
(124,600,o),
(171,611,o),
(218,611,cs),
(294,611,o),
(339,580,o),
(339,501,cs),
(339,487,ls),
(339,422,o),
(304,381,o),
(228,381,cs),
(128,381,l),
(128,305,l),
(228,305,ls),
(308,305,o),
(346,262,o),
(346,195,cs),
(346,179,ls),
(346,100,o),
(297,68,o),
(215,68,cs),
(165,68,o),
(115,79,o),
(49,106,c),
(23,34,l),
(92,3,o),
(157,-10,o),
(217,-10,cs),
(368,-10,o),
(432,67,o),
(432,177,cs)
);
}
);
width = 498;
},
{
layerId = "D73FB141-FF25-4743-A62C-F58A1C57CDB9";
shapes = (
{
closed = 1;
nodes = (
(446,199,ls),
(446,265,o),
(410,315,o),
(356,344,c),
(407,372,o),
(441,420,o),
(441,483,cs),
(441,497,ls),
(441,603,o),
(381,690,o),
(227,690,cs),
(167,690,o),
(105,678,o),
(30,644,c),
(67,541,l),
(134,566,o),
(176,579,o),
(223,579,cs),
(288,579,o),
(323,553,o),
(323,492,cs),
(323,478,ls),
(323,430,o),
(294,397,o),
(232,397,cs),
(126,397,l),
(126,289,l),
(232,289,ls),
(297,289,o),
(328,255,o),
(328,204,cs),
(328,190,ls),
(328,128,o),
(291,101,o),
(220,101,cs),
(171,101,o),
(127,115,o),
(57,141,c),
(20,38,l),
(98,3,o),
(162,-10,o),
(224,-10,cs),
(385,-10,o),
(446,78,o),
(446,185,cs)
);
}
);
width = 501;
},
{
layerId = "7D2027AC-297A-4D58-8EA2-55B17EBAD0F9";
shapes = (
{
closed = 1;
nodes = (
(437,193,ls),
(446,258,o),
(424,307,o),
(381,336,c),
(436,366,o),
(472,415,o),
(482,479,cs),
(485,498,ls),
(502,603,o),
(444,690,o),
(291,690,cs),
(234,690,o),
(170,678,o),
(89,644,c),
(119,541,l),
(188,567,o),
(235,579,o),
(281,579,cs),
(347,579,o),
(375,553,o),
(366,493,cs),
(363,474,ls),
(356,428,o),
(321,397,o),
(259,397,cs),
(153,397,l),
(134,289,l),
(240,289,ls),
(305,289,o),
(328,252,o),
(320,197,cs),
(318,183,ls),
(310,125,o),
(266,101,o),
(195,101,cs),
(146,101,o),
(102,113,o),
(39,141,c),
(-4,38,l),
(68,3,o),
(129,-10,o),
(192,-10,cs),
(353,-10,o),
(419,70,o),
(435,179,cs)
);
}
);
width = 503.57722;
},
{
layerId = "C21AB58A-0F03-4AE0-976E-29AD56D058A6";
shapes = (
{
closed = 1;
nodes = (
(422,185,ls),
(434,257,o),
(409,309,o),
(360,338,c),
(421,365,o),
(458,415,o),
(468,481,cs),
(470,497,ls),
(487,609,o),
(432,690,o),
(289,690,cs),
(233,690,o),
(168,677,o),
(97,646,c),
(119,574,l),
(185,600,o),
(235,611,o),
(282,611,cs),
(358,611,o),
(395,578,o),
(383,495,cs),
(381,479,ls),
(372,419,o),
(328,381,o),
(252,381,cs),
(152,381,l),
(138,305,l),
(238,305,ls),
(318,305,o),
(347,258,o),
(336,186,cs),
(333,171,ls),
(321,97,o),
(266,68,o),
(184,68,cs),
(135,68,o),
(84,78,o),
(25,106,c),
(-4,34,l),
(59,3,o),
(121,-10,o),
(183,-10,cs),
(336,-10,o),
(402,61,o),
(420,169,cs)
);
}
);
width = 499;
},
{
layerId = "552872BC-8C7A-453E-A7A0-DCEE3439D276";
shapes = (
{
closed = 1;
nodes = (
(424,190,ls),
(424,263,o),
(386,317,o),
(325,344,c),
(384,370,o),
(417,423,o),
(417,493,cs),
(417,507,ls),
(417,620,o),
(353,690,o),
(216,690,cs),
(160,690,o),
(98,677,o),
(38,649,c),
(60,597,l),
(118,624,o),
(169,633,o),
(216,633,cs),
(299,633,o),
(351,598,o),
(351,507,cs),
(351,493,ls),
(351,418,o),
(312,371,o),
(226,371,cs),
(130,371,l),
(130,316,l),
(226,316,ls),
(316,316,o),
(358,267,o),
(358,190,cs),
(358,173,ls),
(358,82,o),
(302,47,o),
(213,47,cs),
(162,47,o),
(107,55,o),
(45,84,c),
(25,32,l),
(88,3,o),
(154,-10,o),
(213,-10,cs),
(357,-10,o),
(424,60,o),
(424,173,cs)
);
}
);
width = 497;
},
{
layerId = "EEA6B9EF-1944-48F9-8F0D-85D16B14CE21";
shapes = (
{
closed = 1;
nodes = (
(413,180,ls),
(426,256,o),
(400,312,o),
(345,340,c),
(410,365,o),
(449,415,o),
(459,483,cs),
(461,497,ls),
(478,614,o),
(425,690,o),
(289,690,cs),
(233,690,o),
(168,677,o),
(103,648,c),
(120,596,l),
(183,623,o),
(236,633,o),
(283,633,cs),
(366,633,o),
(409,596,o),
(395,497,cs),
(393,483,ls),
(383,414,o),
(333,371,o),
(248,371,cs),
(152,371,l),
(142,316,l),
(238,316,ls),
(328,316,o),
(361,262,o),
(347,180,cs),
(344,163,ls),
(329,79,o),
(266,47,o),
(178,47,cs),
(128,47,o),
(73,56,o),
(17,84,c),
(-5,32,l),
(53,3,o),
(116,-10,o),
(177,-10,cs),
(325,-10,o),
(391,56,o),
(410,163,cs)
);
}
);
width = 497;
}
);
unicode = 51;
}
{
glyphname = four;
layers = (
{
layerId = master01;
shapes = (
{
closed = 1;
nodes = (
(481,240,l),
(406,240,l),
(406,364,l),
(324,364,l),
(324,240,l),
(129,240,l),
(231,393,o),
(311,534,o),
(367,680,c),
(275,680,l),
(220,532,o),
(134,386,o),
(32,230,c),
(32,163,l),
(324,163,l),
(324,0,l),
(406,0,l),
(406,163,l),
(481,163,l)
);
}
);
width = 508;
},
{
layerId = "D73FB141-FF25-4743-A62C-F58A1C57CDB9";
shapes = (
{
closed = 1;
nodes = (
(505,261,l),
(434,261,l),
(434,364,l),
(318,364,l),
(318,261,l),
(164,261,l),
(253,397,o),
(344,544,o),
(394,680,c),
(263,680,l),
(212,541,o),
(115,390,o),
(26,251,c),
(26,154,l),
(318,154,l),
(318,0,l),
(434,0,l),
(434,154,l),
(505,154,l)
);
}
);
width = 527;
},
{
layerId = "7D2027AC-297A-4D58-8EA2-55B17EBAD0F9";
shapes = (
{
closed = 1;
nodes = (
(506,261,l),
(435,261,l),
(453,364,l),
(337,364,l),
(319,261,l),
(170,261,l),
(285,400,o),
(399,542,o),
(474,680,c),
(333,680,l),
(256,540,o),
(141,393,o),
(25,251,c),
(8,154,l),
(300,154,l),
(273,0,l),
(389,0,l),
(416,154,l),
(487,154,l)
);
}
);
width = 527.21539;
},
{
layerId = "C21AB58A-0F03-4AE0-976E-29AD56D058A6";
shapes = (
{
closed = 1;
nodes = (
(479,240,l),
(404,240,l),
(426,364,l),
(344,364,l),
(322,240,l),
(136,240,l),
(264,393,o),
(366,533,o),
(448,680,c),
(349,680,l),
(267,531,o),
(159,387,o),
(29,230,c),
(17,163,l),
(309,163,l),
(280,0,l),
(362,0,l),
(391,163,l),
(466,163,l)
);
}
);
width = 508;
},
{
layerId = "552872BC-8C7A-453E-A7A0-DCEE3439D276";
shapes = (
{
closed = 1;
nodes = (
(465,226,l),
(388,226,l),
(388,364,l),
(328,364,l),
(328,226,l),
(106,226,l),
(216,391,o),
(290,528,o),
(350,680,c),
(284,680,l),
(226,526,o),
(147,384,o),
(36,216,c),
(36,170,l),
(328,170,l),
(328,0,l),
(388,0,l),
(388,170,l),
(465,170,l)
);
}
);
width = 496;
},
{
layerId = "EEA6B9EF-1944-48F9-8F0D-85D16B14CE21";
shapes = (
{
closed = 1;
nodes = (
(462,226,l),
(385,226,l),
(409,364,l),
(349,364,l),
(325,226,l),
(114,226,l),
(252,390,o),
(345,529,o),
(432,680,c),
(361,680,l),
(275,527,o),
(172,384,o),
(32,216,c),
(23,170,l),
(315,170,l),
(285,0,l),
(345,0,l),
(375,170,l),
(452,170,l)
);
}
);
width = 496;
}
);
unicode = 52;
}
{
glyphname = five;
layers = (
{
layerId = master01;
shapes = (
{
closed = 1;
nodes = (
(119,314,l),
(161,333,o),
(199,343,o),
(239,343,cs),
(324,343,o),
(366,295,o),
(366,222,cs),
(366,192,ls),
(366,103,o),
(317,68,o),
(234,68,cs),
(184,68,o),
(133,78,o),
(68,106,c),
(41,34,l),
(110,3,o),
(175,-10,o),
(235,-10,cs),
(388,-10,o),
(454,73,o),
(454,192,cs),
(454,222,ls),
(454,353,o),
(373,420,o),
(248,420,cs),
(213,420,o),
(182,415,o),
(153,405,c),
(165,600,l),
(426,600,l),
(426,680,l),
(88,680,l),
(68,354,l)
);
}
);
width = 507;
},
{
layerId = "D73FB141-FF25-4743-A62C-F58A1C57CDB9";
shapes = (
{
closed = 1;
nodes = (
(132,294,l),
(173,310,o),
(208,319,o),
(242,319,cs),
(317,319,o),
(349,281,o),
(349,223,cs),
(349,196,ls),
(349,130,o),
(310,101,o),
(236,101,cs),
(187,101,o),
(143,113,o),
(73,141,c),
(36,38,l),
(114,3,o),
(178,-10,o),
(240,-10,cs),
(405,-10,o),
(470,84,o),
(470,196,cs),
(470,223,ls),
(470,356,o),
(391,426,o),
(259,426,cs),
(232,426,o),
(207,423,o),
(184,417,c),
(193,567,l),
(435,567,l),
(435,680,l),
(87,680,l),
(67,351,l)
);
}
);
width = 519;
},
{
layerId = "7D2027AC-297A-4D58-8EA2-55B17EBAD0F9";
shapes = (
{
closed = 1;
nodes = (
(130,294,l),
(173,310,o),
(209,319,o),
(241,319,cs),
(319,319,o),
(345,275,o),
(333,214,cs),
(327,184,ls),
(316,129,o),
(272,101,o),
(202,101,cs),
(150,101,o),
(109,113,o),
(43,141,c),
(-2,38,l),
(70,3,o),
(131,-10,o),
(195,-10,cs),
(360,-10,o),
(426,75,o),
(448,184,cs),
(454,214,ls),
(478,335,o),
(408,426,o),
(266,426,cs),
(245,426,o),
(225,424,o),
(205,420,c),
(239,567,l),
(485,567,l),
(505,680,l),
(154,680,l),
(76,351,l)
);
}
);
width = 510;
},
{
layerId = "C21AB58A-0F03-4AE0-976E-29AD56D058A6";
shapes = (
{
closed = 1;
nodes = (
(127,314,l),
(171,333,o),
(212,343,o),
(248,343,cs),
(337,343,o),
(370,290,o),
(357,212,cs),
(351,181,ls),
(338,101,o),
(281,68,o),
(199,68,cs),
(149,68,o),
(100,78,o),
(41,107,c),
(8,34,l),
(72,3,o),
(134,-10,o),
(196,-10,cs),
(347,-10,o),
(419,63,o),
(439,181,cs),
(445,212,ls),
(466,336,o),
(393,420,o),
(261,420,cs),
(232,420,o),
(204,416,o),
(177,407,c),
(223,600,l),
(486,600,l),
(500,680,l),
(161,680,l),
(84,354,l)
);
}
);
width = 504;
},
{
layerId = "552872BC-8C7A-453E-A7A0-DCEE3439D276";
shapes = (
{
closed = 1;
nodes = (
(111,328,l),
(153,349,o),
(193,360,o),
(238,360,cs),
(330,360,o),
(378,305,o),
(378,222,cs),
(378,190,ls),
(378,86,o),
(322,47,o),
(233,47,cs),
(182,47,o),
(127,55,o),
(65,84,c),
(45,32,l),
(108,3,o),
(174,-10,o),
(233,-10,cs),
(377,-10,o),
(444,67,o),
(444,190,cs),
(444,222,ls),
(444,351,o),
(361,417,o),
(241,417,cs),
(202,417,o),
(166,410,o),
(134,398,c),
(147,623,l),
(421,623,l),
(421,680,l),
(90,680,l),
(70,356,l)
);
}
);
width = 500;
},
{
layerId = "EEA6B9EF-1944-48F9-8F0D-85D16B14CE21";
shapes = (
{
closed = 1;
nodes = (
(126,328,l),
(171,349,o),
(214,360,o),
(253,360,cs),
(350,360,o),
(387,301,o),
(373,212,cs),
(368,180,ls),
(353,83,o),
(287,47,o),
(198,47,cs),
(149,47,o),
(95,56,o),
(40,85,c),
(16,32,l),
(74,3,o),
(137,-10,o),
(197,-10,cs),
(339,-10,o),
(415,56,o),
(434,180,cs),
(439,212,ls),
(459,338,o),
(383,417,o),
(259,417,cs),
(223,417,o),
(191,410,o),
(159,398,c),
(212,623,l),
(487,623,l),
(498,680,l),
(167,680,l),
(90,356,l)
);
}
);
width = 500;
}
);
unicode = 53;
}
{
glyphname = six;
layers = (
{
layerId = master01;
shapes = (
{
closed = 1;
nodes = (
(512,223,ls),
(512,344,o),
(440,425,o),
(323,425,cs),
(262,425,o),
(207,399,o),
(160,357,c),
(160,415,ls),
(160,559,o),
(221,611,o),
(317,611,cs),
(356,611,o),
(404,602,o),
(462,575,c),
(493,648,l),
(426,679,o),
(366,690,o),
(314,690,cs),
(167,690,o),
(77,601,o),
(77,415,cs),
(77,267,ls),
(77,91,o),
(156,-10,o),
(300,-10,cs),
(431,-10,o),
(512,73,o),
(512,193,cs)
);
},
{
closed = 1;
nodes = (
(160,280,l),
(205,323,o),
(257,348,o),
(313,348,cs),
(386,348,o),
(428,299,o),
(428,223,cs),
(428,193,ls),
(428,116,o),
(381,68,o),
(300,68,cs),
(209,68,o),
(160,133,o),
(160,267,cs)
);
}
);
width = 564;
},
{
layerId = "D73FB141-FF25-4743-A62C-F58A1C57CDB9";
shapes = (
{
closed = 1;
nodes = (
(523,224,ls),
(523,350,o),
(446,437,o),
(327,437,cs),
(277,437,o),
(226,417,o),
(180,376,c),
(180,412,ls),
(180,534,o),
(236,579,o),
(320,579,cs),
(358,579,o),
(402,569,o),
(462,541,c),
(505,644,l),
(431,679,o),
(373,690,o),
(317,690,cs),
(157,690,o),
(65,599,o),
(65,412,cs),
(65,271,ls),
(65,96,o),
(152,-10,o),
(300,-10,cs),
(439,-10,o),
(523,82,o),
(523,204,cs)
);
},
{
closed = 1;
nodes = (
(180,275,l),
(220,312,o),
(263,329,o),
(309,329,cs),
(371,329,o),
(406,286,o),
(406,224,cs),
(406,204,ls),
(406,142,o),
(368,101,o),
(302,101,cs),
(224,101,o),
(180,156,o),
(180,271,cs)
);
}
);
width = 569;
},
{
layerId = "7D2027AC-297A-4D58-8EA2-55B17EBAD0F9";
shapes = (
{
closed = 1;
nodes = (
(516,219,ls),
(538,340,o),
(472,437,o),
(357,437,cs),
(304,437,o),
(253,416,o),
(201,374,c),
(209,422,ls),
(229,536,o),
(287,579,o),
(378,579,cs),
(416,579,o),
(458,569,o),
(513,541,c),
(562,644,l),
(493,678,o),
(435,690,o),
(377,690,cs),
(219,690,o),
(126,613,o),
(94,422,cs),
(72,291,ls),
(43,119,o),
(116,-10,o),
(276,-10,cs),
(411,-10,o),
(489,72,o),
(512,197,cs)
);
},
{
closed = 1;
nodes = (
(386,329,o),
(412,282,o),
(399,217,cs),
(395,197,ls),
(384,140,o),
(341,101,o),
(280,101,cs),
(203,101,o),
(167,159,o),
(183,275,c),
(225,310,o),
(281,329,o),
(321,329,cs)
);
}
);
width = 568.38835;
},
{
layerId = "C21AB58A-0F03-4AE0-976E-29AD56D058A6";
shapes = (
{
closed = 1;
nodes = (
(507,218,ls),
(527,336,o),
(461,425,o),
(341,425,cs),
(284,425,o),
(230,403,o),
(178,356,c),
(191,426,ls),
(215,561,o),
(284,611,o),
(381,611,cs),
(420,611,o),
(467,602,o),
(520,575,c),
(553,648,l),
(491,679,o),
(433,690,o),
(380,690,cs),
(234,690,o),
(141,610,o),
(109,426,cs),
(84,287,ls),
(52,105,o),
(123,-10,o),
(275,-10,cs),
(399,-10,o),
(480,63,o),
(501,187,cs)
);
},
{
closed = 1;
nodes = (
(404,348,o),
(436,293,o),
(423,217,cs),
(418,187,ls),
(405,111,o),
(350,68,o),
(278,68,cs),
(184,68,o),
(144,135,o),
(163,268,c),
(212,324,o),
(272,348,o),
(323,348,cs)
);
}
);
width = 563;
},
{
layerId = "552872BC-8C7A-453E-A7A0-DCEE3439D276";
shapes = (
{
closed = 1;
nodes = (
(505,223,ls),
(505,341,o),
(437,418,o),
(321,418,cs),
(253,418,o),
(196,387,o),
(147,345,c),
(147,418,ls),
(147,576,o),
(212,633,o),
(315,633,cs),
(355,633,o),
(406,624,o),
(463,599,c),
(485,651,l),
(423,680,o),
(362,690,o),
(313,690,cs),
(174,690,o),
(86,603,o),
(86,418,cs),
(86,265,ls),
(86,89,o),
(160,-10,o),
(300,-10,cs),
(427,-10,o),
(505,67,o),
(505,186,cs)
);
},
{
closed = 1;
nodes = (
(147,283,l),
(194,329,o),
(253,361,o),
(316,361,cs),
(397,361,o),
(444,309,o),
(444,223,cs),
(444,186,ls),
(444,99,o),
(390,47,o),
(300,47,cs),
(200,47,o),
(147,118,o),
(147,265,cs)
);
}
);
width = 561;
},
{
layerId = "EEA6B9EF-1944-48F9-8F0D-85D16B14CE21";
shapes = (
{
closed = 1;
nodes = (
(501,218,ls),
(520,334,o),
(455,418,o),
(331,418,cs),
(271,418,o),
(215,395,o),
(165,345,c),
(180,429,ls),
(207,579,o),
(282,633,o),
(383,633,cs),
(424,633,o),
(473,624,o),
(526,598,c),
(548,651,l),
(491,680,o),
(432,690,o),
(382,690,cs),
(245,690,o),
(151,609,o),
(119,429,cs),
(93,285,ls),
(59,97,o),
(128,-10,o),
(275,-10,cs),
(392,-10,o),
(475,58,o),
(495,181,cs)
);
},
{
closed = 1;
nodes = (
(417,361,o),
(453,301,o),
(440,218,cs),
(434,181,ls),
(420,93,o),
(356,47,o),
(277,47,cs),
(172,47,o),
(129,119,o),
(150,263,c),
(205,334,o),
(266,361,o),
(325,361,cs)
);
}
);
width = 561;
}
);
unicode = 54;
}
{
glyphname = seven;
layers = (
{
layerId = master01;
shapes = (
{
closed = 1;
nodes = (
(435,680,l),
(28,680,l),
(28,600,l),
(342,600,l),
(245,400,o),
(176,200,o),
(140,0,c),
(229,0,l),
(265,203,o),
(335,406,o),
(435,610,c)
);
}
);
width = 470;
},
{
layerId = "D73FB141-FF25-4743-A62C-F58A1C57CDB9";
shapes = (
{
closed = 1;
nodes = (
(441,680,l),
(19,680,l),
(19,567,l),
(311,567,l),
(222,379,o),
(161,189,o),
(124,0,c),
(250,0,l),
(287,192,o),
(350,385,o),
(441,577,c)
);
}
);
width = 464;
},
{
layerId = "7D2027AC-297A-4D58-8EA2-55B17EBAD0F9";
shapes = (
{
closed = 1;
nodes = (
(526,680,l),
(94,680,l),
(74,567,l),
(370,567,l),
(249,380,o),
(157,194,o),
(89,0,c),
(221,0,l),
(290,197,o),
(383,387,o),
(507,577,c)
);
}
);
width = 474.09765;
},
{
layerId = "C21AB58A-0F03-4AE0-976E-29AD56D058A6";
shapes = (
{
closed = 1;
nodes = (
(515,680,l),
(104,680,l),
(89,600,l),
(403,600,l),
(272,401,o),
(173,202,o),
(102,0,c),
(197,0,l),
(267,205,o),
(368,408,o),
(502,610,c)
);
}
);
width = 474;
},
{
layerId = "552872BC-8C7A-453E-A7A0-DCEE3439D276";
shapes = (
{
closed = 1;
nodes = (
(431,680,l),
(34,680,l),
(34,623,l),
(364,623,l),
(260,415,o),
(186,208,o),
(151,0,c),
(216,0,l),
(251,211,o),
(326,421,o),
(431,633,c)
);
}
);
width = 474;
},
{
layerId = "EEA6B9EF-1944-48F9-8F0D-85D16B14CE21";
shapes = (
{
closed = 1;
nodes = (
(508,680,l),
(111,680,l),
(100,623,l),
(427,623,l),
(288,416,o),
(184,208,o),
(112,0,c),
(181,0,l),
(253,211,o),
(358,423,o),
(500,633,c)
);
}
);
width = 474.38502;
}
);
unicode = 55;
}
{
glyphname = eight;
layers = (
{
layerId = master01;
shapes = (
{
closed = 1;
nodes = (
(496,261,o),
(457,312,o),
(384,348,c),
(453,394,o),
(481,447,o),
(481,512,cs),
(481,611,o),
(415,690,o),
(277,690,cs),
(142,690,o),
(76,602,o),
(76,507,cs),
(76,430,o),
(111,377,o),
(172,343,c),
(94,293,o),
(62,237,o),
(62,166,cs),
(62,69,o),
(125,-10,o),
(274,-10,cs),
(427,-10,o),
(496,72,o),
(496,179,cs)
);
},
{
closed = 1;
nodes = (
(189,418,o),
(161,451,o),
(161,507,cs),
(161,577,o),
(210,614,o),
(279,614,cs),
(357,614,o),
(396,571,o),
(396,504,cs),
(396,460,o),
(378,420,o),
(318,374,c),
(263,393,ls)
);
},
{
closed = 1;
nodes = (
(147,224,o),
(170,265,o),
(238,314,c),
(296,294,ls),
(381,265,o),
(411,236,o),
(411,175,cs),
(411,104,o),
(361,65,o),
(277,65,cs),
(190,65,o),
(147,109,o),
(147,177,cs)
);
}
);
width = 558;
},
{
layerId = "D73FB141-FF25-4743-A62C-F58A1C57CDB9";
shapes = (
{
closed = 1;
nodes = (
(509,261,o),
(474,319,o),
(406,357,c),
(470,401,o),
(495,452,o),
(495,511,cs),
(495,611,o),
(420,690,o),
(276,690,cs),
(141,690,o),
(63,605,o),
(63,500,cs),
(63,426,o),
(94,372,o),
(150,335,c),
(79,288,o),
(51,233,o),
(51,168,cs),
(51,71,o),
(116,-10,o),
(274,-10,cs),
(433,-10,o),
(509,75,o),
(509,185,cs)
);
},
{
closed = 1;
nodes = (
(210,426,o),
(181,454,o),
(181,498,cs),
(181,551,o),
(216,584,o),
(279,584,cs),
(342,584,o),
(377,550,o),
(377,497,cs),
(377,462,o),
(361,431,o),
(316,393,c),
(267,408,ls)
);
},
{
closed = 1;
nodes = (
(169,224,o),
(193,256,o),
(242,296,c),
(296,279,ls),
(365,258,o),
(391,224,o),
(391,184,cs),
(391,130,o),
(349,96,o),
(280,96,cs),
(209,96,o),
(169,131,o),
(169,185,cs)
);
}
);
width = 560;
},
{
layerId = "7D2027AC-297A-4D58-8EA2-55B17EBAD0F9";
shapes = (
{
closed = 1;
nodes = (
(503,269,o),
(474,316,o),
(422,351,c),
(512,401,o),
(545,470,o),
(545,531,cs),
(545,629,o),
(471,690,o),
(340,690,cs),
(183,690,o),
(104,593,o),
(104,483,cs),
(104,420,o),
(129,376,o),
(173,342,c),
(73,289,o),
(35,214,o),
(35,148,cs),
(35,59,o),
(104,-10,o),
(251,-10,cs),
(433,-10,o),
(503,94,o),
(503,204,cs)
);
},
{
closed = 1;
nodes = (
(251,433,o),
(224,454,o),
(224,494,cs),
(224,546,o),
(265,584,o),
(336,584,cs),
(394,584,o),
(424,558,o),
(424,510,cs),
(424,475,o),
(407,435,o),
(346,391,c),
(296,413,ls)
);
},
{
closed = 1;
nodes = (
(157,222,o),
(184,258,o),
(250,299,c),
(302,276,ls),
(359,250,o),
(381,225,o),
(381,189,cs),
(381,134,o),
(340,96,o),
(257,96,cs),
(191,96,o),
(157,127,o),
(157,177,cs)
);
}
);
width = 566.86091;
},
{
layerId = "C21AB58A-0F03-4AE0-976E-29AD56D058A6";
shapes = (
{
closed = 1;
nodes = (
(488,263,o),
(456,307,o),
(399,342,c),
(492,399,o),
(528,469,o),
(528,534,cs),
(528,626,o),
(459,690,o),
(337,690,cs),
(185,690,o),
(119,589,o),
(119,493,cs),
(119,429,o),
(146,382,o),
(193,349,c),
(87,292,o),
(45,215,o),
(45,146,cs),
(45,65,o),
(109,-10,o),
(250,-10,cs),
(421,-10,o),
(488,91,o),
(488,193,cs)
);
},
{
closed = 1;
nodes = (
(230,422,o),
(205,452,o),
(205,500,cs),
(205,575,o),
(263,614,o),
(335,614,cs),
(403,614,o),
(441,580,o),
(441,521,cs),
(441,479,o),
(422,428,o),
(339,372,c),
(289,395,ls)
);
},
{
closed = 1;
nodes = (
(132,216,o),
(161,262,o),
(252,316,c),
(305,292,ls),
(373,261,o),
(400,231,o),
(400,181,cs),
(400,112,o),
(346,65,o),
(254,65,cs),
(169,65,o),
(132,110,o),
(132,165,cs)
);
}
);
width = 561;
},
{
layerId = "552872BC-8C7A-453E-A7A0-DCEE3439D276";
shapes = (
{
closed = 1;
nodes = (
(488,262,o),
(447,307,o),
(370,341,c),
(442,390,o),
(472,445,o),
(472,514,cs),
(472,611,o),
(413,690,o),
(279,690,cs),
(143,690,o),
(86,601,o),
(86,513,cs),
(86,434,o),
(122,382,o),
(186,349,c),
(104,297,o),
(70,239,o),
(70,166,cs),
(70,69,o),
(132,-10,o),
(275,-10,cs),
(423,-10,o),
(488,71,o),
(488,175,cs)
);
},
{
closed = 1;
nodes = (
(175,414,o),
(149,450,o),
(149,513,cs),
(149,595,o),
(206,635,o),
(279,635,cs),
(367,635,o),
(409,585,o),
(409,509,cs),
(409,458,o),
(391,414,o),
(318,362,c),
(261,383,ls)
);
},
{
closed = 1;
nodes = (
(133,225,o),
(154,272,o),
(237,327,c),
(297,305,ls),
(393,270,o),
(425,244,o),
(425,170,cs),
(425,88,o),
(369,45,o),
(275,45,cs),
(178,45,o),
(133,95,o),
(133,172,cs)
);
}
);
width = 558;
},
{
layerId = "EEA6B9EF-1944-48F9-8F0D-85D16B14CE21";
shapes = (
{
closed = 1;
nodes = (
(478,259,o),
(445,301,o),
(384,336,c),
(480,398,o),
(517,468,o),
(517,536,cs),
(517,624,o),
(452,690,o),
(335,690,cs),
(187,690,o),
(129,587,o),
(129,500,cs),
(129,435,o),
(157,387,o),
(205,355,c),
(96,294,o),
(52,217,o),
(52,146,cs),
(52,69,o),
(113,-10,o),
(250,-10,cs),
(414,-10,o),
(478,89,o),
(478,186,cs)
);
},
{
closed = 1;
nodes = (
(216,416,o),
(193,452,o),
(193,505,cs),
(193,595,o),
(262,635,o),
(335,635,cs),
(409,635,o),
(453,595,o),
(453,529,cs),
(453,483,o),
(435,424,o),
(335,360,c),
(285,384,ls)
);
},
{
closed = 1;
nodes = (
(116,212,o),
(145,266,o),
(253,329,c),
(307,304,ls),
(384,268,o),
(414,235,o),
(414,176,cs),
(414,98,o),
(351,45,o),
(253,45,cs),
(155,45,o),
(116,100,o),
(116,158,cs)
);
}
);
width = 558;
}
);
unicode = 56;
}
{
glyphname = nine;
layers = (
{
layerId = master01;
shapes = (
{
closed = 1;
nodes = (
(486,412,ls),
(486,588,o),
(407,690,o),
(264,690,cs),
(132,690,o),
(52,603,o),
(52,486,cs),
(52,456,ls),
(52,335,o),
(123,254,o),
(240,254,cs),
(301,254,o),
(356,281,o),
(404,323,c),
(404,264,ls),
(404,120,o),
(342,68,o),
(247,68,cs),
(208,68,o),
(159,78,o),
(101,104,c),
(71,31,l),
(138,0,o),
(197,-10,o),
(249,-10,cs),
(397,-10,o),
(486,78,o),
(486,264,cs)
);
},
{
closed = 1;
nodes = (
(135,486,ls),
(135,559,o),
(183,611,o),
(263,611,cs),
(354,611,o),
(404,546,o),
(404,412,cs),
(404,400,l),
(359,357,o),
(307,331,o),
(251,331,cs),
(177,331,o),
(135,380,o),
(135,456,cs)
);
}
);
width = 564;
},
{
layerId = "D73FB141-FF25-4743-A62C-F58A1C57CDB9";
shapes = (
{
closed = 1;
nodes = (
(504,409,ls),
(504,584,o),
(417,690,o),
(269,690,cs),
(130,690,o),
(46,588,o),
(46,476,cs),
(46,456,ls),
(46,330,o),
(123,243,o),
(242,243,cs),
(292,243,o),
(343,263,o),
(389,304,c),
(389,268,ls),
(389,146,o),
(333,101,o),
(249,101,cs),
(211,101,o),
(167,111,o),
(107,139,c),
(64,36,l),
(138,1,o),
(196,-10,o),
(252,-10,cs),
(412,-10,o),
(504,81,o),
(504,268,cs)
);
},
{
closed = 1;
nodes = (
(163,476,ls),
(163,528,o),
(201,579,o),
(267,579,cs),
(345,579,o),
(389,524,o),
(389,409,cs),
(389,405,l),
(349,368,o),
(306,351,o),
(260,351,cs),
(198,351,o),
(163,394,o),
(163,456,cs)
);
}
);
width = 569;
},
{
layerId = "7D2027AC-297A-4D58-8EA2-55B17EBAD0F9";
shapes = (
{
closed = 1;
nodes = (
(528,389,ls),
(557,561,o),
(484,690,o),
(324,690,cs),
(189,690,o),
(104,609,o),
(87,483,cs),
(84,461,ls),
(67,339,o),
(128,243,o),
(243,243,cs),
(296,243,o),
(347,264,o),
(399,306,c),
(391,258,ls),
(371,144,o),
(313,101,o),
(222,101,cs),
(184,101,o),
(142,111,o),
(87,139,c),
(38,36,l),
(107,2,o),
(165,-10,o),
(223,-10,cs),
(381,-10,o),
(474,67,o),
(506,258,cs)
);
},
{
closed = 1;
nodes = (
(204,483,ls),
(213,540,o),
(259,579,o),
(320,579,cs),
(397,579,o),
(433,521,o),
(417,405,c),
(375,370,o),
(319,351,o),
(279,351,cs),
(214,351,o),
(191,397,o),
(201,463,cs)
);
}
);
width = 570;
},
{
layerId = "C21AB58A-0F03-4AE0-976E-29AD56D058A6";
shapes = (
{
closed = 1;
nodes = (
(512,392,ls),
(544,574,o),
(473,690,o),
(321,690,cs),
(197,690,o),
(113,616,o),
(94,492,cs),
(90,461,ls),
(71,343,o),
(135,254,o),
(255,254,cs),
(312,254,o),
(366,276,o),
(417,322,c),
(405,253,ls),
(381,118,o),
(313,68,o),
(216,68,cs),
(176,68,o),
(130,78,o),
(76,104,c),
(43,31,l),
(105,0,o),
(163,-10,o),
(217,-10,cs),
(362,-10,o),
(456,69,o),
(488,253,cs)
);
},
{
closed = 1;
nodes = (
(178,492,ls),
(190,568,o),
(247,611,o),
(318,611,cs),
(412,611,o),
(452,544,o),
(433,411,c),
(384,356,o),
(325,331,o),
(273,331,cs),
(192,331,o),
(161,386,o),
(173,462,cs)
);
}
);
width = 564;
},
{
layerId = "552872BC-8C7A-453E-A7A0-DCEE3439D276";
shapes = (
{
closed = 1;
nodes = (
(475,415,ls),
(475,591,o),
(401,690,o),
(261,690,cs),
(134,690,o),
(56,613,o),
(56,494,cs),
(56,457,ls),
(56,339,o),
(124,262,o),
(240,262,cs),
(308,262,o),
(365,293,o),
(414,335,c),
(414,262,ls),
(414,104,o),
(349,47,o),
(246,47,cs),
(206,47,o),
(155,56,o),
(98,81,c),
(76,29,l),
(138,0,o),
(199,-10,o),
(248,-10,cs),
(387,-10,o),
(475,77,o),
(475,262,cs)
);
},
{
closed = 1;
nodes = (
(117,494,ls),
(117,581,o),
(171,633,o),
(261,633,cs),
(361,633,o),
(414,562,o),
(414,415,cs),
(414,397,l),
(367,351,o),
(308,319,o),
(245,319,cs),
(164,319,o),
(117,371,o),
(117,457,cs)
);
}
);
width = 561;
},
{
layerId = "EEA6B9EF-1944-48F9-8F0D-85D16B14CE21";
shapes = (
{
closed = 1;
nodes = (
(502,395,ls),
(536,583,o),
(467,690,o),
(320,690,cs),
(203,690,o),
(120,622,o),
(100,499,cs),
(94,462,ls),
(75,346,o),
(140,262,o),
(264,262,cs),
(324,262,o),
(380,285,o),
(430,335,c),
(415,251,ls),
(388,101,o),
(313,47,o),
(212,47,cs),
(171,47,o),
(122,56,o),
(69,82,c),
(47,29,l),
(104,0,o),
(163,-10,o),
(213,-10,cs),
(350,-10,o),
(444,71,o),
(476,251,cs)
);
},
{
closed = 1;
nodes = (
(161,499,ls),
(175,587,o),
(239,633,o),
(318,633,cs),
(423,633,o),
(466,561,o),
(445,417,c),
(390,346,o),
(329,319,o),
(270,319,cs),
(178,319,o),
(142,379,o),
(155,462,cs)
);
}
);
width = 561;
}
);
unicode = 57;
}
{
glyphname = less;
layers = (
{
layerId = master01;
shapes = (
{
closed = 1;
nodes = (
(203,302,l),
(501,414,l),
(501,492,l),
(87,327,l),
(87,272,l),
(501,104,l),
(501,187,l)
);
}
);
width = 588;
},
{
layerId = "D73FB141-FF25-4743-A62C-F58A1C57CDB9";
shapes = (
{
closed = 1;
nodes = (
(241,313,l),
(501,411,l),
(501,517,l),
(87,352,l),
(87,271,l),
(501,103,l),
(501,213,l)
);
}
);
width = 588;
},
{
layerId = "7D2027AC-297A-4D58-8EA2-55B17EBAD0F9";
shapes = (
{
closed = 1;
nodes = (
(250,307,l),
(527,405,l),
(547,517,l),
(104,352,l),
(90,271,l),
(474,103,l),
(493,207,l)
);
}
);
width = 588;
},
{
layerId = "C21AB58A-0F03-4AE0-976E-29AD56D058A6";
shapes = (
{
closed = 1;
nodes = (
(210,296,l),
(528,409,l),
(543,492,l),
(100,327,l),
(91,272,l),
(475,104,l),
(489,181,l)
);
}
);
width = 588;
},
{
layerId = "552872BC-8C7A-453E-A7A0-DCEE3439D276";
shapes = (
{
closed = 1;
nodes = (
(178,294,l),
(501,416,l),
(501,476,l),
(87,311,l),
(87,274,l),
(501,106,l),
(501,170,l)
);
}
);
width = 588;
},
{
layerId = "EEA6B9EF-1944-48F9-8F0D-85D16B14CE21";
shapes = (
{
closed = 1;
nodes = (
(184,290,l),
(530,412,l),
(542,476,l),
(99,311,l),
(92,274,l),
(477,106,l),
(487,165,l)
);
}
);
width = 588;
}
);
unicode = 60;
}
{
glyphname = equal;
layers = (
{
layerId = master01;
shapes = (
{
closed = 1;
nodes = (
(501,366,l),
(501,438,l),
(87,438,l),
(87,366,l)
);
},
{
closed = 1;
nodes = (
(501,166,l),
(501,238,l),
(87,238,l),
(87,166,l)
);
}
);
width = 588;
},
{
layerId = "D73FB141-FF25-4743-A62C-F58A1C57CDB9";
shapes = (
{
closed = 1;
nodes = (
(501,364,l),
(501,464,l),
(87,464,l),
(87,364,l)
);
},
{
closed = 1;
nodes = (
(501,165,l),
(501,265,l),
(87,265,l),
(87,165,l)
);
}
);
width = 588;
},
{
layerId = "7D2027AC-297A-4D58-8EA2-55B17EBAD0F9";
shapes = (
{
closed = 1;
nodes = (
(520,364,l),
(538,464,l),
(124,464,l),
(106,364,l)
);
},
{
closed = 1;
nodes = (
(485,165,l),
(503,265,l),
(89,265,l),
(71,165,l)
);
}
);
width = 588;
},
{
layerId = "C21AB58A-0F03-4AE0-976E-29AD56D058A6";
shapes = (
{
closed = 1;
nodes = (
(521,366,l),
(534,438,l),
(120,438,l),
(107,366,l)
);
},
{
closed = 1;
nodes = (
(486,166,l),
(499,238,l),
(85,238,l),
(72,166,l)
);
}
);
width = 588;
},
{
layerId = "552872BC-8C7A-453E-A7A0-DCEE3439D276";
shapes = (
{
closed = 1;
nodes = (
(501,368,l),
(501,421,l),
(87,421,l),
(87,368,l)
);
},
{
closed = 1;
nodes = (
(501,168,l),
(501,221,l),
(87,221,l),
(87,168,l)
);
}
);
width = 588;
},
{
layerId = "EEA6B9EF-1944-48F9-8F0D-85D16B14CE21";
shapes = (
{
closed = 1;
nodes = (
(523,368,l),
(532,421,l),
(118,421,l),
(109,368,l)
);
},
{
closed = 1;
nodes = (
(488,168,l),
(497,221,l),
(83,221,l),
(74,168,l)
);
}
);
width = 588;
}
);
unicode = 61;
}
{
glyphname = greater;
layers = (
{
layerId = master01;
shapes = (
{
closed = 1;
nodes = (
(501,324,l),
(87,492,l),
(87,410,l),
(385,295,l),
(87,183,l),
(87,104,l),
(501,269,l)
);
}
);
width = 588;
},
{
layerId = "D73FB141-FF25-4743-A62C-F58A1C57CDB9";
shapes = (
{
closed = 1;
nodes = (
(501,349,l),
(87,517,l),
(87,407,l),
(347,307,l),
(87,209,l),
(87,103,l),
(501,268,l)
);
}
);
width = 588;
},
{
layerId = "7D2027AC-297A-4D58-8EA2-55B17EBAD0F9";
shapes = (
{
closed = 1;
nodes = (
(517,349,l),
(133,517,l),
(114,413,l),
(357,313,l),
(80,215,l),
(60,103,l),
(503,268,l)
);
}
);
width = 588;
},
{
layerId = "C21AB58A-0F03-4AE0-976E-29AD56D058A6";
shapes = (
{
closed = 1;
nodes = (
(514,324,l),
(130,492,l),
(116,415,l),
(394,300,l),
(77,188,l),
(61,104,l),
(504,269,l)
);
}
);
width = 588;
},
{
layerId = "552872BC-8C7A-453E-A7A0-DCEE3439D276";
shapes = (
{
closed = 1;
nodes = (
(501,308,l),
(87,476,l),
(87,412,l),
(410,288,l),
(87,166,l),
(87,106,l),
(501,271,l)
);
}
);
width = 588;
},
{
layerId = "EEA6B9EF-1944-48F9-8F0D-85D16B14CE21";
shapes = (
{
closed = 1;
nodes = (
(513,308,l),
(128,476,l),
(118,417,l),
(421,292,l),
(75,170,l),
(63,106,l),
(506,271,l)
);
}
);
width = 588;
}
);
unicode = 62;
}
{
glyphname = question;
layers = (
{
layerId = master01;
shapes = (
{
closed = 1;
nodes = (
(275,614,o),
(315,576,o),
(315,517,cs),
(315,499,ls),
(315,450,o),
(301,420,o),
(269,391,cs),
(235,360,ls),
(177,306,o),
(158,272,o),
(158,205,cs),
(158,182,l),
(242,182,l),
(242,202,ls),
(242,243,o),
(249,266,o),
(293,306,cs),
(327,337,ls),
(376,381,o),
(400,429,o),
(400,503,cs),
(400,521,ls),
(400,617,o),
(339,690,o),
(200,690,cs),
(143,690,o),
(77,678,o),
(10,647,c),
(38,575,l),
(100,603,o),
(151,614,o),
(197,614,cs)
);
},
{
closed = 1;
nodes = (
(247,91,l),
(155,91,l),
(155,0,l),
(247,0,l)
);
}
);
width = 434;
},
{
layerId = "D73FB141-FF25-4743-A62C-F58A1C57CDB9";
shapes = (
{
closed = 1;
nodes = (
(279,583,o),
(306,550,o),
(306,504,cs),
(306,486,ls),
(306,452,o),
(296,430,o),
(257,394,cs),
(220,360,ls),
(160,305,o),
(151,268,o),
(151,217,cs),
(151,199,l),
(271,199,l),
(271,208,ls),
(271,237,o),
(272,257,o),
(316,297,cs),
(352,330,ls),
(405,378,o),
(424,425,o),
(424,496,cs),
(424,514,ls),
(424,616,o),
(366,690,o),
(212,690,cs),
(153,690,o),
(86,678,o),
(10,644,c),
(47,545,l),
(112,572,o),
(159,583,o),
(204,583,cs)
);
},
{
closed = 1;
nodes = (
(272,119,l),
(151,119,l),
(151,0,l),
(272,0,l)
);
}
);
width = 454;
},
{
layerId = "7D2027AC-297A-4D58-8EA2-55B17EBAD0F9";
shapes = (
{
closed = 1;
nodes = (
(347,583,o),
(368,550,o),
(359,504,cs),
(356,486,ls),
(351,454,o),
(333,435,o),
(291,398,cs),
(252,364,ls),
(180,301,o),
(163,270,o),
(154,217,cs),
(151,199,l),
(271,199,l),
(272,208,ls),
(277,237,o),
(286,253,o),
(337,297,cs),
(375,330,ls),
(430,378,o),
(460,411,o),
(472,472,cs),
(476,492,ls),
(498,600,o),
(443,690,o),
(285,690,cs),
(223,690,o),
(157,677,o),
(79,644,c),
(108,545,l),
(179,572,o),
(228,583,o),
(271,583,cs)
);
},
{
closed = 1;
nodes = (
(258,119,l),
(137,119,l),
(116,0,l),
(237,0,l)
);
}
);
width = 464;
},
{
layerId = "C21AB58A-0F03-4AE0-976E-29AD56D058A6";
shapes = (
{
closed = 1;
nodes = (
(343,614,o),
(376,576,o),
(366,517,cs),
(363,499,ls),
(354,450,o),
(329,423,o),
(292,391,cs),
(254,358,ls),
(186,300,o),
(166,271,o),
(154,205,cs),
(150,182,l),
(234,182,l),
(237,202,ls),
(244,241,o),
(256,261,o),
(303,301,cs),
(340,334,ls),
(399,384,o),
(433,417,o),
(446,487,cs),
(449,505,ls),
(468,606,o),
(413,690,o),
(270,690,cs),
(214,690,o),
(149,676,o),
(80,647,c),
(99,575,l),
(167,603,o),
(220,614,o),
(265,614,cs)
);
},
{
closed = 1;
nodes = (
(223,91,l),
(132,91,l),
(116,0,l),
(207,0,l)
);
}
);
width = 438;
},
{
layerId = "552872BC-8C7A-453E-A7A0-DCEE3439D276";
shapes = (
{
closed = 1;
nodes = (
(273,635,o),
(321,594,o),
(321,526,cs),
(321,509,ls),
(321,449,o),
(305,414,o),
(278,389,cs),
(246,360,ls),
(189,308,o),
(163,275,o),
(163,197,cs),
(163,172,l),
(223,172,l),
(223,198,ls),
(223,248,o),
(235,273,o),
(279,313,cs),
(311,342,ls),
(357,384,o),
(384,432,o),
(384,509,cs),
(384,526,ls),
(384,618,o),
(321,690,o),
(193,690,cs),
(137,690,o),
(72,678,o),
(10,649,c),
(32,596,l),
(93,625,o),
(146,635,o),
(193,635,cs)
);
},
{
closed = 1;
nodes = (
(231,73,l),
(159,73,l),
(159,0,l),
(231,0,l)
);
}
);
width = 422;
},
{
layerId = "EEA6B9EF-1944-48F9-8F0D-85D16B14CE21";
shapes = (
{
closed = 1;
nodes = (
(342,635,o),
(383,594,o),
(371,526,cs),
(368,509,ls),
(357,448,o),
(328,415,o),
(294,387,cs),
(256,355,ls),
(191,300,o),
(168,272,o),
(155,197,cs),
(150,172,l),
(210,172,l),
(215,198,ls),
(223,244,o),
(237,267,o),
(281,305,cs),
(318,337,ls),
(378,389,o),
(416,422,o),
(429,497,cs),
(432,514,ls),
(449,610,o),
(394,690,o),
(261,690,cs),
(208,690,o),
(145,677,o),
(81,649,c),
(94,596,l),
(160,625,o),
(215,635,o),
(262,635,cs)
);
},
{
closed = 1;
nodes = (
(201,73,l),
(129,73,l),
(116,0,l),
(188,0,l)
);
}
);
width = 422;
}
);
unicode = 63;
}
{
glyphname = at;
layers = (
{
layerId = master01;
shapes = (
{
closed = 1;
nodes = (
(704,-99,l),
(635,-133,o),
(548,-153,o),
(466,-153,cs),
(247,-153,o),
(125,-11,o),
(125,204,cs),
(125,442,o),
(273,620,o),
(493,620,cs),
(692,620,o),
(826,474,o),
(826,285,cs),
(826,152,o),
(761,66,o),
(692,66,cs),
(654,66,o),
(630,88,o),
(643,157,c),
(686,408,l),
(627,446,o),
(565,470,o),
(500,470,cs),
(380,470,o),
(308,394,o),
(288,261,cs),
(280,206,ls),
(261,83,o),
(307,-7,o),
(401,-7,cs),
(454,-7,o),
(508,17,o),
(565,81,c),
(577,24,o),
(621,-2,o),
(685,-2,cs),
(810,-2,o),
(904,119,o),
(904,285,cs),
(904,514,o),
(737,690,o),
(493,690,cs),
(228,690,o),
(48,482,o),
(48,204,cs),
(48,-50,o),
(200,-223,o),
(466,-223,cs),
(559,-223,o),
(653,-202,o),
(731,-167,c)
);
},
{
closed = 1;
nodes = (
(372,261,ls),
(385,345,o),
(426,396,o),
(505,396,cs),
(535,396,o),
(565,387,o),
(598,369,c),
(565,173,l),
(510,94,o),
(461,66,o),
(423,66,cs),
(372,66,o),
(350,116,o),
(364,206,cs)
);
}
);
width = 950;
},
{
layerId = "D73FB141-FF25-4743-A62C-F58A1C57CDB9";
shapes = (
{
closed = 1;
nodes = (
(698,-75,l),
(630,-109,o),
(544,-128,o),
(466,-128,cs),
(262,-128,o),
(142,4,o),
(142,209,cs),
(142,428,o),
(278,595,o),
(495,595,cs),
(684,595,o),
(810,467,o),
(810,289,cs),
(810,167,o),
(751,87,o),
(694,87,cs),
(659,87,o),
(650,118,o),
(658,162,cs),
(700,402,l),
(640,440,o),
(572,467,o),
(503,467,cs),
(379,467,o),
(312,393,o),
(290,255,cs),
(283,211,ls),
(262,80,o),
(307,-10,o),
(398,-10,cs),
(446,-10,o),
(495,8,o),
(557,73,c),
(573,20,o),
(618,-5,o),
(681,-5,cs),
(814,-5,o),
(913,119,o),
(913,289,cs),
(913,520,o),
(744,690,o),
(495,690,cs),
(218,690,o),
(39,482,o),
(39,209,cs),
(39,-50,o),
(200,-223,o),
(466,-223,cs),
(556,-223,o),
(650,-202,o),
(728,-167,c)
);
},
{
closed = 1;
nodes = (
(406,255,ls),
(417,323,o),
(451,366,o),
(513,366,cs),
(534,366,o),
(554,359,o),
(578,348,c),
(548,176,l),
(505,117,o),
(471,95,o),
(440,95,cs),
(402,95,o),
(386,130,o),
(399,211,cs)
);
}
);
width = 945;
},
{
layerId = "7D2027AC-297A-4D58-8EA2-55B17EBAD0F9";
shapes = (
{
closed = 1;
nodes = (
(699,-75,l),
(631,-109,o),
(545,-128,o),
(467,-128,cs),
(263,-128,o),
(143,4,o),
(143,207,cs),
(143,428,o),
(279,595,o),
(496,595,cs),
(685,595,o),
(811,467,o),
(811,289,cs),
(811,167,o),
(752,87,o),
(695,87,cs),
(660,87,o),
(651,118,o),
(659,162,cs),
(701,402,l),
(641,440,o),
(573,467,o),
(504,467,cs),
(380,467,o),
(313,393,o),
(291,255,cs),
(284,211,ls),
(263,80,o),
(308,-10,o),
(399,-10,cs),
(447,-10,o),
(496,8,o),
(558,73,c),
(574,20,o),
(619,-5,o),
(682,-5,cs),
(815,-5,o),
(914,119,o),
(914,289,cs),
(914,520,o),
(745,690,o),
(496,690,cs),
(219,690,o),
(40,482,o),
(40,207,cs),
(40,-50,o),
(201,-223,o),
(467,-223,cs),
(557,-223,o),
(651,-202,o),
(729,-167,c)
);
},
{
closed = 1;
nodes = (
(407,255,ls),
(418,323,o),
(452,366,o),
(514,366,cs),
(535,366,o),
(555,359,o),
(579,348,c),
(549,176,l),
(506,117,o),
(472,95,o),
(441,95,cs),
(403,95,o),
(387,130,o),
(400,211,cs)
);
}
);
width = 946.48109;
},
{
layerId = "C21AB58A-0F03-4AE0-976E-29AD56D058A6";
shapes = (
{
closed = 1;
nodes = (
(706,-99,l),
(637,-133,o),
(550,-153,o),
(471,-153,cs),
(255,-153,o),
(128,-11,o),
(128,207,cs),
(128,442,o),
(276,620,o),
(496,620,cs),
(694,620,o),
(828,474,o),
(828,284,cs),
(828,152,o),
(764,63,o),
(695,63,cs),
(656,63,o),
(633,85,o),
(645,154,c),
(689,405,l),
(629,443,o),
(567,467,o),
(502,467,cs),
(383,467,o),
(310,391,o),
(290,258,cs),
(282,203,ls),
(263,80,o),
(309,-10,o),
(403,-10,cs),
(456,-10,o),
(511,14,o),
(568,78,c),
(579,21,o),
(623,-5,o),
(687,-5,cs),
(812,-5,o),
(906,119,o),
(906,284,cs),
(906,514,o),
(739,690,o),
(496,690,cs),
(230,690,o),
(50,482,o),
(50,207,cs),
(50,-50,o),
(208,-223,o),
(471,-223,cs),
(561,-223,o),
(655,-202,o),
(733,-167,c)
);
},
{
closed = 1;
nodes = (
(374,258,ls),
(387,342,o),
(428,393,o),
(508,393,cs),
(538,393,o),
(567,384,o),
(600,366,c),
(567,170,l),
(512,91,o),
(463,63,o),
(425,63,cs),
(374,63,o),
(352,113,o),
(366,203,cs)
);
}
);
width = 950;
},
{
layerId = "552872BC-8C7A-453E-A7A0-DCEE3439D276";
shapes = (
{
closed = 1;
nodes = (
(709,-115,l),
(639,-150,o),
(551,-170,o),
(467,-170,cs),
(238,-170,o),
(115,-21,o),
(115,202,cs),
(115,452,o),
(271,637,o),
(493,637,cs),
(698,637,o),
(837,480,o),
(837,283,cs),
(837,143,o),
(769,52,o),
(692,52,cs),
(651,52,o),
(618,69,o),
(633,155,c),
(678,412,l),
(619,450,o),
(561,472,o),
(499,472,cs),
(382,472,o),
(306,395,o),
(287,265,cs),
(278,204,ls),
(261,86,o),
(307,-5,o),
(404,-5,cs),
(460,-5,o),
(519,24,o),
(572,87,c),
(580,27,o),
(623,0,o),
(688,0,cs),
(808,0,o),
(898,119,o),
(898,283,cs),
(898,510,o),
(733,690,o),
(493,690,cs),
(235,690,o),
(54,482,o),
(54,202,cs),
(54,-50,o),
(201,-223,o),
(467,-223,cs),
(561,-223,o),
(655,-202,o),
(733,-167,c)
);
},
{
closed = 1;
nodes = (
(350,265,ls),
(364,360,o),
(410,417,o),
(501,417,cs),
(538,417,o),
(574,406,o),
(613,385,c),
(577,172,l),
(518,79,o),
(457,48,o),
(412,48,cs),
(352,48,o),
(327,108,o),
(341,204,cs)
);
}
);
width = 954;
},
{
layerId = "EEA6B9EF-1944-48F9-8F0D-85D16B14CE21";
shapes = (
{
closed = 1;
nodes = (
(712,-115,l),
(642,-150,o),
(554,-170,o),
(474,-170,cs),
(251,-170,o),
(118,-21,o),
(118,207,cs),
(118,452,o),
(274,637,o),
(496,637,cs),
(701,637,o),
(840,480,o),
(840,281,cs),
(840,143,o),
(772,47,o),
(695,47,cs),
(654,47,o),
(621,64,o),
(636,150,c),
(681,407,l),
(622,445,o),
(564,467,o),
(502,467,cs),
(385,467,o),
(309,390,o),
(290,260,cs),
(281,199,ls),
(264,81,o),
(310,-10,o),
(407,-10,cs),
(463,-10,o),
(522,19,o),
(575,82,c),
(583,22,o),
(626,-5,o),
(691,-5,cs),
(811,-5,o),
(901,119,o),
(901,281,cs),
(901,510,o),
(736,690,o),
(496,690,cs),
(238,690,o),
(57,482,o),
(57,207,cs),
(57,-50,o),
(214,-223,o),
(474,-223,cs),
(564,-223,o),
(658,-202,o),
(736,-167,c)
);
},
{
closed = 1;
nodes = (
(353,260,ls),
(367,355,o),
(413,412,o),
(504,412,cs),
(541,412,o),
(577,401,o),
(616,380,c),
(580,167,l),
(521,74,o),
(460,43,o),
(415,43,cs),
(355,43,o),
(330,103,o),
(344,199,cs)
);
}
);
width = 954;
}
);
unicode = 64;
}
{
glyphname = A;
kernLeft = A;
kernRight = A;
layers = (
{
anchors = (
{
name = bottom;
pos = (289,0);
},
{
name = ogonek;
pos = (556,0);
},
{
name = top;
pos = (289,680);
}
);
layerId = master01;
shapes = (
{
closed = 1;
nodes = (
(556,0,l),
(329,680,l),
(247,680,l),
(21,0,l),
(106,0,l),
(157,158,l),
(415,158,l),
(466,0,l)
);
},
{
closed = 1;
nodes = (
(286,564,l),
(351,354,l),
(389,237,l),
(182,237,l),
(220,354,l)
);
}
);
width = 577;
},
{
anchors = (
{
name = bottom;
pos = (301,0);
},
{
name = ogonek;
pos = (581,0);
},
{
name = top;
pos = (301,680);
}
);
layerId = "D73FB141-FF25-4743-A62C-F58A1C57CDB9";
shapes = (
{
closed = 1;
nodes = (
(581,0,l),
(353,680,l),
(247,680,l),
(20,0,l),
(139,0,l),
(181,133,l),
(414,133,l),
(456,0,l)
);
},
{
closed = 1;
nodes = (
(298,513,l),
(348,341,l),
(379,243,l),
(215,243,l),
(246,341,l)
);
}
);
width = 601;
},
{
anchors = (
{
name = bottom;
pos = (256,0);
},
{
name = ogonek;
pos = (536,0);
},
{
name = top;
pos = (376,680);
}
);
layerId = "7D2027AC-297A-4D58-8EA2-55B17EBAD0F9";
shapes = (
{
closed = 1;
nodes = (
(536,0,l),
(428,680,l),
(322,680,l),
(-25,0,l),
(99,0,l),
(164,133,l),
(397,133,l),
(416,0,l)
);
},
{
closed = 1;
nodes = (
(348,513,l),
(368,341,l),
(382,243,l),
(218,243,l),
(266,341,l)
);
}
);
width = 601;
},
{
anchors = (
{
name = bottom;
pos = (245,0);
},
{
name = ogonek;
pos = (512,0);
},
{
name = top;
pos = (365,680);
}
);
layerId = "C21AB58A-0F03-4AE0-976E-29AD56D058A6";
shapes = (
{
closed = 1;
nodes = (
(512,0,l),
(405,680,l),
(323,680,l),
(-22,0,l),
(67,0,l),
(146,158,l),
(402,158,l),
(425,0,l)
);
},
{
closed = 1;
nodes = (
(345,562,l),
(373,354,l),
(390,237,l),
(185,237,l),
(243,354,l)
);
}
);
width = 577;
},
{
anchors = (
{
name = bottom;
pos = (281,0);
},
{
name = ogonek;
pos = (540,0);
},
{
name = top;
pos = (281,680);
}
);
layerId = "552872BC-8C7A-453E-A7A0-DCEE3439D276";
shapes = (
{
closed = 1;
nodes = (
(540,0,l),
(313,680,l),
(248,680,l),
(22,0,l),
(84,0,l),
(141,175,l),
(416,175,l),
(474,0,l)
);
},
{
closed = 1;
nodes = (
(278,595,l),
(353,363,l),
(396,233,l),
(160,233,l),
(203,363,l)
);
}
);
width = 562;
},
{
anchors = (
{
name = bottom;
pos = (238,0);
},
{
name = ogonek;
pos = (497,0);
},
{
name = top;
pos = (358,680);
}
);
layerId = "EEA6B9EF-1944-48F9-8F0D-85D16B14CE21";
shapes = (
{
closed = 1;
nodes = (
(497,0,l),
(390,680,l),
(325,680,l),
(-21,0,l),
(46,0,l),
(134,175,l),
(405,175,l),
(432,0,l)
);
},
{
closed = 1;
nodes = (
(343,593,l),
(377,363,l),
(397,233,l),
(163,233,l),
(229,363,l)
);
}
);
width = 562;
}
);
unicode = 65;
}
{
glyphname = B;
kernRight = B;
layers = (
{
anchors = (
{
name = bottom;
pos = (293,0);
},
{
name = center;
pos = (146,170);
},
{
name = top;
pos = (293,680);
}
);
layerId = master01;
shapes = (
{
closed = 1;
nodes = (
(331,0,ls),
(465,0,o),
(527,71,o),
(527,181,cs),
(527,203,ls),
(527,275,o),
(489,328,o),
(419,351,c),
(470,377,o),
(497,424,o),
(497,483,cs),
(497,505,ls),
(497,611,o),
(437,680,o),
(306,680,cs),
(106,680,l),
(106,0,l)
);
},
{
closed = 1;
nodes = (
(373,600,o),
(407,564,o),
(407,505,cs),
(407,481,ls),
(407,421,o),
(373,385,o),
(306,385,cs),
(193,385,l),
(193,600,l),
(306,600,ls)
);
},
{
closed = 1;
nodes = (
(401,305,o),
(437,266,o),
(437,205,cs),
(437,181,ls),
(437,117,o),
(401,79,o),
(331,79,cs),
(193,79,l),
(193,305,l),
(331,305,ls)
);
}
);
width = 585;
},
{
anchors = (
{
name = bottom;
pos = (293,0);
},
{
name = center;
pos = (146,170);
},
{
name = top;
pos = (293,680);
}
);
layerId = "D73FB141-FF25-4743-A62C-F58A1C57CDB9";
shapes = (
{
closed = 1;
nodes = (
(326,0,ls),
(480,0,o),
(535,73,o),
(535,184,cs),
(535,212,ls),
(535,278,o),
(501,328,o),
(437,353,c),
(481,380,o),
(505,422,o),
(505,474,cs),
(505,502,ls),
(505,610,o),
(452,680,o),
(301,680,cs),
(94,680,l),
(94,0,l)
);
},
{
closed = 1;
nodes = (
(354,570,o),
(382,544,o),
(382,502,cs),
(382,469,ls),
(382,426,o),
(354,400,o),
(301,400,cs),
(214,400,l),
(214,570,l),
(301,570,ls)
);
},
{
closed = 1;
nodes = (
(382,290,o),
(412,262,o),
(412,217,cs),
(412,184,ls),
(412,138,o),
(382,110,o),
(326,110,cs),
(214,110,l),
(214,290,l),
(326,290,ls)
);
}
);
width = 585;
},
{
anchors = (
{
name = bottom;
pos = (248,0);
},
{
name = center;
pos = (132,170);
},
{
name = top;
pos = (368,680);
}
);
layerId = "7D2027AC-297A-4D58-8EA2-55B17EBAD0F9";
shapes = (
{
closed = 1;
nodes = (
(294,0,ls),
(448,0,o),
(503,63,o),
(521,172,cs),
(526,202,ls),
(537,267,o),
(514,318,o),
(464,348,c),
(509,373,o),
(535,413,o),
(543,462,cs),
(548,492,ls),
(567,604,o),
(500,680,o),
(366,680,cs),
(169,680,l),
(49,0,l)
);
},
{
closed = 1;
nodes = (
(409,570,o),
(434,540,o),
(425,492,cs),
(419,459,ls),
(412,422,o),
(379,400,o),
(327,400,cs),
(240,400,l),
(270,570,l),
(357,570,ls)
);
},
{
closed = 1;
nodes = (
(387,290,o),
(413,258,o),
(404,207,cs),
(398,174,ls),
(391,134,o),
(356,110,o),
(300,110,cs),
(188,110,l),
(220,290,l),
(332,290,ls)
);
}
);
width = 585.69633;
},
{
anchors = (
{
name = bottom;
pos = (249,0);
},
{
name = center;
pos = (133,170);
},
{
name = top;
pos = (369,680);
}
);
layerId = "C21AB58A-0F03-4AE0-976E-29AD56D058A6";
shapes = (
{
closed = 1;
nodes = (
(298,0,ls),
(431,0,o),
(497,63,o),
(515,170,cs),
(518,193,ls),
(530,262,o),
(504,319,o),
(445,347,c),
(497,372,o),
(529,416,o),
(538,472,cs),
(542,495,ls),
(560,605,o),
(497,680,o),
(372,680,cs),
(182,680,l),
(62,0,l)
);
},
{
closed = 1;
nodes = (
(434,600,o),
(463,560,o),
(452,495,cs),
(447,471,ls),
(438,417,o),
(397,385,o),
(330,385,cs),
(217,385,l),
(255,600,l),
(368,600,ls)
);
},
{
closed = 1;
nodes = (
(410,305,o),
(440,261,o),
(429,195,cs),
(425,171,ls),
(415,113,o),
(371,79,o),
(301,79,cs),
(163,79,l),
(203,305,l),
(341,305,ls)
);
}
);
width = 586;
},
{
anchors = (
{
name = bottom;
pos = (293,0);
},
{
name = center;
pos = (146,170);
},
{
name = top;
pos = (293,680);
}
);
layerId = "552872BC-8C7A-453E-A7A0-DCEE3439D276";
shapes = (
{
closed = 1;
nodes = (
(335,0,ls),
(455,0,o),
(523,71,o),
(523,179,cs),
(523,197,ls),
(523,274,o),
(482,330,o),
(406,351,c),
(463,376,o),
(493,425,o),
(493,489,cs),
(493,507,ls),
(493,612,o),
(427,680,o),
(310,680,cs),
(115,680,l),
(115,0,l)
);
},
{
closed = 1;
nodes = (
(386,621,o),
(425,578,o),
(425,507,cs),
(425,489,ls),
(425,418,o),
(386,375,o),
(310,375,cs),
(180,375,l),
(180,621,l),
(310,621,ls)
);
},
{
closed = 1;
nodes = (
(414,316,o),
(455,270,o),
(455,197,cs),
(455,179,ls),
(455,104,o),
(414,59,o),
(335,59,cs),
(180,59,l),
(180,316,l),
(335,316,ls)
);
}
);
width = 585;
},
{
anchors = (
{
name = bottom;
pos = (250,0);
},
{
name = center;
pos = (134,170);
},
{
name = top;
pos = (370,680);
}
);
layerId = "EEA6B9EF-1944-48F9-8F0D-85D16B14CE21";
shapes = (
{
closed = 1;
nodes = (
(302,0,ls),
(420,0,o),
(494,64,o),
(511,169,cs),
(514,187,ls),
(526,259,o),
(498,320,o),
(432,347,c),
(489,371,o),
(525,418,o),
(535,479,cs),
(538,497,ls),
(556,606,o),
(496,680,o),
(377,680,cs),
(192,680,l),
(72,0,l)
);
},
{
closed = 1;
nodes = (
(452,621,o),
(483,574,o),
(470,497,cs),
(467,479,ls),
(456,414,o),
(409,375,o),
(333,375,cs),
(203,375,l),
(247,621,l),
(376,621,ls)
);
},
{
closed = 1;
nodes = (
(426,316,o),
(459,263,o),
(446,187,cs),
(443,169,ls),
(431,100,o),
(381,59,o),
(302,59,cs),
(147,59,l),
(193,316,l),
(348,316,ls)
);
}
);
width = 586.22753;
}
);
unicode = 66;
}
{
glyphname = C;
kernLeft = O;
kernRight = C;
layers = (
{
anchors = (
{
name = bottom;
pos = (315,0);
},
{
name = top;
pos = (315,680);
}
);
layerId = master01;
shapes = (
{
closed = 1;
nodes = (
(165,415,ls),
(165,540,o),
(214,609,o),
(318,609,cs),
(362,609,o),
(407,598,o),
(463,573,c),
(491,648,l),
(430,677,o),
(370,690,o),
(315,690,cs),
(158,690,o),
(75,584,o),
(75,415,cs),
(75,265,ls),
(75,95,o),
(158,-10,o),
(315,-10,cs),
(370,-10,o),
(428,2,o),
(493,32,c),
(464,106,l),
(403,79,o),
(363,70,o),
(318,70,cs),
(214,70,o),
(165,139,o),
(165,265,cs)
);
}
);
width = 529;
},
{
anchors = (
{
name = bottom;
pos = (317,0);
},
{
name = top;
pos = (317,680);
}
);
layerId = "D73FB141-FF25-4743-A62C-F58A1C57CDB9";
shapes = (
{
closed = 1;
nodes = (
(186,412,ls),
(186,509,o),
(225,577,o),
(323,577,cs),
(361,577,o),
(399,567,o),
(460,542,c),
(497,648,l),
(427,679,o),
(370,690,o),
(316,690,cs),
(148,690,o),
(63,574,o),
(63,412,cs),
(63,269,ls),
(63,106,o),
(148,-10,o),
(316,-10,cs),
(372,-10,o),
(431,2,o),
(503,34,c),
(466,138,l),
(402,112,o),
(363,103,o),
(323,103,cs),
(225,103,o),
(186,171,o),
(186,269,cs)
);
}
);
width = 534;
},
{
anchors = (
{
name = bottom;
pos = (284,0);
},
{
name = top;
pos = (404,680);
}
);
layerId = "7D2027AC-297A-4D58-8EA2-55B17EBAD0F9";
shapes = (
{
closed = 1;
nodes = (
(212,402,ls),
(229,504,o),
(279,577,o),
(372,577,cs),
(415,577,o),
(450,567,o),
(507,542,c),
(552,648,l),
(488,679,o),
(434,690,o),
(380,690,cs),
(212,690,o),
(120,592,o),
(89,402,cs),
(69,280,ls),
(42,116,o),
(121,-10,o),
(286,-10,cs),
(331,-10,o),
(393,-2,o),
(467,23,c),
(442,128,l),
(375,108,o),
(331,103,o),
(298,103,cs),
(204,103,o),
(175,178,o),
(192,280,cs)
);
}
);
width = 537.71019;
},
{
anchors = (
{
name = bottom;
pos = (273,0);
},
{
name = top;
pos = (393,680);
}
);
layerId = "C21AB58A-0F03-4AE0-976E-29AD56D058A6";
shapes = (
{
closed = 1;
nodes = (
(194,411,ls),
(217,538,o),
(275,609,o),
(376,609,cs),
(421,609,o),
(463,598,o),
(518,571,c),
(549,648,l),
(491,677,o),
(434,690,o),
(380,690,cs),
(219,690,o),
(136,594,o),
(104,411,cs),
(82,281,ls),
(51,104,o),
(127,-10,o),
(281,-10,cs),
(329,-10,o),
(393,-1,o),
(461,24,c),
(440,99,l),
(376,75,o),
(326,70,o),
(290,70,cs),
(187,70,o),
(148,147,o),
(172,281,cs)
);
}
);
width = 533;
},
{
anchors = (
{
name = bottom;
pos = (323,0);
},
{
name = top;
pos = (323,680);
}
);
layerId = "552872BC-8C7A-453E-A7A0-DCEE3439D276";
shapes = (
{
closed = 1;
nodes = (
(152,417,ls),
(152,561,o),
(207,631,o),
(315,631,cs),
(363,631,o),
(414,619,o),
(465,594,c),
(487,649,l),
(432,677,o),
(370,690,o),
(315,690,cs),
(165,690,o),
(84,592,o),
(84,417,cs),
(84,263,ls),
(84,88,o),
(165,-10,o),
(315,-10,cs),
(369,-10,o),
(427,3,o),
(487,31,c),
(464,86,l),
(404,58,o),
(363,49,o),
(316,49,cs),
(207,49,o),
(152,119,o),
(152,263,cs)
);
}
);
width = 526;
},
{
anchors = (
{
name = bottom;
pos = (272,0);
},
{
name = top;
pos = (392,680);
}
);
layerId = "EEA6B9EF-1944-48F9-8F0D-85D16B14CE21";
shapes = (
{
closed = 1;
nodes = (
(183,417,ls),
(209,561,o),
(273,631,o),
(380,631,cs),
(425,631,o),
(473,619,o),
(526,591,c),
(548,649,l),
(494,677,o),
(435,690,o),
(381,690,cs),
(225,690,o),
(147,596,o),
(115,417,cs),
(91,283,ls),
(57,96,o),
(131,-10,o),
(278,-10,cs),
(329,-10,o),
(394,-1,o),
(457,26,c),
(439,81,l),
(377,54,o),
(324,49,o),
(285,49,cs),
(176,49,o),
(131,127,o),
(159,283,cs)
);
}
);
width = 530.88652;
}
);
unicode = 67;
}
{
glyphname = D;
kernRight = O;
layers = (
{
anchors = (
{
name = bottom;
pos = (319,0);
},
{
name = center;
pos = (159,340);
},
{
name = top;
pos = (319,680);
}
);
layerId = master01;
shapes = (
{
closed = 1;
nodes = (
(317,0,ls),
(473,0,o),
(560,99,o),
(560,266,cs),
(560,415,ls),
(560,580,o),
(473,680,o),
(317,680,cs),
(106,680,l),
(106,0,l)
);
},
{
closed = 1;
nodes = (
(419,598,o),
(470,536,o),
(470,415,cs),
(470,266,ls),
(470,144,o),
(419,81,o),
(315,81,cs),
(193,81,l),
(193,598,l),
(315,598,ls)
);
}
);
width = 637;
},
{
anchors = (
{
name = bottom;
pos = (320,0);
},
{
name = center;
pos = (160,340);
},
{
name = top;
pos = (320,680);
}
);
layerId = "D73FB141-FF25-4743-A62C-F58A1C57CDB9";
shapes = (
{
closed = 1;
nodes = (
(324,0,ls),
(486,0,o),
(574,92,o),
(574,269,cs),
(574,412,ls),
(574,588,o),
(486,680,o),
(324,680,cs),
(94,680,l),
(94,0,l)
);
},
{
closed = 1;
nodes = (
(413,565,o),
(451,523,o),
(451,412,cs),
(451,269,ls),
(451,157,o),
(413,115,o),
(319,115,cs),
(214,115,l),
(214,565,l),
(319,565,ls)
);
}
);
width = 639;
},
{
anchors = (
{
name = bottom;
pos = (275,0);
},
{
name = center;
pos = (175,340);
},
{
name = top;
pos = (395,680);
}
);
layerId = "7D2027AC-297A-4D58-8EA2-55B17EBAD0F9";
shapes = (
{
closed = 1;
nodes = (
(290,0,ls),
(454,0,o),
(547,103,o),
(578,279,cs),
(600,402,ls),
(628,561,o),
(541,680,o),
(379,680,cs),
(169,680,l),
(49,0,l)
);
},
{
closed = 1;
nodes = (
(463,565,o),
(495,500,o),
(477,402,cs),
(455,279,ls),
(436,174,o),
(386,115,o),
(296,115,cs),
(189,115,l),
(269,565,l),
(371,565,ls)
);
}
);
width = 639;
},
{
anchors = (
{
name = bottom;
pos = (275,0);
},
{
name = center;
pos = (176,340);
},
{
name = top;
pos = (395,680);
}
);
layerId = "C21AB58A-0F03-4AE0-976E-29AD56D058A6";
shapes = (
{
closed = 1;
nodes = (
(283,0,ls),
(437,0,o),
(534,100,o),
(563,264,cs),
(586,399,ls),
(616,564,o),
(533,680,o),
(376,680,cs),
(182,680,l),
(62,0,l)
);
},
{
closed = 1;
nodes = (
(475,598,o),
(519,522,o),
(496,399,cs),
(473,264,ls),
(452,148,o),
(386,81,o),
(286,81,cs),
(163,81,l),
(255,598,l),
(372,598,ls)
);
}
);
width = 637;
},
{
anchors = (
{
name = bottom;
pos = (319,0);
},
{
name = center;
pos = (159,340);
},
{
name = top;
pos = (319,680);
}
);
layerId = "552872BC-8C7A-453E-A7A0-DCEE3439D276";
shapes = (
{
closed = 1;
nodes = (
(313,0,ls),
(465,0,o),
(551,104,o),
(551,264,cs),
(551,417,ls),
(551,576,o),
(465,680,o),
(313,680,cs),
(115,680,l),
(115,0,l)
);
},
{
closed = 1;
nodes = (
(424,621,o),
(483,545,o),
(483,417,cs),
(483,264,ls),
(483,136,o),
(424,59,o),
(313,59,cs),
(180,59,l),
(180,621,l),
(313,621,ls)
);
}
);
width = 637;
},
{
anchors = (
{
name = bottom;
pos = (276,0);
},
{
name = center;
pos = (176,340);
},
{
name = top;
pos = (396,680);
}
);
layerId = "EEA6B9EF-1944-48F9-8F0D-85D16B14CE21";
shapes = (
{
closed = 1;
nodes = (
(279,0,ls),
(427,0,o),
(526,98,o),
(553,254,cs),
(578,397,ls),
(608,567,o),
(529,680,o),
(374,680,cs),
(192,680,l),
(72,0,l)
);
},
{
closed = 1;
nodes = (
(484,621,o),
(535,538,o),
(510,397,cs),
(485,254,ls),
(464,132,o),
(387,59,o),
(280,59,cs),
(147,59,l),
(247,621,l),
(373,621,ls)
);
}
);
width = 637;
}
);
unicode = 68;
}
{
glyphname = E;
kernRight = E;
layers = (
{
anchors = (
{
name = bottom;
pos = (286,0);
},
{
name = ogonek;
pos = (486,0);
},
{
name = top;
pos = (286,680);
},
{
name = topleft;
pos = (20,680);
}
);
layerId = master01;
shapes = (
{
closed = 1;
nodes = (
(193,81,l),
(193,303,l),
(446,303,l),
(446,385,l),
(193,385,l),
(193,598,l),
(476,598,l),
(476,680,l),
(106,680,l),
(106,0,l),
(486,0,l),
(486,81,l)
);
}
);
width = 531;
},
{
anchors = (
{
name = bottom;
pos = (298,0);
},
{
name = ogonek;
pos = (488,0);
},
{
name = top;
pos = (298,680);
},
{
name = topleft;
pos = (20,680);
}
);
layerId = "D73FB141-FF25-4743-A62C-F58A1C57CDB9";
shapes = (
{
closed = 1;
nodes = (
(214,115,l),
(214,287,l),
(448,287,l),
(448,402,l),
(214,402,l),
(214,565,l),
(478,565,l),
(478,680,l),
(94,680,l),
(94,0,l),
(488,0,l),
(488,115,l)
);
}
);
width = 536;
},
{
anchors = (
{
name = bottom;
pos = (253,0);
},
{
name = ogonek;
pos = (443,0);
},
{
name = top;
pos = (373,680);
},
{
name = topleft;
pos = (95,680);
}
);
layerId = "7D2027AC-297A-4D58-8EA2-55B17EBAD0F9";
shapes = (
{
closed = 1;
nodes = (
(189,115,l),
(220,287,l),
(454,287,l),
(474,402,l),
(240,402,l),
(269,565,l),
(533,565,l),
(553,680,l),
(169,680,l),
(49,0,l),
(443,0,l),
(463,115,l)
);
}
);
width = 536;
},
{
anchors = (
{
name = bottom;
pos = (242,0);
},
{
name = ogonek;
pos = (442,0);
},
{
name = top;
pos = (362,680);
},
{
name = topleft;
pos = (96,680);
}
);
layerId = "C21AB58A-0F03-4AE0-976E-29AD56D058A6";
shapes = (
{
closed = 1;
nodes = (
(163,81,l),
(203,303,l),
(455,303,l),
(470,385,l),
(217,385,l),
(255,598,l),
(537,598,l),
(552,680,l),
(182,680,l),
(62,0,l),
(442,0,l),
(456,81,l)
);
}
);
width = 531;
},
{
anchors = (
{
name = bottom;
pos = (304,0);
},
{
name = ogonek;
pos = (475,10);
},
{
name = top;
pos = (304,680);
},
{
name = topleft;
pos = (20,680);
}
);
layerId = "552872BC-8C7A-453E-A7A0-DCEE3439D276";
shapes = (
{
closed = 1;
nodes = (
(180,59,l),
(180,315,l),
(445,315,l),
(445,374,l),
(180,374,l),
(180,621,l),
(475,621,l),
(475,680,l),
(115,680,l),
(115,0,l),
(485,0,l),
(485,59,l)
);
}
);
width = 528;
},
{
anchors = (
{
name = bottom;
pos = (261,0);
},
{
name = ogonek;
pos = (442,0);
},
{
name = top;
pos = (381,680);
},
{
name = topleft;
pos = (97,680);
}
);
layerId = "EEA6B9EF-1944-48F9-8F0D-85D16B14CE21";
shapes = (
{
closed = 1;
nodes = (
(147,59,l),
(193,315,l),
(458,315,l),
(468,374,l),
(203,374,l),
(246,621,l),
(541,621,l),
(552,680,l),
(192,680,l),
(72,0,l),
(442,0,l),
(452,59,l)
);
}
);
width = 528;
}
);
unicode = 69;
}
{
glyphname = F;
kernRight = F;
layers = (
{
anchors = (
{
name = bottom;
pos = (149,0);
},
{
name = top;
pos = (293,680);
}
);
layerId = master01;
shapes = (
{
closed = 1;
nodes = (
(440,368,l),
(193,368,l),
(193,598,l),
(470,598,l),
(470,680,l),
(106,680,l),
(106,0,l),
(193,0,l),
(193,286,l),
(440,286,l)
);
}
);
width = 506;
},
{
anchors = (
{
name = bottom;
pos = (155,0);
},
{
name = top;
pos = (293,680);
}
);
layerId = "D73FB141-FF25-4743-A62C-F58A1C57CDB9";
shapes = (
{
closed = 1;
nodes = (
(442,376,l),
(214,376,l),
(214,565,l),
(472,565,l),
(472,680,l),
(94,680,l),
(94,0,l),
(214,0,l),
(214,261,l),
(442,261,l)
);
}
);
width = 505;
},
{
anchors = (
{
name = bottom;
pos = (114,0);
},
{
name = top;
pos = (358,680);
}
);
layerId = "7D2027AC-297A-4D58-8EA2-55B17EBAD0F9";
shapes = (
{
closed = 1;
nodes = (
(463,376,l),
(235,376,l),
(269,565,l),
(527,565,l),
(547,680,l),
(169,680,l),
(49,0,l),
(169,0,l),
(215,261,l),
(443,261,l)
);
}
);
width = 505;
},
{
anchors = (
{
name = bottom;
pos = (108,0);
},
{
name = top;
pos = (369,680);
}
);
layerId = "C21AB58A-0F03-4AE0-976E-29AD56D058A6";
shapes = (
{
closed = 1;
nodes = (
(461,368,l),
(214,368,l),
(255,598,l),
(531,598,l),
(546,680,l),
(182,680,l),
(62,0,l),
(149,0,l),
(200,286,l),
(446,286,l)
);
}
);
width = 506;
},
{
anchors = (
{
name = bottom;
pos = (148,0);
},
{
name = top;
pos = (294,680);
}
);
layerId = "552872BC-8C7A-453E-A7A0-DCEE3439D276";
shapes = (
{
closed = 1;
nodes = (
(439,363,l),
(180,363,l),
(180,621,l),
(469,621,l),
(469,680,l),
(115,680,l),
(115,0,l),
(180,0,l),
(180,304,l),
(439,304,l)
);
}
);
width = 507;
},
{
anchors = (
{
name = bottom;
pos = (103,0);
},
{
name = top;
pos = (371,680);
}
);
layerId = "EEA6B9EF-1944-48F9-8F0D-85D16B14CE21";
shapes = (
{
closed = 1;
nodes = (
(460,363,l),
(201,363,l),
(246,621,l),
(535,621,l),
(546,680,l),
(192,680,l),
(72,0,l),
(137,0,l),
(191,304,l),
(450,304,l)
);
}
);
width = 507;
}
);
unicode = 70;
}
{
glyphname = G;
kernLeft = O;
kernRight = G;
layers = (
{
anchors = (
{
name = bottom;
pos = (332,0);
},
{
name = top;
pos = (332,680);
}
);
layerId = master01;
shapes = (
{
closed = 1;
nodes = (
(536,356,l),
(329,356,l),
(329,279,l),
(456,279,l),
(456,96,l),
(421,80,o),
(373,70,o),
(331,70,cs),
(220,70,o),
(166,146,o),
(166,266,cs),
(166,415,ls),
(166,541,o),
(219,609,o),
(329,609,cs),
(380,609,o),
(432,597,o),
(493,572,c),
(521,647,l),
(455,677,o),
(388,690,o),
(328,690,cs),
(164,690,o),
(76,586,o),
(76,415,cs),
(76,266,ls),
(76,101,o),
(164,-10,o),
(325,-10,cs),
(425,-10,o),
(497,22,o),
(536,47,c)
);
}
);
width = 604;
},
{
anchors = (
{
name = bottom;
pos = (332,0);
},
{
name = top;
pos = (332,680);
}
);
layerId = "D73FB141-FF25-4743-A62C-F58A1C57CDB9";
shapes = (
{
closed = 1;
nodes = (
(544,374,l),
(325,374,l),
(325,269,l),
(435,269,l),
(435,120,l),
(402,111,o),
(363,105,o),
(333,105,cs),
(231,105,o),
(186,173,o),
(186,269,cs),
(186,412,ls),
(186,513,o),
(230,577,o),
(334,577,cs),
(381,577,o),
(423,566,o),
(489,541,c),
(526,646,l),
(451,679,o),
(390,690,o),
(332,690,cs),
(153,690,o),
(63,578,o),
(63,412,cs),
(63,269,ls),
(63,106,o),
(154,-10,o),
(327,-10,cs),
(430,-10,o),
(510,24,o),
(544,44,c)
);
}
);
width = 603;
},
{
anchors = (
{
name = bottom;
pos = (287,0);
},
{
name = top;
pos = (407,680);
}
);
layerId = "7D2027AC-297A-4D58-8EA2-55B17EBAD0F9";
shapes = (
{
closed = 1;
nodes = (
(565,374,l),
(346,374,l),
(327,269,l),
(438,269,l),
(412,121,l),
(370,108,o),
(339,103,o),
(312,103,cs),
(207,103,o),
(176,178,o),
(193,280,cs),
(213,402,ls),
(230,504,o),
(286,577,o),
(391,577,cs),
(433,577,o),
(477,568,o),
(540,543,c),
(585,648,l),
(515,679,o),
(455,690,o),
(396,690,cs),
(219,690,o),
(121,592,o),
(90,402,cs),
(70,280,ls),
(43,116,o),
(126,-10,o),
(298,-10,cs),
(356,-10,o),
(431,5,o),
(507,43,c)
);
}
);
width = 603;
},
{
anchors = (
{
name = bottom;
pos = (288,0);
},
{
name = top;
pos = (408,680);
}
);
layerId = "C21AB58A-0F03-4AE0-976E-29AD56D058A6";
shapes = (
{
closed = 1;
nodes = (
(555,356,l),
(349,356,l),
(334,279,l),
(461,279,l),
(428,95,l),
(379,75,o),
(341,69,o),
(303,69,cs),
(190,69,o),
(150,146,o),
(173,281,cs),
(196,411,ls),
(218,538,o),
(282,609,o),
(392,609,cs),
(439,609,o),
(490,600,o),
(551,571,c),
(582,647,l),
(518,678,o),
(454,690,o),
(394,690,cs),
(226,690,o),
(137,594,o),
(106,411,cs),
(83,281,ls),
(52,104,o),
(131,-10,o),
(293,-10,cs),
(357,-10,o),
(425,4,o),
(499,41,c)
);
}
);
width = 604;
},
{
anchors = (
{
name = bottom;
pos = (333,0);
},
{
name = top;
pos = (333,680);
}
);
layerId = "552872BC-8C7A-453E-A7A0-DCEE3439D276";
shapes = (
{
closed = 1;
nodes = (
(531,345,l),
(333,345,l),
(333,286,l),
(470,286,l),
(470,83,l),
(433,60,o),
(382,47,o),
(330,47,cs),
(214,47,o),
(154,129,o),
(154,264,cs),
(154,417,ls),
(154,561,o),
(212,631,o),
(326,631,cs),
(380,631,o),
(439,619,o),
(496,594,c),
(518,649,l),
(458,677,o),
(387,690,o),
(326,690,cs),
(172,690,o),
(86,592,o),
(86,417,cs),
(86,264,ls),
(86,98,o),
(172,-10,o),
(325,-10,cs),
(422,-10,o),
(490,21,o),
(531,50,c)
);
}
);
width = 605;
},
{
anchors = (
{
name = bottom;
pos = (290,0);
},
{
name = top;
pos = (410,680);
}
);
layerId = "EEA6B9EF-1944-48F9-8F0D-85D16B14CE21";
shapes = (
{
closed = 1;
nodes = (
(549,345,l),
(351,345,l),
(340,286,l),
(477,286,l),
(441,79,l),
(388,55,o),
(345,47,o),
(297,47,cs),
(179,47,o),
(133,126,o),
(161,283,cs),
(185,417,ls),
(211,561,o),
(280,631,o),
(393,631,cs),
(443,631,o),
(499,622,o),
(559,590,c),
(581,647,l),
(521,678,o),
(454,690,o),
(394,690,cs),
(231,690,o),
(149,596,o),
(117,417,cs),
(93,283,ls),
(59,96,o),
(135,-10,o),
(290,-10,cs),
(358,-10,o),
(421,4,o),
(495,40,c)
);
}
);
width = 605;
}
);
unicode = 71;
}
{
glyphname = H;
layers = (
{
anchors = (
{
name = bottom;
pos = (342,0);
},
{
name = center;
pos = (342,510);
},
{
name = top;
pos = (342,680);
},
{
name = topleft;
pos = (20,680);
}
);
layerId = master01;
shapes = (
{
closed = 1;
nodes = (
(577,0,l),
(577,680,l),
(490,680,l),
(490,385,l),
(193,385,l),
(193,680,l),
(106,680,l),
(106,0,l),
(193,0,l),
(193,303,l),
(490,303,l),
(490,0,l)
);
}
);
width = 683;
},
{
anchors = (
{
name = bottom;
pos = (341,0);
},
{
name = center;
pos = (341,510);
},
{
name = top;
pos = (341,680);
},
{
name = topleft;
pos = (20,680);
}
);
layerId = "D73FB141-FF25-4743-A62C-F58A1C57CDB9";
shapes = (
{
closed = 1;
nodes = (
(588,0,l),
(588,680,l),
(468,680,l),
(468,402,l),
(214,402,l),
(214,680,l),
(94,680,l),
(94,0,l),
(214,0,l),
(214,287,l),
(468,287,l),
(468,0,l)
);
}
);
width = 682;
},
{
anchors = (
{
name = bottom;
pos = (296,0);
},
{
name = center;
pos = (386,510);
},
{
name = top;
pos = (416,680);
},
{
name = topleft;
pos = (95,680);
}
);
layerId = "7D2027AC-297A-4D58-8EA2-55B17EBAD0F9";
shapes = (
{
closed = 1;
nodes = (
(543,0,l),
(663,680,l),
(543,680,l),
(494,402,l),
(240,402,l),
(289,680,l),
(169,680,l),
(49,0,l),
(169,0,l),
(220,287,l),
(474,287,l),
(423,0,l)
);
}
);
width = 682;
},
{
anchors = (
{
name = bottom;
pos = (298,0);
},
{
name = center;
pos = (388,510);
},
{
name = top;
pos = (418,680);
},
{
name = topleft;
pos = (96,680);
}
);
layerId = "C21AB58A-0F03-4AE0-976E-29AD56D058A6";
shapes = (
{
closed = 1;
nodes = (
(533,0,l),
(653,680,l),
(566,680,l),
(514,385,l),
(217,385,l),
(269,680,l),
(182,680,l),
(62,0,l),
(149,0,l),
(202,303,l),
(499,303,l),
(446,0,l)
);
}
);
width = 683;
},
{
anchors = (
{
name = bottom;
pos = (343,0);
},
{
name = center;
pos = (343,510);
},
{
name = top;
pos = (343,680);
},
{
name = topleft;
pos = (20,680);
}
);
layerId = "552872BC-8C7A-453E-A7A0-DCEE3439D276";
shapes = (
{
closed = 1;
nodes = (
(570,0,l),
(570,680,l),
(505,680,l),
(505,374,l),
(180,374,l),
(180,680,l),
(115,680,l),
(115,0,l),
(180,0,l),
(180,315,l),
(505,315,l),
(505,0,l)
);
}
);
width = 685;
},
{
anchors = (
{
name = bottom;
pos = (300,0);
},
{
name = center;
pos = (390,510);
},
{
name = top;
pos = (420,680);
},
{
name = topleft;
pos = (97,680);
}
);
layerId = "EEA6B9EF-1944-48F9-8F0D-85D16B14CE21";
shapes = (
{
closed = 1;
nodes = (
(527,0,l),
(647,680,l),
(582,680,l),
(528,374,l),
(203,374,l),
(257,680,l),
(192,680,l),
(72,0,l),
(137,0,l),
(193,315,l),
(518,315,l),
(462,0,l)
);
}
);
width = 685;
}
);
unicode = 72;
}
{
glyphname = I;
layers = (
{
anchors = (
{
name = bottom;
pos = (150,0);
},
{
name = ogonek;
pos = (193,0);
},
{
name = top;
pos = (150,680);
},
{
name = topleft;
pos = (20,680);
}
);
layerId = master01;
shapes = (
{
closed = 1;
nodes = (
(193,680,l),
(106,680,l),
(106,0,l),
(193,0,l)
);
}
);
width = 300;
},
{
anchors = (
{
name = bottom;
pos = (154,0);
},
{
name = ogonek;
pos = (214,0);
},
{
name = top;
pos = (154,680);
},
{
name = topleft;
pos = (20,680);
}
);
layerId = "D73FB141-FF25-4743-A62C-F58A1C57CDB9";
shapes = (
{
closed = 1;
nodes = (
(214,680,l),
(94,680,l),
(94,0,l),
(214,0,l)
);
}
);
width = 308;
},
{
anchors = (
{
name = bottom;
pos = (109,0);
},
{
name = ogonek;
pos = (169,0);
},
{
name = top;
pos = (229,680);
},
{
name = topleft;
pos = (95,680);
}
);
layerId = "7D2027AC-297A-4D58-8EA2-55B17EBAD0F9";
shapes = (
{
closed = 1;
nodes = (
(289,680,l),
(169,680,l),
(49,0,l),
(169,0,l)
);
}
);
width = 308;
},
{
anchors = (
{
name = bottom;
pos = (106,0);
},
{
name = ogonek;
pos = (149,0);
},
{
name = top;
pos = (226,680);
},
{
name = topleft;
pos = (96,680);
}
);
layerId = "C21AB58A-0F03-4AE0-976E-29AD56D058A6";
shapes = (
{
closed = 1;
nodes = (
(269,680,l),
(182,680,l),
(62,0,l),
(149,0,l)
);
}
);
width = 300;
},
{
anchors = (
{
name = bottom;
pos = (148,0);
},
{
name = ogonek;
pos = (180,0);
},
{
name = top;
pos = (148,680);
},
{
name = topleft;
pos = (20,680);
}
);
layerId = "552872BC-8C7A-453E-A7A0-DCEE3439D276";
shapes = (
{
closed = 1;
nodes = (
(180,680,l),
(115,680,l),
(115,0,l),
(180,0,l)
);
}
);
width = 295;
},
{
anchors = (
{
name = bottom;
pos = (105,0);
},
{
name = ogonek;
pos = (137,0);
},
{
name = top;
pos = (225,680);
},
{
name = topleft;
pos = (97,680);
}
);
layerId = "EEA6B9EF-1944-48F9-8F0D-85D16B14CE21";
shapes = (
{
closed = 1;
nodes = (
(257,680,l),
(192,680,l),
(72,0,l),
(137,0,l)
);
}
);
width = 295;
}
);
unicode = 73;
}
{
glyphname = J;
kernLeft = J;
kernRight = J;
layers = (
{
anchors = (
{
name = bottom;
pos = (182,0);
},
{
name = top;
pos = (226,680);
}
);
layerId = master01;
shapes = (
{
closed = 1;
nodes = (
(216,-7,o),
(270,87,o),
(270,224,cs),
(270,680,l),
(183,680,l),
(183,224,ls),
(183,114,o),
(135,76,o),
(27,76,c),
(27,-7,l)
);
}
);
width = 363;
},
{
anchors = (
{
name = bottom;
pos = (188,0);
},
{
name = top;
pos = (239,680);
}
);
layerId = "D73FB141-FF25-4743-A62C-F58A1C57CDB9";
shapes = (
{
closed = 1;
nodes = (
(239,-10,o),
(300,87,o),
(300,244,cs),
(300,680,l),
(180,680,l),
(180,244,ls),
(180,140,o),
(134,105,o),
(26,105,c),
(26,-10,l)
);
}
);
width = 376;
},
{
anchors = (
{
name = bottom;
pos = (143,0);
},
{
name = top;
pos = (312,680);
}
);
layerId = "7D2027AC-297A-4D58-8EA2-55B17EBAD0F9";
shapes = (
{
closed = 1;
nodes = (
(206,-10,o),
(267,66,o),
(298,244,cs),
(375,680,l),
(255,680,l),
(178,244,ls),
(158,129,o),
(116,105,o),
(0,105,c),
(-21,-10,l)
);
}
);
width = 376;
},
{
anchors = (
{
name = bottom;
pos = (138,0);
},
{
name = top;
pos = (300,680);
}
);
layerId = "C21AB58A-0F03-4AE0-976E-29AD56D058A6";
shapes = (
{
closed = 1;
nodes = (
(183,-7,o),
(238,70,o),
(266,224,cs),
(346,680,l),
(259,680,l),
(179,224,ls),
(158,105,o),
(111,76,o),
(-3,76,c),
(-18,-7,l)
);
}
);
width = 363;
},
{
anchors = (
{
name = bottom;
pos = (178,0);
},
{
name = top;
pos = (216,680);
}
);
layerId = "552872BC-8C7A-453E-A7A0-DCEE3439D276";
shapes = (
{
closed = 1;
nodes = (
(201,-5,o),
(251,87,o),
(251,212,cs),
(251,680,l),
(186,680,l),
(186,212,ls),
(186,97,o),
(137,57,o),
(28,57,c),
(28,-5,l)
);
}
);
width = 355;
},
{
anchors = (
{
name = bottom;
pos = (135,0);
},
{
name = top;
pos = (294,680);
}
);
layerId = "EEA6B9EF-1944-48F9-8F0D-85D16B14CE21";
shapes = (
{
closed = 1;
nodes = (
(168,-5,o),
(220,73,o),
(245,212,cs),
(328,680,l),
(263,680,l),
(180,212,ls),
(158,90,o),
(109,57,o),
(-5,57,c),
(-16,-5,l)
);
}
);
width = 355;
}
);
unicode = 74;
}
{
glyphname = K;
kernRight = K;
layers = (
{
anchors = (
{
name = bottom;
pos = (298,0);
},
{
name = top;
pos = (298,680);
}
);
layerId = master01;
shapes = (
{
closed = 1;
nodes = (
(583,0,l),
(347,378,l),
(429,472,o),
(491,562,o),
(551,680,c),
(457,680,l),
(398,563,o),
(318,453,o),
(193,327,c),
(193,680,l),
(106,680,l),
(106,0,l),
(193,0,l),
(193,230,l),
(225,261,o),
(255,291,o),
(283,321,c),
(477,0,l)
);
}
);
width = 596;
},
{
anchors = (
{
name = bottom;
pos = (308,0);
},
{
name = top;
pos = (308,680);
}
);
layerId = "D73FB141-FF25-4743-A62C-F58A1C57CDB9";
shapes = (
{
closed = 1;
nodes = (
(600,0,l),
(374,376,l),
(446,463,o),
(510,565,o),
(568,680,c),
(437,680,l),
(385,575,o),
(315,473,o),
(214,357,c),
(214,680,l),
(94,680,l),
(94,0,l),
(214,0,l),
(214,220,l),
(239,246,o),
(262,272,o),
(285,297,c),
(455,0,l)
);
}
);
width = 616;
},
{
anchors = (
{
name = bottom;
pos = (262,0);
},
{
name = top;
pos = (382,680);
}
);
layerId = "7D2027AC-297A-4D58-8EA2-55B17EBAD0F9";
shapes = (
{
closed = 1;
nodes = (
(553,0,l),
(392,379,l),
(480,467,o),
(564,566,o),
(643,680,c),
(505,680,l),
(437,578,o),
(351,478,o),
(234,367,c),
(289,680,l),
(169,680,l),
(49,0,l),
(169,0,l),
(208,222,l),
(239,250,o),
(268,276,o),
(297,303,c),
(416,0,l)
);
}
);
width = 614;
},
{
anchors = (
{
name = bottom;
pos = (254,0);
},
{
name = top;
pos = (374,680);
}
);
layerId = "C21AB58A-0F03-4AE0-976E-29AD56D058A6";
shapes = (
{
closed = 1;
nodes = (
(538,0,l),
(369,378,l),
(466,472,o),
(549,570,o),
(627,680,c),
(527,680,l),
(448,564,o),
(345,453,o),
(208,334,c),
(269,680,l),
(182,680,l),
(62,0,l),
(149,0,l),
(189,229,l),
(228,262,o),
(265,293,o),
(300,325,c),
(440,0,l)
);
}
);
width = 595;
},
{
anchors = (
{
name = bottom;
pos = (292,0);
},
{
name = top;
pos = (292,680);
}
);
layerId = "552872BC-8C7A-453E-A7A0-DCEE3439D276";
shapes = (
{
closed = 1;
nodes = (
(573,0,l),
(330,380,l),
(420,481,o),
(479,563,o),
(540,680,c),
(471,680,l),
(406,557,o),
(321,443,o),
(180,312,c),
(180,680,l),
(115,680,l),
(115,0,l),
(180,0,l),
(180,238,l),
(217,272,o),
(251,305,o),
(282,337,c),
(493,0,l)
);
}
);
width = 584;
},
{
anchors = (
{
name = bottom;
pos = (249,0);
},
{
name = top;
pos = (369,680);
}
);
layerId = "EEA6B9EF-1944-48F9-8F0D-85D16B14CE21";
shapes = (
{
closed = 1;
nodes = (
(529,0,l),
(354,378,l),
(459,478,o),
(541,574,o),
(617,680,c),
(542,680,l),
(456,555,o),
(341,438,o),
(193,316,c),
(257,680,l),
(192,680,l),
(72,0,l),
(137,0,l),
(179,237,l),
(223,272,o),
(265,306,o),
(303,340,c),
(456,0,l)
);
}
);
width = 583;
}
);
unicode = 75;
}
{
glyphname = L;
kernRight = L;
layers = (
{
anchors = (
{
name = bottom;
pos = (293,0);
},
{
name = center;
pos = (253,340);
},
{
name = top;
pos = (147,680);
},
{
name = topright;
pos = (233,680);
}
);
layerId = master01;
shapes = (
{
closed = 1;
nodes = (
(193,81,l),
(193,680,l),
(106,680,l),
(106,0,l),
(478,0,l),
(478,81,l)
);
}
);
width = 506;
},
{
anchors = (
{
name = bottom;
pos = (294,0);
},
{
name = center;
pos = (254,340);
},
{
name = top;
pos = (149,680);
},
{
name = topright;
pos = (254,680);
}
);
layerId = "D73FB141-FF25-4743-A62C-F58A1C57CDB9";
shapes = (
{
closed = 1;
nodes = (
(214,115,l),
(214,680,l),
(94,680,l),
(94,0,l),
(486,0,l),
(486,115,l)
);
}
);
width = 507;
},
{
anchors = (
{
name = bottom;
pos = (249,0);
},
{
name = center;
pos = (269,340);
},
{
name = top;
pos = (224,680);
},
{
name = topright;
pos = (329,680);
}
);
layerId = "7D2027AC-297A-4D58-8EA2-55B17EBAD0F9";
shapes = (
{
closed = 1;
nodes = (
(189,115,l),
(289,680,l),
(169,680,l),
(49,0,l),
(441,0,l),
(461,115,l)
);
}
);
width = 507;
},
{
anchors = (
{
name = bottom;
pos = (249,0);
},
{
name = center;
pos = (269,340);
},
{
name = top;
pos = (225,680);
},
{
name = topright;
pos = (309,680);
}
);
layerId = "C21AB58A-0F03-4AE0-976E-29AD56D058A6";
shapes = (
{
closed = 1;
nodes = (
(163,81,l),
(269,680,l),
(182,680,l),
(62,0,l),
(435,0,l),
(449,81,l)
);
}
);
width = 506;
},
{
anchors = (
{
name = bottom;
pos = (293,0);
},
{
name = center;
pos = (253,340);
},
{
name = top;
pos = (148,680);
},
{
name = topright;
pos = (220,680);
}
);
layerId = "552872BC-8C7A-453E-A7A0-DCEE3439D276";
shapes = (
{
closed = 1;
nodes = (
(180,59,l),
(180,680,l),
(115,680,l),
(115,0,l),
(474,0,l),
(474,59,l)
);
}
);
width = 506;
},
{
anchors = (
{
name = bottom;
pos = (250,0);
},
{
name = center;
pos = (270,340);
},
{
name = top;
pos = (225,680);
},
{
name = topright;
pos = (297,680);
}
);
layerId = "EEA6B9EF-1944-48F9-8F0D-85D16B14CE21";
shapes = (
{
closed = 1;
nodes = (
(147,59,l),
(257,680,l),
(192,680,l),
(72,0,l),
(431,0,l),
(441,59,l)
);
}
);
width = 506;
}
);
unicode = 76;
}
{
glyphname = M;
layers = (
{
anchors = (
{
name = bottom;
pos = (415,0);
},
{
name = top;
pos = (415,680);
}
);
layerId = master01;
shapes = (
{
closed = 1;
nodes = (
(106,680,l),
(106,0,l),
(191,0,l),
(191,291,l),
(180,555,l),
(371,80,l),
(453,80,l),
(648,553,l),
(637,291,l),
(637,0,l),
(722,0,l),
(722,680,l),
(623,680,l),
(415,176,l),
(208,680,l)
);
}
);
width = 829;
},
{
anchors = (
{
name = bottom;
pos = (415,0);
},
{
name = top;
pos = (415,680);
}
);
layerId = "D73FB141-FF25-4743-A62C-F58A1C57CDB9";
shapes = (
{
closed = 1;
nodes = (
(94,680,l),
(94,0,l),
(209,0,l),
(209,260,l),
(194,499,l),
(359,80,l),
(466,80,l),
(635,498,l),
(620,260,l),
(620,0,l),
(735,0,l),
(735,680,l),
(604,680,l),
(415,215,l),
(225,680,l)
);
}
);
width = 829;
},
{
anchors = (
{
name = bottom;
pos = (370,0);
},
{
name = top;
pos = (490,680);
}
);
layerId = "7D2027AC-297A-4D58-8EA2-55B17EBAD0F9";
shapes = (
{
closed = 1;
nodes = (
(169,680,l),
(49,0,l),
(164,0,l),
(210,260,l),
(237,498,l),
(328,80,l),
(435,80,l),
(677,492,l),
(621,260,l),
(575,0,l),
(690,0,l),
(810,680,l),
(677,680,l),
(403,212,l),
(295,680,l)
);
}
);
width = 829;
},
{
anchors = (
{
name = bottom;
pos = (371,0);
},
{
name = top;
pos = (491,680);
}
);
layerId = "C21AB58A-0F03-4AE0-976E-29AD56D058A6";
shapes = (
{
closed = 1;
nodes = (
(182,680,l),
(62,0,l),
(145,0,l),
(196,291,l),
(234,557,l),
(341,80,l),
(423,80,l),
(701,547,l),
(647,291,l),
(596,0,l),
(678,0,l),
(798,680,l),
(698,680,l),
(398,174,l),
(280,680,l)
);
}
);
width = 829;
},
{
anchors = (
{
name = bottom;
pos = (415,0);
},
{
name = top;
pos = (415,680);
}
);
layerId = "552872BC-8C7A-453E-A7A0-DCEE3439D276";
shapes = (
{
closed = 1;
nodes = (
(115,680,l),
(115,0,l),
(180,0,l),
(180,312,l),
(173,588,l),
(380,80,l),
(445,80,l),
(656,586,l),
(649,312,l),
(649,0,l),
(714,0,l),
(714,680,l),
(636,680,l),
(415,151,l),
(198,680,l)
);
}
);
width = 829;
},
{
anchors = (
{
name = bottom;
pos = (372,0);
},
{
name = top;
pos = (492,680);
}
);
layerId = "EEA6B9EF-1944-48F9-8F0D-85D16B14CE21";
shapes = (
{
closed = 1;
nodes = (
(192,680,l),
(72,0,l),
(133,0,l),
(188,312,l),
(233,591,l),
(351,80,l),
(416,80,l),
(716,580,l),
(665,312,l),
(610,0,l),
(671,0,l),
(791,680,l),
(712,680,l),
(395,151,l),
(271,680,l)
);
}
);
width = 829;
}
);
unicode = 77;
}
{
glyphname = N;
layers = (
{
anchors = (
{
name = bottom;
pos = (345,0);
},
{
name = top;
pos = (345,680);
}
);
layerId = master01;
shapes = (
{
closed = 1;
nodes = (
(191,0,l),
(191,278,l),
(185,555,l),
(302,379,o),
(398,195,o),
(492,0,c),
(583,0,l),
(583,680,l),
(498,680,l),
(498,404,l),
(508,144,l),
(418,335,o),
(318,507,o),
(197,680,c),
(106,680,l),
(106,0,l)
);
}
);
width = 690;
},
{
anchors = (
{
name = bottom;
pos = (342,0);
},
{
name = top;
pos = (342,680);
}
);
layerId = "D73FB141-FF25-4743-A62C-F58A1C57CDB9";
shapes = (
{
closed = 1;
nodes = (
(209,0,l),
(209,260,l),
(201,494,l),
(304,343,o),
(394,168,o),
(479,0,c),
(589,0,l),
(589,680,l),
(474,680,l),
(474,430,l),
(483,227,l),
(405,388,o),
(309,542,o),
(204,680,c),
(94,680,l),
(94,0,l)
);
}
);
width = 683;
},
{
anchors = (
{
name = bottom;
pos = (297,0);
},
{
name = top;
pos = (417,680);
}
);
layerId = "7D2027AC-297A-4D58-8EA2-55B17EBAD0F9";
shapes = (
{
closed = 1;
nodes = (
(164,0,l),
(210,260,l),
(244,501,l),
(316,344,o),
(377,187,o),
(434,0,c),
(544,0,l),
(664,680,l),
(549,680,l),
(503,420,l),
(477,209,l),
(420,376,o),
(365,506,o),
(279,680,c),
(169,680,l),
(49,0,l)
);
}
);
width = 683;
},
{
anchors = (
{
name = bottom;
pos = (301,0);
},
{
name = top;
pos = (421,680);
}
);
layerId = "C21AB58A-0F03-4AE0-976E-29AD56D058A6";
shapes = (
{
closed = 1;
nodes = (
(145,0,l),
(194,278,l),
(240,562,l),
(320,380,o),
(385,204,o),
(449,0,c),
(539,0,l),
(659,680,l),
(577,680,l),
(527,400,l),
(489,128,l),
(427,328,o),
(361,488,o),
(273,680,c),
(182,680,l),
(62,0,l)
);
}
);
width = 690;
},
{
anchors = (
{
name = bottom;
pos = (348,0);
},
{
name = top;
pos = (348,680);
}
);
layerId = "552872BC-8C7A-453E-A7A0-DCEE3439D276";
shapes = (
{
closed = 1;
nodes = (
(180,0,l),
(180,291,l),
(176,596,l),
(301,401,o),
(402,214,o),
(502,0,c),
(580,0,l),
(580,680,l),
(515,680,l),
(515,388,l),
(524,90,l),
(425,304,o),
(323,484,o),
(193,680,c),
(115,680,l),
(115,0,l)
);
}
);
width = 695;
},
{
anchors = (
{
name = bottom;
pos = (305,0);
},
{
name = top;
pos = (425,680);
}
);
layerId = "EEA6B9EF-1944-48F9-8F0D-85D16B14CE21";
shapes = (
{
closed = 1;
nodes = (
(133,0,l),
(184,291,l),
(239,603,l),
(324,405,o),
(392,216,o),
(459,0,c),
(537,0,l),
(657,680,l),
(596,680,l),
(544,388,l),
(497,77,l),
(431,298,o),
(359,479,o),
(270,680,c),
(192,680,l),
(72,0,l)
);
}
);
width = 695;
}
);
unicode = 78;
}
{
glyphname = O;
kernLeft = O;
kernRight = O;
layers = (
{
anchors = (
{
name = bottom;
pos = (324,0);
},
{
name = center;
pos = (324,340);
},
{
name = ogonek;
pos = (482,42);
},
{
name = top;
pos = (324,680);
},
{
name = topleft;
pos = (20,680);
},
{
name = topright;
pos = (627,680);
}
);
layerId = master01;
shapes = (
{
closed = 1;
nodes = (
(569,583,o),
(481,690,o),
(323,690,cs),
(164,690,o),
(77,583,o),
(77,415,cs),
(77,266,ls),
(77,97,o),
(164,-10,o),
(323,-10,cs),
(482,-10,o),
(569,97,o),
(569,266,cs),
(569,415,ls)
);
},
{
closed = 1;
nodes = (
(479,266,ls),
(479,141,o),
(426,70,o),
(323,70,cs),
(221,70,o),
(167,141,o),
(167,266,cs),
(167,415,ls),
(167,539,o),
(221,609,o),
(323,609,cs),
(426,609,o),
(479,539,o),
(479,415,cs)
);
}
);
width = 647;
},
{
anchors = (
{
name = bottom;
pos = (320,0);
},
{
name = center;
pos = (320,340);
},
{
name = ogonek;
pos = (487,43);
},
{
name = top;
pos = (320,680);
},
{
name = topleft;
pos = (20,680);
},
{
name = topright;
pos = (620,680);
}
);
layerId = "D73FB141-FF25-4743-A62C-F58A1C57CDB9";
shapes = (
{
closed = 1;
nodes = (
(575,585,o),
(487,690,o),
(320,690,cs),
(152,690,o),
(65,585,o),
(65,412,cs),
(65,269,ls),
(65,96,o),
(152,-10,o),
(320,-10,cs),
(487,-10,o),
(575,96,o),
(575,269,cs),
(575,412,ls)
);
},
{
closed = 1;
nodes = (
(452,269,ls),
(452,160,o),
(411,103,o),
(320,103,cs),
(229,103,o),
(188,160,o),
(188,269,cs),
(188,412,ls),
(188,521,o),
(229,577,o),
(320,577,cs),
(411,577,o),
(452,521,o),
(452,412,cs)
);
}
);
width = 640;
},
{
anchors = (
{
name = bottom;
pos = (275,0);
},
{
name = center;
pos = (335,340);
},
{
name = ogonek;
pos = (458,42);
},
{
name = top;
pos = (395,680);
},
{
name = topleft;
pos = (95,680);
},
{
name = topright;
pos = (695,680);
}
);
layerId = "7D2027AC-297A-4D58-8EA2-55B17EBAD0F9";
shapes = (
{
closed = 1;
nodes = (
(631,567,o),
(542,690,o),
(380,690,cs),
(215,690,o),
(123,580,o),
(91,402,cs),
(69,279,ls),
(39,110,o),
(128,-10,o),
(291,-10,cs),
(455,-10,o),
(546,97,o),
(579,279,cs),
(601,402,ls)
);
},
{
closed = 1;
nodes = (
(456,279,ls),
(436,167,o),
(387,103,o),
(297,103,cs),
(206,103,o),
(173,170,o),
(192,279,cs),
(214,402,ls),
(233,510,o),
(284,577,o),
(372,577,cs),
(464,577,o),
(497,507,o),
(478,402,cs)
);
}
);
width = 640.12208;
},
{
anchors = (
{
name = bottom;
pos = (280,0);
},
{
name = center;
pos = (340,340);
},
{
name = ogonek;
pos = (454,41);
},
{
name = top;
pos = (400,680);
},
{
name = topleft;
pos = (96,680);
},
{
name = topright;
pos = (703,680);
}
);
layerId = "C21AB58A-0F03-4AE0-976E-29AD56D058A6";
shapes = (
{
closed = 1;
nodes = (
(627,570,o),
(543,690,o),
(384,690,cs),
(230,690,o),
(136,584,o),
(107,417,cs),
(83,282,ls),
(52,108,o),
(135,-10,o),
(295,-10,cs),
(448,-10,o),
(542,94,o),
(573,264,cs),
(596,399,ls)
);
},
{
closed = 1;
nodes = (
(483,264,ls),
(461,142,o),
(397,70,o),
(298,70,cs),
(193,70,o),
(150,150,o),
(173,282,cs),
(197,417,ls),
(218,537,o),
(282,609,o),
(380,609,cs),
(485,609,o),
(529,529,o),
(506,399,cs)
);
}
);
width = 647;
},
{
anchors = (
{
name = bottom;
pos = (326,0);
},
{
name = center;
pos = (326,340);
},
{
name = ogonek;
pos = (479,40);
},
{
name = top;
pos = (326,680);
},
{
name = topleft;
pos = (20,680);
},
{
name = topright;
pos = (632,680);
}
);
layerId = "552872BC-8C7A-453E-A7A0-DCEE3439D276";
shapes = (
{
closed = 1;
nodes = (
(566,582,o),
(478,690,o),
(326,690,cs),
(173,690,o),
(86,582,o),
(86,417,cs),
(86,264,ls),
(86,98,o),
(172,-10,o),
(326,-10,cs),
(479,-10,o),
(566,98,o),
(566,264,cs),
(566,417,ls)
);
},
{
closed = 1;
nodes = (
(498,264,ls),
(498,130,o),
(436,49,o),
(326,49,cs),
(216,49,o),
(154,130,o),
(154,264,cs),
(154,417,ls),
(154,552,o),
(216,631,o),
(326,631,cs),
(436,631,o),
(498,552,o),
(498,417,cs)
);
}
);
width = 652;
},
{
anchors = (
{
name = bottom;
pos = (284,0);
},
{
name = center;
pos = (344,340);
},
{
name = ogonek;
pos = (450,38);
},
{
name = top;
pos = (404,680);
},
{
name = topleft;
pos = (97,680);
},
{
name = topright;
pos = (710,680);
}
);
layerId = "EEA6B9EF-1944-48F9-8F0D-85D16B14CE21";
shapes = (
{
closed = 1;
nodes = (
(625,573,o),
(544,690,o),
(387,690,cs),
(242,690,o),
(146,588,o),
(118,427,cs),
(93,284,ls),
(62,107,o),
(140,-10,o),
(299,-10,cs),
(444,-10,o),
(541,92,o),
(569,254,cs),
(594,397,ls)
);
},
{
closed = 1;
nodes = (
(501,254,ls),
(479,126,o),
(404,49,o),
(300,49,cs),
(186,49,o),
(135,138,o),
(161,284,cs),
(186,427,ls),
(209,556,o),
(282,631,o),
(386,631,cs),
(499,631,o),
(552,544,o),
(526,397,cs)
);
}
);
width = 653.21592;
}
);
unicode = 79;
}
{
glyphname = P;
kernRight = P;
layers = (
{
layerId = master01;
shapes = (
{
closed = 1;
nodes = (
(193,0,l),
(193,248,l),
(318,248,ls),
(449,248,o),
(519,323,o),
(519,438,cs),
(519,491,ls),
(519,605,o),
(449,680,o),
(318,680,cs),
(106,680,l),
(106,0,l)
);
},
{
closed = 1;
nodes = (
(390,598,o),
(429,558,o),
(429,491,cs),
(429,438,ls),
(429,370,o),
(390,329,o),
(318,329,cs),
(193,329,l),
(193,598,l),
(318,598,ls)
);
}
);
width = 564;
},
{
layerId = "D73FB141-FF25-4743-A62C-F58A1C57CDB9";
shapes = (
{
closed = 1;
nodes = (
(214,0,l),
(214,230,l),
(318,230,ls),
(461,230,o),
(532,309,o),
(532,429,cs),
(532,482,ls),
(532,602,o),
(461,680,o),
(318,680,cs),
(94,680,l),
(94,0,l)
);
},
{
closed = 1;
nodes = (
(377,565,o),
(409,534,o),
(409,482,cs),
(409,429,ls),
(409,376,o),
(377,345,o),
(318,345,cs),
(214,345,l),
(214,565,l),
(318,565,ls)
);
}
);
width = 574;
},
{
layerId = "7D2027AC-297A-4D58-8EA2-55B17EBAD0F9";
shapes = (
{
closed = 1;
nodes = (
(169,0,l),
(210,230,l),
(327,230,ls),
(468,230,o),
(543,302,o),
(561,414,cs),
(570,470,ls),
(590,596,o),
(522,680,o),
(380,680,cs),
(169,680,l),
(49,0,l)
);
},
{
closed = 1;
nodes = (
(431,565,o),
(458,530,o),
(448,472,cs),
(439,419,ls),
(431,372,o),
(392,345,o),
(334,345,cs),
(230,345,l),
(269,565,l),
(373,565,ls)
);
}
);
width = 575.0364;
},
{
layerId = "C21AB58A-0F03-4AE0-976E-29AD56D058A6";
shapes = (
{
closed = 1;
nodes = (
(149,0,l),
(193,248,l),
(329,248,ls),
(460,248,o),
(532,316,o),
(551,426,cs),
(561,480,ls),
(581,594,o),
(519,680,o),
(383,680,cs),
(182,680,l),
(62,0,l)
);
},
{
closed = 1;
nodes = (
(452,598,o),
(485,554,o),
(471,481,cs),
(461,428,ls),
(450,366,o),
(404,329,o),
(332,329,cs),
(207,329,l),
(255,598,l),
(379,598,ls)
);
}
);
width = 565;
},
{
layerId = "552872BC-8C7A-453E-A7A0-DCEE3439D276";
shapes = (
{
closed = 1;
nodes = (
(180,0,l),
(180,260,l),
(318,260,ls),
(441,260,o),
(511,333,o),
(511,444,cs),
(511,497,ls),
(511,608,o),
(441,680,o),
(318,680,cs),
(115,680,l),
(115,0,l)
);
},
{
closed = 1;
nodes = (
(400,621,o),
(443,574,o),
(443,497,cs),
(443,444,ls),
(443,366,o),
(400,319,o),
(318,319,cs),
(180,319,l),
(180,621,l),
(318,621,ls)
);
}
);
width = 558;
},
{
layerId = "EEA6B9EF-1944-48F9-8F0D-85D16B14CE21";
shapes = (
{
closed = 1;
nodes = (
(137,0,l),
(183,260,l),
(331,260,ls),
(455,260,o),
(525,326,o),
(545,434,cs),
(555,487,ls),
(575,594,o),
(518,680,o),
(385,680,cs),
(192,680,l),
(72,0,l)
);
},
{
closed = 1;
nodes = (
(466,621,o),
(503,570,o),
(487,487,cs),
(477,434,ls),
(463,362,o),
(413,319,o),
(331,319,cs),
(193,319,l),
(247,621,l),
(384,621,ls)
);
}
);
width = 559.1419;
}
);
unicode = 80;
}
{
glyphname = Q;
kernLeft = O;
kernRight = O;
layers = (
{
layerId = master01;
shapes = (
{
closed = 1;
nodes = (
(466,-92,o),
(436,-76,o),
(408,2,c),
(408,2,l),
(513,34,o),
(569,130,o),
(569,266,cs),
(569,415,ls),
(569,583,o),
(481,690,o),
(323,690,cs),
(164,690,o),
(77,583,o),
(77,415,cs),
(77,266,ls),
(77,97,o),
(164,-10,o),
(323,-10,cs),
(326,-10,l),
(337,-42,ls),
(373,-139,o),
(432,-183,o),
(562,-183,c),
(562,-94,l)
);
},
{
closed = 1;
nodes = (
(479,266,ls),
(479,141,o),
(426,70,o),
(323,70,cs),
(221,70,o),
(167,141,o),
(167,266,cs),
(167,415,ls),
(167,539,o),
(221,609,o),
(323,609,cs),
(426,609,o),
(479,539,o),
(479,415,cs)
);
}
);
width = 647;
},
{
layerId = "D73FB141-FF25-4743-A62C-F58A1C57CDB9";
shapes = (
{
closed = 1;
nodes = (
(470,-73,o),
(437,-59,o),
(419,5,c),
(419,5,l),
(521,40,o),
(575,134,o),
(575,269,cs),
(575,412,ls),
(575,585,o),
(487,690,o),
(320,690,cs),
(152,690,o),
(65,585,o),
(65,412,cs),
(65,269,ls),
(65,100,o),
(148,-5,o),
(307,-10,c),
(307,-10,l),
(319,-45,ls),
(352,-143,o),
(404,-198,o),
(560,-198,c),
(560,-73,l)
);
},
{
closed = 1;
nodes = (
(452,269,ls),
(452,160,o),
(411,103,o),
(320,103,cs),
(229,103,o),
(188,160,o),
(188,269,cs),
(188,412,ls),
(188,521,o),
(229,577,o),
(320,577,cs),
(411,577,o),
(452,521,o),
(452,412,cs)
);
}
);
width = 640;
},
{
layerId = "7D2027AC-297A-4D58-8EA2-55B17EBAD0F9";
shapes = (
{
closed = 1;
nodes = (
(414,-73,o),
(386,-59,o),
(377,1,c),
(377,1,l),
(488,34,o),
(552,132,o),
(579,279,cs),
(601,402,ls),
(631,567,o),
(542,690,o),
(380,690,cs),
(215,690,o),
(123,580,o),
(91,402,cs),
(69,279,ls),
(41,118,o),
(119,2,o),
(265,-10,c),
(265,-10,l),
(268,-27,ls),
(285,-124,o),
(334,-198,o),
(481,-198,c),
(503,-73,l)
);
},
{
closed = 1;
nodes = (
(456,279,ls),
(436,167,o),
(387,103,o),
(297,103,cs),
(206,103,o),
(173,170,o),
(192,279,cs),
(214,402,ls),
(233,510,o),
(284,577,o),
(372,577,cs),
(464,577,o),
(497,507,o),
(478,402,cs)
);
}
);
width = 640.12208;
},
{
layerId = "C21AB58A-0F03-4AE0-976E-29AD56D058A6";
shapes = (
{
closed = 1;
nodes = (
(408,-92,o),
(381,-79,o),
(366,-2,c),
(366,-2,l),
(477,26,o),
(548,122,o),
(573,264,cs),
(596,399,ls),
(627,570,o),
(543,690,o),
(384,690,cs),
(231,690,o),
(136,584,o),
(107,417,cs),
(83,282,ls),
(53,113,o),
(130,-3,o),
(281,-10,c),
(281,-10,l),
(286,-32,ls),
(309,-131,o),
(364,-183,o),
(486,-183,c),
(502,-94,l)
);
},
{
closed = 1;
nodes = (
(483,264,ls),
(461,142,o),
(397,70,o),
(298,70,cs),
(194,70,o),
(150,150,o),
(173,282,cs),
(197,417,ls),
(218,537,o),
(282,609,o),
(380,609,cs),
(485,609,o),
(530,529,o),
(506,399,cs)
);
}
);
width = 647;
},
{
layerId = "552872BC-8C7A-453E-A7A0-DCEE3439D276";
shapes = (
{
closed = 1;
nodes = (
(469,-106,o),
(439,-91,o),
(404,-9,cs),
(400,0,l),
(507,30,o),
(566,127,o),
(566,264,cs),
(566,417,ls),
(566,582,o),
(478,690,o),
(326,690,cs),
(173,690,o),
(86,582,o),
(86,417,cs),
(86,264,ls),
(86,98,o),
(172,-10,o),
(326,-10,cs),
(338,-10,l),
(350,-40,ls),
(389,-138,o),
(452,-173,o),
(564,-173,c),
(564,-108,l)
);
},
{
closed = 1;
nodes = (
(498,264,ls),
(498,130,o),
(436,49,o),
(326,49,cs),
(216,49,o),
(154,130,o),
(154,264,cs),
(154,417,ls),
(154,552,o),
(216,631,o),
(326,631,cs),
(436,631,o),
(498,552,o),
(498,417,cs)
);
}
);
width = 652;
},
{
layerId = "EEA6B9EF-1944-48F9-8F0D-85D16B14CE21";
shapes = (
{
closed = 1;
nodes = (
(407,-106,o),
(380,-95,o),
(359,-9,cs),
(358,-4,l),
(470,20,o),
(545,115,o),
(569,254,cs),
(594,397,ls),
(625,573,o),
(544,690,o),
(387,690,cs),
(242,690,o),
(146,588,o),
(118,427,cs),
(93,284,ls),
(62,110,o),
(138,-7,o),
(292,-10,c),
(292,-10,l),
(298,-36,ls),
(322,-138,o),
(385,-173,o),
(490,-173,c),
(502,-108,l)
);
},
{
closed = 1;
nodes = (
(501,254,ls),
(479,126,o),
(404,49,o),
(300,49,cs),
(186,49,o),
(135,138,o),
(161,284,cs),
(186,427,ls),
(209,556,o),
(282,631,o),
(386,631,cs),
(499,631,o),
(552,544,o),
(526,397,cs)
);
}
);
width = 653.21592;
}
);
unicode = 81;
}
{
glyphname = R;
kernRight = R;
layers = (
{
anchors = (
{
name = bottom;
pos = (301,0);
},
{
name = top;
pos = (301,680);
}
);
layerId = master01;
shapes = (
{
closed = 1;
nodes = (
(329,266,l),
(380,179,o),
(424,91,o),
(462,0,c),
(562,0,l),
(520,96,o),
(471,191,o),
(414,283,c),
(482,311,o),
(520,372,o),
(520,452,cs),
(520,495,ls),
(520,607,o),
(447,680,o),
(319,680,cs),
(106,680,l),
(106,0,l),
(193,0,l),
(193,266,l)
);
},
{
closed = 1;
nodes = (
(387,600,o),
(430,561,o),
(430,495,cs),
(430,452,ls),
(430,386,o),
(387,346,o),
(319,346,cs),
(193,346,l),
(193,600,l),
(319,600,ls)
);
}
);
width = 601;
},
{
anchors = (
{
name = bottom;
pos = (305,0);
},
{
name = top;
pos = (305,680);
}
);
layerId = "D73FB141-FF25-4743-A62C-F58A1C57CDB9";
shapes = (
{
closed = 1;
nodes = (
(322,250,l),
(368,167,o),
(408,83,o),
(441,0,c),
(578,0,l),
(539,91,o),
(492,183,o),
(438,275,c),
(501,306,o),
(535,366,o),
(535,444,cs),
(535,487,ls),
(535,604,o),
(458,680,o),
(321,680,cs),
(94,680,l),
(94,0,l),
(214,0,l),
(214,250,l)
);
},
{
closed = 1;
nodes = (
(380,570,o),
(412,538,o),
(412,487,cs),
(412,444,ls),
(412,392,o),
(380,360,o),
(321,360,cs),
(214,360,l),
(214,570,l),
(321,570,ls)
);
}
);
width = 609;
},
{
anchors = (
{
name = bottom;
pos = (260,0);
},
{
name = top;
pos = (380,680);
}
);
layerId = "7D2027AC-297A-4D58-8EA2-55B17EBAD0F9";
shapes = (
{
closed = 1;
nodes = (
(328,250,l),
(360,167,o),
(385,83,o),
(403,0,c),
(533,0,l),
(511,90,o),
(481,180,o),
(443,270,c),
(509,298,o),
(552,353,o),
(566,428,cs),
(574,473,ls),
(595,591,o),
(528,680,o),
(383,680,cs),
(169,680,l),
(49,0,l),
(169,0,l),
(213,250,l)
);
},
{
closed = 1;
nodes = (
(435,570,o),
(463,536,o),
(452,478,cs),
(444,435,ls),
(435,389,o),
(398,360,o),
(339,360,cs),
(233,360,l),
(270,570,l),
(377,570,ls)
);
}
);
width = 609;
},
{
anchors = (
{
name = bottom;
pos = (257,0);
},
{
name = top;
pos = (377,680);
}
);
layerId = "C21AB58A-0F03-4AE0-976E-29AD56D058A6";
shapes = (
{
closed = 1;
nodes = (
(337,266,l),
(373,179,o),
(403,90,o),
(424,0,c),
(518,0,l),
(494,95,o),
(462,189,o),
(422,280,c),
(495,304,o),
(542,362,o),
(555,440,cs),
(562,483,ls),
(582,599,o),
(511,680,o),
(384,680,cs),
(182,680,l),
(62,0,l),
(149,0,l),
(196,266,l)
);
},
{
closed = 1;
nodes = (
(449,600,o),
(485,558,o),
(473,485,cs),
(465,442,ls),
(454,381,o),
(405,346,o),
(336,346,cs),
(210,346,l),
(255,600,l),
(381,600,ls)
);
}
);
width = 601;
},
{
anchors = (
{
name = bottom;
pos = (299,0);
},
{
name = top;
pos = (299,680);
}
);
layerId = "552872BC-8C7A-453E-A7A0-DCEE3439D276";
shapes = (
{
closed = 1;
nodes = (
(333,278,l),
(387,189,o),
(436,96,o),
(476,0,c),
(552,0,l),
(508,100,o),
(457,198,o),
(398,290,c),
(471,315,o),
(511,376,o),
(511,458,cs),
(511,501,ls),
(511,610,o),
(441,680,o),
(318,680,cs),
(115,680,l),
(115,0,l),
(180,0,l),
(180,278,l)
);
},
{
closed = 1;
nodes = (
(393,621,o),
(443,577,o),
(443,501,cs),
(443,458,ls),
(443,383,o),
(393,337,o),
(318,337,cs),
(180,337,l),
(180,621,l),
(318,621,ls)
);
}
);
width = 597;
},
{
anchors = (
{
name = bottom;
pos = (256,0);
},
{
name = top;
pos = (376,680);
}
);
layerId = "EEA6B9EF-1944-48F9-8F0D-85D16B14CE21";
shapes = (
{
closed = 1;
nodes = (
(343,278,l),
(382,189,o),
(416,96,o),
(439,0,c),
(509,0,l),
(484,99,o),
(450,196,o),
(407,287,c),
(486,309,o),
(535,368,o),
(548,448,cs),
(555,491,ls),
(574,605,o),
(500,680,o),
(386,680,cs),
(192,680,l),
(72,0,l),
(137,0,l),
(186,278,l)
);
},
{
closed = 1;
nodes = (
(459,621,o),
(500,573,o),
(487,491,cs),
(480,448,ls),
(468,376,o),
(411,337,o),
(334,337,cs),
(196,337,l),
(247,621,l),
(384,621,ls)
);
}
);
width = 597;
}
);
unicode = 82;
}
{
glyphname = S;
kernLeft = S;
kernRight = S;
layers = (
{
anchors = (
{
name = bottom;
pos = (253,0);
},
{
name = top;
pos = (253,680);
}
);
layerId = master01;
shapes = (
{
closed = 1;
nodes = (
(187,68,o),
(135,80,o),
(64,112,c),
(37,38,l),
(111,4,o),
(182,-10,o),
(245,-10,cs),
(398,-10,o),
(464,68,o),
(464,183,cs),
(464,283,o),
(413,347,o),
(312,377,cs),
(231,401,ls),
(159,423,o),
(135,458,o),
(135,510,cs),
(135,582,o),
(179,611,o),
(255,611,cs),
(302,611,o),
(351,599,o),
(415,571,c),
(443,646,l),
(377,676,o),
(313,690,o),
(253,690,cs),
(104,690,o),
(47,607,o),
(47,504,cs),
(47,413,o),
(93,350,o),
(195,320,cs),
(276,296,ls),
(347,275,o),
(376,235,o),
(376,176,cs),
(376,105,o),
(329,68,o),
(245,68,cs)
);
}
);
width = 506;
},
{
anchors = (
{
name = bottom;
pos = (259,0);
},
{
name = top;
pos = (259,680);
}
);
layerId = "D73FB141-FF25-4743-A62C-F58A1C57CDB9";
shapes = (
{
closed = 1;
nodes = (
(191,101,o),
(144,112,o),
(69,144,c),
(32,41,l),
(113,4,o),
(180,-10,o),
(244,-10,cs),
(406,-10,o),
(480,71,o),
(480,191,cs),
(480,295,o),
(430,356,o),
(331,389,cs),
(249,416,ls),
(191,435,o),
(169,460,o),
(169,503,cs),
(169,560,o),
(206,579,o),
(268,579,cs),
(314,579,o),
(354,568,o),
(418,543,c),
(455,646,l),
(386,676,o),
(327,690,o),
(264,690,cs),
(115,690,o),
(47,609,o),
(47,497,cs),
(47,399,o),
(96,336,o),
(194,304,cs),
(276,277,ls),
(338,257,o),
(358,233,o),
(358,187,cs),
(358,128,o),
(319,101,o),
(242,101,cs)
);
}
);
width = 518;
},
{
anchors = (
{
name = bottom;
pos = (214,0);
},
{
name = top;
pos = (334,680);
}
);
layerId = "7D2027AC-297A-4D58-8EA2-55B17EBAD0F9";
shapes = (
{
closed = 1;
nodes = (
(156,101,o),
(113,112,o),
(44,144,c),
(2,41,l),
(78,4,o),
(142,-10,o),
(211,-10,cs),
(395,-10,o),
(467,89,o),
(467,204,cs),
(467,295,o),
(423,347,o),
(348,381,cs),
(275,414,ls),
(227,436,o),
(209,456,o),
(209,492,cs),
(209,549,o),
(248,579,o),
(322,579,cs),
(367,579,o),
(404,567,o),
(461,543,c),
(503,646,l),
(437,675,o),
(383,690,o),
(322,690,cs),
(157,690,o),
(83,599,o),
(83,481,cs),
(83,395,o),
(123,343,o),
(201,308,cs),
(274,275,ls),
(321,254,o),
(341,231,o),
(341,194,cs),
(341,139,o),
(301,101,o),
(211,101,cs)
);
}
);
width = 518;
},
{
anchors = (
{
name = bottom;
pos = (209,0);
},
{
name = top;
pos = (329,680);
}
);
layerId = "C21AB58A-0F03-4AE0-976E-29AD56D058A6";
shapes = (
{
closed = 1;
nodes = (
(153,68,o),
(102,81,o),
(35,113,c),
(5,38,l),
(75,4,o),
(142,-10,o),
(208,-10,cs),
(384,-10,o),
(450,87,o),
(450,193,cs),
(450,281,o),
(405,333,o),
(328,367,cs),
(257,399,ls),
(199,425,o),
(177,453,o),
(177,498,cs),
(177,567,o),
(224,611,o),
(313,611,cs),
(362,611,o),
(408,598,o),
(465,571,c),
(495,646,l),
(434,676,o),
(374,690,o),
(313,690,cs),
(153,690,o),
(87,600,o),
(87,493,cs),
(87,412,o),
(124,360,o),
(206,324,cs),
(278,292,ls),
(334,267,o),
(359,235,o),
(359,186,cs),
(359,114,o),
(307,68,o),
(208,68,cs)
);
}
);
width = 506;
},
{
anchors = (
{
name = bottom;
pos = (250,0);
},
{
name = top;
pos = (250,680);
}
);
layerId = "552872BC-8C7A-453E-A7A0-DCEE3439D276";
shapes = (
{
closed = 1;
nodes = (
(185,47,o),
(130,59,o),
(62,91,c),
(41,36,l),
(111,4,o),
(184,-10,o),
(247,-10,cs),
(393,-10,o),
(454,67,o),
(454,178,cs),
(454,275,o),
(402,342,o),
(300,370,cs),
(220,392,ls),
(138,415,o),
(113,457,o),
(113,515,cs),
(113,597,o),
(161,633,o),
(247,633,cs),
(295,633,o),
(349,620,o),
(413,590,c),
(435,646,l),
(371,676,o),
(304,690,o),
(247,690,cs),
(97,690,o),
(47,606,o),
(47,510,cs),
(47,423,o),
(91,360,o),
(196,331,cs),
(276,309,ls),
(354,288,o),
(388,236,o),
(388,170,cs),
(388,90,o),
(336,47,o),
(247,47,cs)
);
}
);
width = 499;
},
{
anchors = (
{
name = bottom;
pos = (206,0);
},
{
name = top;
pos = (326,680);
}
);
layerId = "EEA6B9EF-1944-48F9-8F0D-85D16B14CE21";
shapes = (
{
closed = 1;
nodes = (
(152,47,o),
(95,61,o),
(30,93,c),
(8,36,l),
(73,4,o),
(143,-10,o),
(207,-10,cs),
(377,-10,o),
(440,87,o),
(440,187,cs),
(440,273,o),
(394,325,o),
(316,359,cs),
(245,390,ls),
(181,418,o),
(157,452,o),
(157,503,cs),
(157,580,o),
(208,633,o),
(307,633,cs),
(360,633,o),
(411,620,o),
(469,590,c),
(491,647,l),
(433,677,o),
(369,690,o),
(307,690,cs),
(151,690,o),
(90,601,o),
(90,501,cs),
(90,424,o),
(125,372,o),
(210,335,cs),
(281,304,ls),
(343,277,o),
(372,239,o),
(372,182,cs),
(372,98,o),
(312,47,o),
(207,47,cs)
);
}
);
width = 498.54969;
}
);
unicode = 83;
}
{
glyphname = T;
kernLeft = T;
kernRight = T;
layers = (
{
anchors = (
{
name = bottom;
pos = (255,0);
},
{
name = center;
pos = (255,340);
},
{
name = top;
pos = (255,680);
}
);
layerId = master01;
shapes = (
{
closed = 1;
nodes = (
(211,598,l),
(211,0,l),
(298,0,l),
(298,598,l),
(496,598,l),
(496,680,l),
(13,680,l),
(13,598,l)
);
}
);
width = 509;
},
{
anchors = (
{
name = bottom;
pos = (263,0);
},
{
name = center;
pos = (263,340);
},
{
name = top;
pos = (263,680);
}
);
layerId = "D73FB141-FF25-4743-A62C-F58A1C57CDB9";
shapes = (
{
closed = 1;
nodes = (
(203,565,l),
(203,0,l),
(323,0,l),
(323,565,l),
(513,565,l),
(513,680,l),
(13,680,l),
(13,565,l)
);
}
);
width = 526;
},
{
anchors = (
{
name = bottom;
pos = (218,0);
},
{
name = center;
pos = (278,340);
},
{
name = top;
pos = (338,680);
}
);
layerId = "7D2027AC-297A-4D58-8EA2-55B17EBAD0F9";
shapes = (
{
closed = 1;
nodes = (
(258,565,l),
(158,0,l),
(278,0,l),
(378,565,l),
(568,565,l),
(588,680,l),
(88,680,l),
(68,565,l)
);
}
);
width = 526;
},
{
anchors = (
{
name = bottom;
pos = (211,0);
},
{
name = center;
pos = (271,340);
},
{
name = top;
pos = (331,680);
}
);
layerId = "C21AB58A-0F03-4AE0-976E-29AD56D058A6";
shapes = (
{
closed = 1;
nodes = (
(273,598,l),
(167,0,l),
(254,0,l),
(360,598,l),
(558,598,l),
(572,680,l),
(89,680,l),
(74,598,l)
);
}
);
width = 509;
},
{
anchors = (
{
name = bottom;
pos = (250,0);
},
{
name = center;
pos = (250,340);
},
{
name = top;
pos = (250,680);
}
);
layerId = "552872BC-8C7A-453E-A7A0-DCEE3439D276";
shapes = (
{
closed = 1;
nodes = (
(217,621,l),
(217,0,l),
(282,0,l),
(282,621,l),
(486,621,l),
(486,680,l),
(13,680,l),
(13,621,l)
);
}
);
width = 499;
},
{
anchors = (
{
name = bottom;
pos = (207,0);
},
{
name = center;
pos = (267,340);
},
{
name = top;
pos = (327,680);
}
);
layerId = "EEA6B9EF-1944-48F9-8F0D-85D16B14CE21";
shapes = (
{
closed = 1;
nodes = (
(283,621,l),
(174,0,l),
(239,0,l),
(348,621,l),
(552,621,l),
(563,680,l),
(90,680,l),
(79,621,l)
);
}
);
width = 499;
}
);
unicode = 84;
}
{
glyphname = U;
kernLeft = U;
kernRight = U;
layers = (
{
anchors = (
{
name = bottom;
pos = (324,0);
},
{
name = ogonek;
pos = (479,39);
},
{
name = top;
pos = (324,680);
},
{
name = topright;
pos = (628,680);
}
);
layerId = master01;
shapes = (
{
closed = 1;
nodes = (
(92,244,ls),
(92,85,o),
(168,-10,o),
(324,-10,cs),
(479,-10,o),
(556,85,o),
(556,244,cs),
(556,680,l),
(466,680,l),
(466,244,ls),
(466,135,o),
(423,70,o),
(324,70,cs),
(226,70,o),
(182,135,o),
(182,244,cs),
(182,680,l),
(92,680,l)
);
}
);
width = 648;
},
{
anchors = (
{
name = bottom;
pos = (323,0);
},
{
name = ogonek;
pos = (487,41);
},
{
name = top;
pos = (323,680);
},
{
name = topright;
pos = (626,680);
}
);
layerId = "D73FB141-FF25-4743-A62C-F58A1C57CDB9";
shapes = (
{
closed = 1;
nodes = (
(78,244,ls),
(78,90,o),
(158,-10,o),
(323,-10,cs),
(487,-10,o),
(568,90,o),
(568,244,cs),
(568,680,l),
(445,680,l),
(445,244,ls),
(445,156,o),
(408,103,o),
(323,103,cs),
(238,103,o),
(201,156,o),
(201,244,cs),
(201,680,l),
(78,680,l)
);
}
);
width = 646;
},
{
anchors = (
{
name = bottom;
pos = (278,0);
},
{
name = ogonek;
pos = (466,45);
},
{
name = top;
pos = (398,680);
},
{
name = topright;
pos = (701,680);
}
);
layerId = "7D2027AC-297A-4D58-8EA2-55B17EBAD0F9";
shapes = (
{
closed = 1;
nodes = (
(76,244,ls),
(50,94,o),
(130,-10,o),
(292,-10,cs),
(465,-10,o),
(539,93,o),
(566,244,cs),
(643,680,l),
(520,680,l),
(443,244,ls),
(428,156,o),
(381,103,o),
(296,103,cs),
(211,103,o),
(184,157,o),
(199,244,cs),
(276,680,l),
(153,680,l)
);
}
);
width = 646;
},
{
anchors = (
{
name = bottom;
pos = (280,0);
},
{
name = ogonek;
pos = (459,46);
},
{
name = top;
pos = (400,680);
},
{
name = topright;
pos = (704,680);
}
);
layerId = "C21AB58A-0F03-4AE0-976E-29AD56D058A6";
shapes = (
{
closed = 1;
nodes = (
(91,244,ls),
(66,100,o),
(136,-10,o),
(293,-10,cs),
(448,-10,o),
(527,88,o),
(555,244,cs),
(632,680,l),
(542,680,l),
(465,244,ls),
(446,133,o),
(391,70,o),
(296,70,cs),
(194,70,o),
(164,144,o),
(181,244,cs),
(258,680,l),
(168,680,l)
);
}
);
width = 648;
},
{
anchors = (
{
name = bottom;
pos = (325,0);
},
{
name = ogonek;
pos = (474,40);
},
{
name = top;
pos = (325,680);
},
{
name = topright;
pos = (630,680);
}
);
layerId = "552872BC-8C7A-453E-A7A0-DCEE3439D276";
shapes = (
{
closed = 1;
nodes = (
(102,244,ls),
(102,83,o),
(176,-10,o),
(325,-10,cs),
(474,-10,o),
(548,83,o),
(548,244,cs),
(548,680,l),
(480,680,l),
(480,244,ls),
(480,122,o),
(433,49,o),
(325,49,cs),
(218,49,o),
(170,122,o),
(170,244,cs),
(170,680,l),
(102,680,l)
);
}
);
width = 650;
},
{
anchors = (
{
name = bottom;
pos = (282,0);
},
{
name = ogonek;
pos = (447,41);
},
{
name = top;
pos = (402,680);
},
{
name = topright;
pos = (707,680);
}
);
layerId = "EEA6B9EF-1944-48F9-8F0D-85D16B14CE21";
shapes = (
{
closed = 1;
nodes = (
(102,244,ls),
(77,104,o),
(140,-10,o),
(295,-10,cs),
(438,-10,o),
(520,86,o),
(548,244,cs),
(625,680,l),
(557,680,l),
(480,244,ls),
(458,118,o),
(399,49,o),
(297,49,cs),
(184,49,o),
(151,136,o),
(170,244,cs),
(247,680,l),
(179,680,l)
);
}
);
width = 650;
}
);
unicode = 85;
}
{
glyphname = V;
layers = (
{
anchors = (
{
name = bottom;
pos = (282,0);
},
{
name = top;
pos = (282,680);
}
);
layerId = master01;
shapes = (
{
closed = 1;
nodes = (
(457,680,l),
(351,336,l),
(285,117,l),
(220,335,l),
(112,680,l),
(20,680,l),
(238,0,l),
(326,0,l),
(543,680,l)
);
}
);
width = 563;
},
{
anchors = (
{
name = bottom;
pos = (292,0);
},
{
name = top;
pos = (292,680);
}
);
layerId = "D73FB141-FF25-4743-A62C-F58A1C57CDB9";
shapes = (
{
closed = 1;
nodes = (
(448,680,l),
(346,339,l),
(296,162,l),
(249,338,l),
(146,680,l),
(14,680,l),
(231,0,l),
(354,0,l),
(570,680,l)
);
}
);
width = 584;
},
{
anchors = (
{
name = bottom;
pos = (247,0);
},
{
name = top;
pos = (367,680);
}
);
layerId = "7D2027AC-297A-4D58-8EA2-55B17EBAD0F9";
shapes = (
{
closed = 1;
nodes = (
(515,680,l),
(353,339,l),
(272,161,l),
(256,338,l),
(213,680,l),
(89,680,l),
(186,0,l),
(309,0,l),
(645,680,l)
);
}
);
width = 584;
},
{
anchors = (
{
name = bottom;
pos = (238,0);
},
{
name = top;
pos = (358,680);
}
);
layerId = "C21AB58A-0F03-4AE0-976E-29AD56D058A6";
shapes = (
{
closed = 1;
nodes = (
(527,680,l),
(360,336,l),
(256,118,l),
(231,335,l),
(184,680,l),
(96,680,l),
(194,0,l),
(282,0,l),
(619,680,l)
);
}
);
width = 563;
},
{
anchors = (
{
name = bottom;
pos = (275,0);
},
{
name = top;
pos = (275,680);
}
);
layerId = "552872BC-8C7A-453E-A7A0-DCEE3439D276";
shapes = (
{
closed = 1;
nodes = (
(464,680,l),
(355,334,l),
(278,90,l),
(201,334,l),
(90,680,l),
(24,680,l),
(243,0,l),
(308,0,l),
(526,680,l)
);
}
);
width = 550;
},
{
anchors = (
{
name = bottom;
pos = (232,0);
},
{
name = top;
pos = (352,680);
}
);
layerId = "EEA6B9EF-1944-48F9-8F0D-85D16B14CE21";
shapes = (
{
closed = 1;
nodes = (
(536,680,l),
(366,334,l),
(248,93,l),
(215,334,l),
(166,680,l),
(101,680,l),
(200,0,l),
(265,0,l),
(603,680,l)
);
}
);
width = 550;
}
);
unicode = 86;
}
{
glyphname = W;
kernLeft = W;
kernRight = W;
layers = (
{
anchors = (
{
name = bottom;
pos = (430,0);
},
{
name = top;
pos = (430,680);
}
);
layerId = master01;
shapes = (
{
closed = 1;
nodes = (
(127,680,l),
(36,680,l),
(185,0,l),
(274,0,l),
(430,556,l),
(586,0,l),
(674,0,l),
(824,680,l),
(738,680,l),
(679,392,l),
(629,120,l),
(472,680,l),
(391,680,l),
(234,117,l),
(186,392,l)
);
}
);
width = 860;
},
{
anchors = (
{
name = bottom;
pos = (434,0);
},
{
name = top;
pos = (434,680);
}
);
layerId = "D73FB141-FF25-4743-A62C-F58A1C57CDB9";
shapes = (
{
closed = 1;
nodes = (
(156,680,l),
(26,680,l),
(179,0,l),
(302,0,l),
(434,506,l),
(565,0,l),
(688,0,l),
(841,680,l),
(719,680,l),
(667,411,l),
(625,163,l),
(490,680,l),
(382,680,l),
(246,159,l),
(208,411,l)
);
}
);
width = 867;
},
{
anchors = (
{
name = bottom;
pos = (389,0);
},
{
name = top;
pos = (509,680);
}
);
layerId = "7D2027AC-297A-4D58-8EA2-55B17EBAD0F9";
shapes = (
{
closed = 1;
nodes = (
(228,680,l),
(101,680,l),
(134,0,l),
(257,0,l),
(478,506,l),
(520,0,l),
(643,0,l),
(916,680,l),
(791,680,l),
(691,411,l),
(606,164,l),
(562,680,l),
(454,680,l),
(226,159,l),
(232,411,l)
);
}
);
width = 867;
},
{
anchors = (
{
name = bottom;
pos = (386,0);
},
{
name = top;
pos = (506,680);
}
);
layerId = "C21AB58A-0F03-4AE0-976E-29AD56D058A6";
shapes = (
{
closed = 1;
nodes = (
(201,680,l),
(112,680,l),
(141,0,l),
(231,0,l),
(484,554,l),
(541,0,l),
(631,0,l),
(900,680,l),
(811,680,l),
(701,392,l),
(603,125,l),
(546,680,l),
(464,680,l),
(210,126,l),
(209,392,l)
);
}
);
width = 860;
},
{
anchors = (
{
name = bottom;
pos = (428,0);
},
{
name = top;
pos = (428,680);
}
);
layerId = "552872BC-8C7A-453E-A7A0-DCEE3439D276";
shapes = (
{
closed = 1;
nodes = (
(108,680,l),
(43,680,l),
(189,0,l),
(256,0,l),
(429,587,l),
(600,0,l),
(666,0,l),
(813,680,l),
(752,680,l),
(688,380,l),
(633,93,l),
(461,680,l),
(398,680,l),
(227,95,l),
(172,380,l)
);
}
);
width = 856;
},
{
anchors = (
{
name = bottom;
pos = (385,0);
},
{
name = top;
pos = (505,680);
}
);
layerId = "EEA6B9EF-1944-48F9-8F0D-85D16B14CE21";
shapes = (
{
closed = 1;
nodes = (
(183,680,l),
(120,680,l),
(146,0,l),
(214,0,l),
(489,584,l),
(556,0,l),
(623,0,l),
(890,680,l),
(825,680,l),
(708,380,l),
(603,103,l),
(536,680,l),
(471,680,l),
(201,106,l),
(194,380,l)
);
}
);
width = 856;
}
);
unicode = 87;
}
{
glyphname = X;
kernRight = X;
layers = (
{
anchors = (
{
name = bottom;
pos = (274,0);
},
{
name = top;
pos = (274,680);
}
);
layerId = master01;
shapes = (
{
closed = 1;
nodes = (
(527,0,l),
(324,347,l),
(516,680,l),
(426,680,l),
(279,421,l),
(129,680,l),
(30,680,l),
(222,351,l),
(20,0,l),
(111,0,l),
(267,277,l),
(429,0,l)
);
}
);
width = 548;
},
{
anchors = (
{
name = bottom;
pos = (285,0);
},
{
name = top;
pos = (285,680);
}
);
layerId = "D73FB141-FF25-4743-A62C-F58A1C57CDB9";
shapes = (
{
closed = 1;
nodes = (
(554,0,l),
(355,347,l),
(542,680,l),
(416,680,l),
(293,452,l),
(162,680,l),
(26,680,l),
(214,353,l),
(15,0,l),
(141,0,l),
(276,249,l),
(418,0,l)
);
}
);
width = 569;
},
{
anchors = (
{
name = bottom;
pos = (236,0);
},
{
name = top;
pos = (356,680);
}
);
layerId = "7D2027AC-297A-4D58-8EA2-55B17EBAD0F9";
shapes = (
{
closed = 1;
nodes = (
(502,0,l),
(367,339,l),
(617,680,l),
(484,680,l),
(321,450,l),
(230,680,l),
(101,680,l),
(230,354,l),
(-30,0,l),
(103,0,l),
(276,243,l),
(373,0,l)
);
}
);
width = 562;
},
{
anchors = (
{
name = bottom;
pos = (227,0);
},
{
name = top;
pos = (347,680);
}
);
layerId = "C21AB58A-0F03-4AE0-976E-29AD56D058A6";
shapes = (
{
closed = 1;
nodes = (
(477,0,l),
(339,340,l),
(593,680,l),
(495,680,l),
(304,420,l),
(198,680,l),
(107,680,l),
(240,353,l),
(-23,0,l),
(74,0,l),
(275,273,l),
(386,0,l)
);
}
);
width = 541;
},
{
anchors = (
{
name = bottom;
pos = (267,0);
},
{
name = top;
pos = (267,680);
}
);
layerId = "552872BC-8C7A-453E-A7A0-DCEE3439D276";
shapes = (
{
closed = 1;
nodes = (
(510,0,l),
(305,347,l),
(500,680,l),
(433,680,l),
(271,402,l),
(107,680,l),
(34,680,l),
(229,349,l),
(24,0,l),
(91,0,l),
(263,295,l),
(437,0,l)
);
}
);
width = 534;
},
{
anchors = (
{
name = bottom;
pos = (221,0);
},
{
name = top;
pos = (341,680);
}
);
layerId = "EEA6B9EF-1944-48F9-8F0D-85D16B14CE21";
shapes = (
{
closed = 1;
nodes = (
(461,0,l),
(321,341,l),
(577,680,l),
(503,680,l),
(293,401,l),
(177,680,l),
(111,680,l),
(247,353,l),
(-19,0,l),
(55,0,l),
(275,292,l),
(395,0,l)
);
}
);
width = 528;
}
);
unicode = 88;
}
{
glyphname = Y;
kernLeft = Y;
kernRight = Y;
layers = (
{
anchors = (
{
name = bottom;
pos = (262,0);
},
{
name = top;
pos = (262,680);
},
{
name = topleft;
pos = (20,680);
}
);
layerId = master01;
shapes = (
{
closed = 1;
nodes = (
(424,680,l),
(267,358,l),
(104,680,l),
(10,680,l),
(219,272,l),
(219,0,l),
(306,0,l),
(306,272,l),
(514,680,l)
);
}
);
width = 524;
},
{
anchors = (
{
name = bottom;
pos = (272,0);
},
{
name = top;
pos = (272,680);
},
{
name = topleft;
pos = (20,680);
}
);
layerId = "D73FB141-FF25-4743-A62C-F58A1C57CDB9";
shapes = (
{
closed = 1;
nodes = (
(417,680,l),
(278,390,l),
(131,680,l),
(3,680,l),
(213,271,l),
(213,0,l),
(333,0,l),
(333,273,l),
(541,680,l)
);
}
);
width = 544;
},
{
anchors = (
{
name = bottom;
pos = (227,0);
},
{
name = top;
pos = (347,680);
},
{
name = topleft;
pos = (95,680);
}
);
layerId = "7D2027AC-297A-4D58-8EA2-55B17EBAD0F9";
shapes = (
{
closed = 1;
nodes = (
(485,680,l),
(295,391,l),
(202,680,l),
(78,680,l),
(216,271,l),
(168,0,l),
(288,0,l),
(337,274,l),
(616,680,l)
);
}
);
width = 544;
},
{
anchors = (
{
name = bottom;
pos = (218,0);
},
{
name = top;
pos = (338,680);
},
{
name = topleft;
pos = (96,680);
}
);
layerId = "C21AB58A-0F03-4AE0-976E-29AD56D058A6";
shapes = (
{
closed = 1;
nodes = (
(494,680,l),
(280,358,l),
(176,680,l),
(87,680,l),
(223,271,l),
(175,0,l),
(262,0,l),
(310,271,l),
(590,680,l)
);
}
);
width = 524;
},
{
anchors = (
{
name = bottom;
pos = (256,0);
},
{
name = top;
pos = (256,680);
},
{
name = topleft;
pos = (20,680);
}
);
layerId = "552872BC-8C7A-453E-A7A0-DCEE3439D276";
shapes = (
{
closed = 1;
nodes = (
(429,680,l),
(259,337,l),
(86,680,l),
(16,680,l),
(224,270,l),
(224,0,l),
(289,0,l),
(289,270,l),
(496,680,l)
);
}
);
width = 512;
},
{
anchors = (
{
name = bottom;
pos = (213,0);
},
{
name = top;
pos = (333,680);
},
{
name = topleft;
pos = (97,680);
}
);
layerId = "EEA6B9EF-1944-48F9-8F0D-85D16B14CE21";
shapes = (
{
closed = 1;
nodes = (
(501,680,l),
(271,337,l),
(160,680,l),
(93,680,l),
(229,271,l),
(181,0,l),
(246,0,l),
(294,270,l),
(573,680,l)
);
}
);
width = 512;
}
);
unicode = 89;
}
{
glyphname = Z;
kernLeft = Z;
kernRight = Z;
layers = (
{
anchors = (
{
name = bottom;
pos = (254,0);
},
{
name = center;
pos = (254,340);
},
{
name = top;
pos = (254,680);
}
);
layerId = master01;
shapes = (
{
closed = 1;
nodes = (
(144,81,l),
(460,609,l),
(460,680,l),
(51,680,l),
(51,598,l),
(356,598,l),
(41,70,l),
(41,0,l),
(470,0,l),
(470,81,l)
);
}
);
width = 508;
},
{
anchors = (
{
name = bottom;
pos = (255,0);
},
{
name = center;
pos = (255,340);
},
{
name = top;
pos = (255,680);
}
);
layerId = "D73FB141-FF25-4743-A62C-F58A1C57CDB9";
shapes = (
{
closed = 1;
nodes = (
(179,115,l),
(463,575,l),
(463,680,l),
(48,680,l),
(48,565,l),
(322,565,l),
(38,105,l),
(38,0,l),
(473,0,l),
(473,115,l)
);
}
);
width = 509;
},
{
anchors = (
{
name = bottom;
pos = (210,0);
},
{
name = center;
pos = (270,340);
},
{
name = top;
pos = (330,680);
}
);
layerId = "7D2027AC-297A-4D58-8EA2-55B17EBAD0F9";
shapes = (
{
closed = 1;
nodes = (
(163,115,l),
(519,575,l),
(538,680,l),
(123,680,l),
(103,565,l),
(368,565,l),
(12,105,l),
(-7,0,l),
(428,0,l),
(448,115,l)
);
}
);
width = 509;
},
{
anchors = (
{
name = bottom;
pos = (210,0);
},
{
name = center;
pos = (270,340);
},
{
name = top;
pos = (330,680);
}
);
layerId = "C21AB58A-0F03-4AE0-976E-29AD56D058A6";
shapes = (
{
closed = 1;
nodes = (
(119,81,l),
(523,609,l),
(536,680,l),
(127,680,l),
(112,598,l),
(413,598,l),
(9,70,l),
(-2,0,l),
(426,0,l),
(440,81,l)
);
}
);
width = 508;
},
{
anchors = (
{
name = bottom;
pos = (254,0);
},
{
name = center;
pos = (254,340);
},
{
name = top;
pos = (254,680);
}
);
layerId = "552872BC-8C7A-453E-A7A0-DCEE3439D276";
shapes = (
{
closed = 1;
nodes = (
(121,59,l),
(458,633,l),
(458,680,l),
(53,680,l),
(53,621,l),
(380,621,l),
(43,47,l),
(43,0,l),
(468,0,l),
(468,59,l)
);
}
);
width = 508;
},
{
anchors = (
{
name = bottom;
pos = (211,0);
},
{
name = center;
pos = (271,340);
},
{
name = top;
pos = (331,680);
}
);
layerId = "EEA6B9EF-1944-48F9-8F0D-85D16B14CE21";
shapes = (
{
closed = 1;
nodes = (
(92,59,l),
(527,633,l),
(535,680,l),
(130,680,l),
(119,621,l),
(443,621,l),
(8,47,l),
(0,0,l),
(425,0,l),
(435,59,l)
);
}
);
width = 508;
}
);
unicode = 90;
}
{
glyphname = bracketleft;
layers = (
{
layerId = master01;
shapes = (
{
closed = 1;
nodes = (
(188,-71,l),
(188,668,l),
(343,668,l),
(343,740,l),
(106,740,l),
(106,-143,l),
(343,-143,l),
(343,-71,l)
);
}
);
width = 346;
},
{
layerId = "D73FB141-FF25-4743-A62C-F58A1C57CDB9";
shapes = (
{
closed = 1;
nodes = (
(209,-43,l),
(209,640,l),
(349,640,l),
(349,740,l),
(94,740,l),
(94,-143,l),
(349,-143,l),
(349,-43,l)
);
}
);
width = 350;
},
{
layerId = "7D2027AC-297A-4D58-8EA2-55B17EBAD0F9";
shapes = (
{
closed = 1;
nodes = (
(156,-43,l),
(277,640,l),
(417,640,l),
(434,740,l),
(179,740,l),
(24,-143,l),
(279,-143,l),
(296,-43,l)
);
}
);
width = 350;
},
{
layerId = "C21AB58A-0F03-4AE0-976E-29AD56D058A6";
shapes = (
{
closed = 1;
nodes = (
(132,-71,l),
(262,668,l),
(417,668,l),
(430,740,l),
(193,740,l),
(37,-143,l),
(274,-143,l),
(287,-71,l)
);
}
);
width = 346;
},
{
layerId = "552872BC-8C7A-453E-A7A0-DCEE3439D276";
shapes = (
{
closed = 1;
nodes = (
(175,-90,l),
(175,687,l),
(340,687,l),
(340,740,l),
(115,740,l),
(115,-143,l),
(340,-143,l),
(340,-90,l)
);
}
);
width = 344;
},
{
layerId = "EEA6B9EF-1944-48F9-8F0D-85D16B14CE21";
shapes = (
{
closed = 1;
nodes = (
(116,-90,l),
(253,687,l),
(418,687,l),
(427,740,l),
(202,740,l),
(47,-143,l),
(272,-143,l),
(281,-90,l)
);
}
);
width = 344;
}
);
unicode = 91;
}
{
glyphname = backslash;
layers = (
{
layerId = master01;
shapes = (
{
closed = 1;
nodes = (
(-9,740,l),
(319,-143,l),
(403,-143,l),
(74,740,l)
);
}
);
width = 364;
},
{
layerId = "D73FB141-FF25-4743-A62C-F58A1C57CDB9";
shapes = (
{
closed = 1;
nodes = (
(-9,740,l),
(315,-143,l),
(433,-143,l),
(109,740,l)
);
}
);
width = 394;
},
{
layerId = "7D2027AC-297A-4D58-8EA2-55B17EBAD0F9";
shapes = (
{
closed = 1;
nodes = (
(76,740,l),
(249,-143,l),
(363,-143,l),
(190,740,l)
);
}
);
width = 394;
},
{
layerId = "C21AB58A-0F03-4AE0-976E-29AD56D058A6";
shapes = (
{
closed = 1;
nodes = (
(77,740,l),
(253,-143,l),
(333,-143,l),
(157,740,l)
);
}
);
width = 364;
},
{
layerId = "552872BC-8C7A-453E-A7A0-DCEE3439D276";
shapes = (
{
closed = 1;
nodes = (
(-9,740,l),
(322,-143,l),
(383,-143,l),
(52,740,l)
);
}
);
width = 344;
},
{
layerId = "EEA6B9EF-1944-48F9-8F0D-85D16B14CE21";
shapes = (
{
closed = 1;
nodes = (
(78,740,l),
(257,-143,l),
(315,-143,l),
(136,740,l)
);
}
);
width = 344;
}
);
unicode = 92;
}
{
glyphname = bracketright;
layers = (
{
layerId = master01;
shapes = (
{
closed = 1;
nodes = (
(2,740,l),
(2,668,l),
(157,668,l),
(157,-71,l),
(2,-71,l),
(2,-143,l),
(239,-143,l),
(239,740,l)
);
}
);
width = 346;
},
{
layerId = "D73FB141-FF25-4743-A62C-F58A1C57CDB9";
shapes = (
{
closed = 1;
nodes = (
(1,740,l),
(1,640,l),
(141,640,l),
(141,-43,l),
(1,-43,l),
(1,-143,l),
(256,-143,l),
(256,740,l)
);
}
);
width = 350;
},
{
layerId = "7D2027AC-297A-4D58-8EA2-55B17EBAD0F9";
shapes = (
{
closed = 1;
nodes = (
(86,740,l),
(69,640,l),
(208,640,l),
(89,-43,l),
(-52,-43,l),
(-69,-143,l),
(186,-143,l),
(341,740,l)
);
}
);
width = 350.21476;
},
{
layerId = "C21AB58A-0F03-4AE0-976E-29AD56D058A6";
shapes = (
{
closed = 1;
nodes = (
(89,740,l),
(76,668,l),
(231,668,l),
(102,-71,l),
(-53,-71,l),
(-66,-143,l),
(171,-143,l),
(326,740,l)
);
}
);
width = 346;
},
{
layerId = "552872BC-8C7A-453E-A7A0-DCEE3439D276";
shapes = (
{
closed = 1;
nodes = (
(4,740,l),
(4,687,l),
(169,687,l),
(169,-90,l),
(4,-90,l),
(4,-143,l),
(229,-143,l),
(229,740,l)
);
}
);
width = 344;
},
{
layerId = "EEA6B9EF-1944-48F9-8F0D-85D16B14CE21";
shapes = (
{
closed = 1;
nodes = (
(91,740,l),
(82,687,l),
(247,687,l),
(110,-90,l),
(-55,-90,l),
(-64,-143,l),
(161,-143,l),
(316,740,l)
);
}
);
width = 344.21476;
}
);
unicode = 93;
}
{
glyphname = asciicircum;
layers = (
{
layerId = master01;
shapes = (
{
closed = 1;
nodes = (
(487,266,l),
(320,680,l),
(265,680,l),
(100,266,l),
(178,266,l),
(291,563,l),
(405,266,l)
);
}
);
width = 588;
},
{
layerId = "D73FB141-FF25-4743-A62C-F58A1C57CDB9";
shapes = (
{
closed = 1;
nodes = (
(501,266,l),
(334,680,l),
(253,680,l),
(87,266,l),
(193,266,l),
(292,526,l),
(391,266,l)
);
}
);
width = 588;
},
{
layerId = "7D2027AC-297A-4D58-8EA2-55B17EBAD0F9";
shapes = (
{
closed = 1;
nodes = (
(503,266,l),
(409,680,l),
(328,680,l),
(89,266,l),
(199,266,l),
(344,526,l),
(397,266,l)
);
}
);
width = 588;
},
{
layerId = "C21AB58A-0F03-4AE0-976E-29AD56D058A6";
shapes = (
{
closed = 1;
nodes = (
(490,266,l),
(396,680,l),
(341,680,l),
(103,266,l),
(185,266,l),
(351,564,l),
(412,266,l)
);
}
);
width = 588;
},
{
layerId = "552872BC-8C7A-453E-A7A0-DCEE3439D276";
shapes = (
{
closed = 1;
nodes = (
(479,266,l),
(311,680,l),
(274,680,l),
(109,266,l),
(169,266,l),
(291,589,l),
(415,266,l)
);
}
);
width = 588;
},
{
layerId = "EEA6B9EF-1944-48F9-8F0D-85D16B14CE21";
shapes = (
{
closed = 1;
nodes = (
(483,266,l),
(388,680,l),
(351,680,l),
(113,266,l),
(177,266,l),
(356,589,l),
(423,266,l)
);
}
);
width = 588;
}
);
unicode = 94;
}
{
glyphname = underscore;
layers = (
{
layerId = master01;
shapes = (
{
closed = 1;
nodes = (
(385,-157,l),
(385,-96,l),
(5,-96,l),
(5,-157,l)
);
}
);
width = 390;
},
{
layerId = "D73FB141-FF25-4743-A62C-F58A1C57CDB9";
shapes = (
{
closed = 1;
nodes = (
(409,-163,l),
(409,-90,l),
(5,-90,l),
(5,-163,l)
);
}
);
width = 414;
},
{
layerId = "7D2027AC-297A-4D58-8EA2-55B17EBAD0F9";
shapes = (
{
closed = 1;
nodes = (
(335,-163,l),
(348,-90,l),
(-56,-90,l),
(-69,-163,l)
);
}
);
width = 413.86943;
},
{
layerId = "C21AB58A-0F03-4AE0-976E-29AD56D058A6";
shapes = (
{
closed = 1;
nodes = (
(313,-157,l),
(324,-96,l),
(-55,-96,l),
(-66,-157,l)
);
}
);
width = 389;
},
{
layerId = "552872BC-8C7A-453E-A7A0-DCEE3439D276";
shapes = (
{
closed = 1;
nodes = (
(369,-153,l),
(369,-100,l),
(5,-100,l),
(5,-153,l)
);
}
);
width = 374;
},
{
layerId = "EEA6B9EF-1944-48F9-8F0D-85D16B14CE21";
shapes = (
{
closed = 1;
nodes = (
(299,-153,l),
(308,-100,l),
(-56,-100,l),
(-65,-153,l)
);
}
);
width = 374;
}
);
unicode = 95;
}
{
glyphname = grave;
layers = (
{
layerId = master01;
shapes = (
{
closed = 1;
nodes = (
(285,579,l),
(195,745,l),
(116,709,l),
(214,579,l)
);
}
);
width = 500;
},
{
layerId = "D73FB141-FF25-4743-A62C-F58A1C57CDB9";
shapes = (
{
closed = 1;
nodes = (
(300,579,l),
(204,745,l),
(96,699,l),
(199,579,l)
);
}
);
width = 500;
},
{
layerId = "7D2027AC-297A-4D58-8EA2-55B17EBAD0F9";
shapes = (
{
closed = 1;
nodes = (
(354,579,l),
(287,745,l),
(176,699,l),
(258,579,l)
);
}
);
width = 500;
},
{
layerId = "C21AB58A-0F03-4AE0-976E-29AD56D058A6";
shapes = (
{
closed = 1;
nodes = (
(341,579,l),
(280,745,l),
(199,709,l),
(274,579,l)
);
}
);
width = 500;
},
{
layerId = "552872BC-8C7A-453E-A7A0-DCEE3439D276";
shapes = (
{
closed = 1;
nodes = (
(275,579,l),
(189,745,l),
(130,716,l),
(224,579,l)
);
}
);
width = 500;
},
{
layerId = "EEA6B9EF-1944-48F9-8F0D-85D16B14CE21";
shapes = (
{
closed = 1;
nodes = (
(333,579,l),
(276,745,l),
(215,716,l),
(285,579,l)
);
}
);
width = 500;
}
);
unicode = 96;
}
{
glyphname = a;
kernLeft = a;
kernRight = a;
layers = (
{
anchors = (
{
name = bottom;
pos = (247,0);
},
{
name = ogonek;
pos = (465,-5);
},
{
name = top;
pos = (237,495);
}
);
layerId = master01;
shapes = (
{
closed = 1;
nodes = (
(465,-5,l),
(465,70,l),
(454,70,ls),
(418,70,o),
(409,93,o),
(409,124,cs),
(409,338,ls),
(409,428,o),
(376,505,o),
(237,505,cs),
(180,505,o),
(125,490,o),
(64,462,c),
(90,394,l),
(142,417,o),
(189,429,o),
(233,429,cs),
(296,429,o),
(329,406,o),
(329,332,cs),
(329,265,l),
(285,272,o),
(241,277,o),
(205,277,cs),
(82,277,o),
(42,216,o),
(42,135,cs),
(42,53,o),
(82,-10,o),
(169,-10,cs),
(222,-10,o),
(273,10,o),
(338,68,c),
(352,26,o),
(389,-5,o),
(450,-5,cs)
);
},
{
closed = 1;
nodes = (
(123,187,o),
(148,212,o),
(209,212,cs),
(242,212,o),
(286,208,o),
(329,201,c),
(329,138,l),
(262,75,o),
(219,60,o),
(185,60,cs),
(145,60,o),
(123,90,o),
(123,136,cs)
);
}
);
width = 493;
},
{
anchors = (
{
name = bottom;
pos = (254,0);
},
{
name = ogonek;
pos = (486,-5);
},
{
name = top;
pos = (244,507);
}
);
layerId = "D73FB141-FF25-4743-A62C-F58A1C57CDB9";
shapes = (
{
closed = 1;
nodes = (
(486,-5,l),
(486,101,l),
(475,101,ls),
(442,101,o),
(433,123,o),
(433,143,cs),
(433,338,ls),
(433,432,o),
(394,517,o),
(246,517,cs),
(191,517,o),
(132,504,o),
(63,476,c),
(96,378,l),
(150,401,o),
(198,411,o),
(238,411,cs),
(290,411,o),
(323,394,o),
(323,338,cs),
(323,279,l),
(285,286,o),
(248,291,o),
(213,291,cs),
(81,291,o),
(38,230,o),
(38,142,cs),
(38,54,o),
(79,-10,o),
(168,-10,cs),
(229,-10,o),
(280,15,o),
(337,68,c),
(355,27,o),
(395,-5,o),
(463,-5,cs)
);
},
{
closed = 1;
nodes = (
(149,184,o),
(169,206,o),
(221,206,cs),
(254,206,o),
(288,203,o),
(323,197,c),
(323,154,l),
(262,95,o),
(226,86,o),
(196,86,cs),
(165,86,o),
(149,108,o),
(149,144,cs)
);
}
);
width = 507;
},
{
anchors = (
{
name = bottom;
pos = (214,0);
},
{
name = ogonek;
pos = (463,-5);
},
{
name = top;
pos = (304,507);
}
);
background = {
shapes = (
{
closed = 1;
nodes = (
(464,-5,l),
(483,101,l),
(471,101,ls),
(440,101,o),
(434,123,o),
(437,143,cs),
(491,452,l),
(428,493,o),
(352,517,o),
(275,517,cs),
(138,517,o),
(63,434,o),
(38,280,cs),
(31,236,ls),
(8,91,o),
(59,-10,o),
(156,-10,cs),
(200,-10,o),
(257,7,o),
(329,76,c),
(339,30,o),
(371,-5,o),
(445,-5,cs)
);
},
{
closed = 1;
nodes = (
(156,280,ls),
(169,362,o),
(210,414,o),
(285,414,cs),
(312,414,o),
(337,408,o),
(366,394,c),
(331,192,l),
(274,120,o),
(229,97,o),
(195,97,cs),
(153,97,o),
(134,140,o),
(149,236,cs)
);
}
);
};
layerId = "7D2027AC-297A-4D58-8EA2-55B17EBAD0F9";
shapes = (
{
closed = 1;
nodes = (
(463,-5,l),
(481,101,l),
(470,101,ls),
(437,101,o),
(432,123,o),
(436,143,cs),
(470,338,ls),
(486,432,o),
(462,517,o),
(314,517,cs),
(259,517,o),
(198,504,o),
(124,476,c),
(140,378,l),
(198,401,o),
(248,411,o),
(288,411,cs),
(340,411,o),
(370,394,o),
(360,338,cs),
(349,279,l),
(313,286,o),
(277,291,o),
(242,291,cs),
(110,291,o),
(56,230,o),
(40,142,cs),
(25,54,o),
(55,-10,o),
(144,-10,cs),
(205,-10,o),
(260,15,o),
(327,68,c),
(337,27,o),
(372,-5,o),
(440,-5,cs)
);
},
{
closed = 1;
nodes = (
(159,184,o),
(183,206,o),
(235,206,cs),
(268,206,o),
(301,203,o),
(335,197,c),
(328,154,l),
(256,95,o),
(219,86,o),
(189,86,cs),
(158,86,o),
(146,108,o),
(152,144,cs)
);
}
);
width = 538;
},
{
anchors = (
{
name = bottom;
pos = (203,0);
},
{
name = ogonek;
pos = (443,-5);
},
{
name = top;
pos = (291,495);
}
);
background = {
shapes = (
{
closed = 1;
nodes = (
(445,-5,l),
(459,70,l),
(445,70,ls),
(411,70,o),
(404,95,o),
(411,135,cs),
(465,442,l),
(403,482,o),
(337,505,o),
(270,505,cs),
(142,505,o),
(61,419,o),
(40,277,cs),
(33,228,ls),
(13,91,o),
(61,-10,o),
(159,-10,cs),
(210,-10,o),
(267,13,o),
(330,81,c),
(333,31,o),
(362,-5,o),
(428,-5,cs)
);
},
{
closed = 1;
nodes = (
(125,277,ls),
(138,368,o),
(188,430,o),
(275,430,cs),
(307,430,o),
(340,421,o),
(376,403,c),
(337,181,l),
(275,94,o),
(221,64,o),
(181,64,cs),
(127,64,o),
(103,123,o),
(118,228,cs)
);
}
);
};
layerId = "C21AB58A-0F03-4AE0-976E-29AD56D058A6";
shapes = (
{
closed = 1;
nodes = (
(443,-5,l),
(456,70,l),
(445,70,ls),
(409,70,o),
(404,93,o),
(409,124,cs),
(447,338,ls),
(463,428,o),
(443,505,o),
(304,505,cs),
(247,505,o),
(189,490,o),
(124,462,c),
(138,394,l),
(194,417,o),
(243,429,o),
(287,429,cs),
(350,429,o),
(379,406,o),
(366,332,cs),
(354,265,l),
(311,272,o),
(268,277,o),
(232,277,cs),
(109,277,o),
(58,216,o),
(44,135,cs),
(30,53,o),
(59,-10,o),
(146,-10,cs),
(199,-10,o),
(253,10,o),
(329,68,c),
(335,26,o),
(367,-5,o),
(428,-5,cs)
);
},
{
closed = 1;
nodes = (
(134,187,o),
(164,212,o),
(225,212,cs),
(258,212,o),
(301,208,o),
(343,201,c),
(332,138,l),
(254,75,o),
(208,60,o),
(174,60,cs),
(134,60,o),
(117,90,o),
(125,136,cs)
);
}
);
width = 521;
},
{
anchors = (
{
name = bottom;
pos = (242,0);
},
{
name = ogonek;
pos = (452,-5);
},
{
name = top;
pos = (232,487);
}
);
layerId = "552872BC-8C7A-453E-A7A0-DCEE3439D276";
shapes = (
{
closed = 1;
nodes = (
(452,-5,l),
(452,50,l),
(440,50,ls),
(402,50,o),
(393,74,o),
(393,112,cs),
(393,338,ls),
(393,426,o),
(364,497,o),
(231,497,cs),
(174,497,o),
(121,482,o),
(66,454,c),
(87,405,l),
(137,429,o),
(183,442,o),
(231,442,cs),
(301,442,o),
(334,414,o),
(334,328,cs),
(334,256,l),
(288,264,o),
(237,269,o),
(201,269,cs),
(83,269,o),
(45,208,o),
(45,131,cs),
(45,54,o),
(85,-10,o),
(170,-10,cs),
(218,-10,o),
(270,6,o),
(342,70,c),
(349,24,o),
(387,-5,o),
(442,-5,cs)
);
},
{
closed = 1;
nodes = (
(107,189,o),
(135,216,o),
(202,216,cs),
(234,216,o),
(287,211,o),
(334,203,c),
(334,126,l),
(265,63,o),
(216,43,o),
(179,43,cs),
(132,43,o),
(107,78,o),
(107,131,cs)
);
}
);
width = 484;
},
{
anchors = (
{
name = bottom;
pos = (199,0);
},
{
name = ogonek;
pos = (432,-5);
},
{
name = top;
pos = (285,487);
}
);
background = {
shapes = (
{
closed = 1;
nodes = (
(437,-5,l),
(447,50,l),
(431,50,ls),
(396,50,o),
(388,77,o),
(398,131,cs),
(452,436,l),
(391,475,o),
(331,497,o),
(270,497,cs),
(149,497,o),
(64,410,o),
(46,275,cs),
(39,224,ls),
(21,92,o),
(67,-10,o),
(165,-10,cs),
(222,-10,o),
(280,19,o),
(335,89,c),
(332,33,o),
(360,-5,o),
(421,-5,cs)
);
},
{
closed = 1;
nodes = (
(109,275,ls),
(122,373,o),
(178,442,o),
(272,442,cs),
(308,442,o),
(346,431,o),
(388,409,c),
(347,180,l),
(282,78,o),
(221,43,o),
(175,43,cs),
(113,43,o),
(87,113,o),
(102,224,cs)
);
}
);
};
layerId = "EEA6B9EF-1944-48F9-8F0D-85D16B14CE21";
shapes = (
{
closed = 1;
nodes = (
(432,-5,l),
(441,50,l),
(429,50,ls),
(391,50,o),
(386,74,o),
(393,112,cs),
(433,338,ls),
(448,426,o),
(431,497,o),
(298,497,cs),
(241,497,o),
(186,482,o),
(126,454,c),
(138,405,l),
(192,429,o),
(241,442,o),
(289,442,cs),
(359,442,o),
(387,414,o),
(372,328,cs),
(359,256,l),
(315,264,o),
(264,269,o),
(228,269,cs),
(110,269,o),
(62,208,o),
(48,131,cs),
(35,54,o),
(64,-10,o),
(149,-10,cs),
(197,-10,o),
(251,6,o),
(335,70,c),
(334,24,o),
(367,-5,o),
(422,-5,cs)
);
},
{
closed = 1;
nodes = (
(120,189,o),
(153,216,o),
(220,216,cs),
(252,216,o),
(304,211,o),
(350,203,c),
(336,126,l),
(256,63,o),
(204,43,o),
(167,43,cs),
(120,43,o),
(101,78,o),
(110,131,cs)
);
}
);
width = 514;
}
);
unicode = 97;
}
{
glyphname = b;
kernRight = o;
layers = (
{
layerId = master01;
shapes = (
{
closed = 1;
nodes = (
(488,276,ls),
(488,421,o),
(430,505,o),
(326,505,cs),
(274,505,o),
(227,484,o),
(167,428,c),
(167,740,l),
(85,740,l),
(85,43,l),
(150,8,o),
(218,-10,o),
(283,-10,cs),
(417,-10,o),
(488,79,o),
(488,218,cs)
);
},
{
closed = 1;
nodes = (
(371,428,o),
(403,380,o),
(403,276,cs),
(403,218,ls),
(403,123,o),
(367,64,o),
(278,64,cs),
(241,64,o),
(207,72,o),
(167,89,c),
(167,351,l),
(231,413,o),
(268,428,o),
(306,428,cs)
);
}
);
width = 552;
},
{
layerId = "D73FB141-FF25-4743-A62C-F58A1C57CDB9";
shapes = (
{
closed = 1;
nodes = (
(506,281,ls),
(506,430,o),
(444,517,o),
(337,517,cs),
(290,517,o),
(251,501,o),
(190,440,c),
(190,740,l),
(75,740,l),
(75,50,l),
(149,10,o),
(223,-10,o),
(294,-10,cs),
(432,-10,o),
(506,82,o),
(506,227,cs)
);
},
{
closed = 1;
nodes = (
(358,410,o),
(388,370,o),
(388,281,cs),
(388,227,ls),
(388,144,o),
(358,93,o),
(284,93,cs),
(255,93,o),
(226,99,o),
(190,114,c),
(190,341,l),
(242,396,o),
(274,410,o),
(306,410,cs)
);
}
);
width = 560;
},
{
layerId = "7D2027AC-297A-4D58-8EA2-55B17EBAD0F9";
shapes = (
{
closed = 1;
nodes = (
(508,271,ls),
(532,416,o),
(481,517,o),
(382,517,cs),
(341,517,o),
(290,501,o),
(221,431,c),
(275,740,l),
(160,740,l),
(40,58,l),
(107,20,o),
(178,-10,o),
(260,-10,cs),
(400,-10,o),
(477,73,o),
(501,227,cs)
);
},
{
closed = 1;
nodes = (
(386,410,o),
(406,367,o),
(390,271,cs),
(383,227,ls),
(369,145,o),
(328,93,o),
(250,93,cs),
(223,93,o),
(197,99,o),
(166,115,c),
(198,301,l),
(261,381,o),
(305,410,o),
(340,410,cs)
);
}
);
width = 560;
},
{
layerId = "C21AB58A-0F03-4AE0-976E-29AD56D058A6";
shapes = (
{
closed = 1;
nodes = (
(490,266,ls),
(511,403,o),
(462,505,o),
(362,505,cs),
(312,505,o),
(257,482,o),
(196,413,c),
(254,740,l),
(172,740,l),
(50,53,l),
(114,15,o),
(179,-10,o),
(251,-10,cs),
(383,-10,o),
(462,72,o),
(483,218,cs)
);
},
{
closed = 1;
nodes = (
(396,430,o),
(421,371,o),
(405,266,cs),
(398,218,ls),
(384,123,o),
(337,64,o),
(246,64,cs),
(211,64,o),
(177,73,o),
(140,92,c),
(177,306,l),
(242,398,o),
(297,430,o),
(339,430,cs)
);
}
);
width = 553;
},
{
layerId = "552872BC-8C7A-453E-A7A0-DCEE3439D276";
shapes = (
{
closed = 1;
nodes = (
(477,273,ls),
(477,415,o),
(421,497,o),
(319,497,cs),
(263,497,o),
(210,474,o),
(152,420,c),
(152,740,l),
(92,740,l),
(92,39,l),
(152,7,o),
(215,-10,o),
(277,-10,cs),
(408,-10,o),
(477,77,o),
(477,213,cs)
);
},
{
closed = 1;
nodes = (
(380,440,o),
(414,388,o),
(414,273,cs),
(414,213,ls),
(414,109,o),
(374,45,o),
(274,45,cs),
(233,45,o),
(194,54,o),
(152,73,c),
(152,359,l),
(224,425,o),
(264,440,o),
(307,440,cs)
);
}
);
width = 548;
},
{
layerId = "EEA6B9EF-1944-48F9-8F0D-85D16B14CE21";
shapes = (
{
closed = 1;
nodes = (
(479,263,ls),
(497,395,o),
(450,497,o),
(349,497,cs),
(292,497,o),
(234,468,o),
(179,399,c),
(240,740,l),
(180,740,l),
(58,51,l),
(119,12,o),
(181,-10,o),
(246,-10,cs),
(372,-10,o),
(453,72,o),
(472,212,cs)
);
},
{
closed = 1;
nodes = (
(404,444,o),
(431,374,o),
(416,263,cs),
(409,212,ls),
(395,109,o),
(343,45,o),
(244,45,cs),
(204,45,o),
(165,56,o),
(122,78,c),
(163,307,l),
(228,409,o),
(291,444,o),
(339,444,cs)
);
}
);
width = 548.95516;
}
);
unicode = 98;
}
{
glyphname = c;
kernLeft = o;
kernRight = c;
layers = (
{
anchors = (
{
name = bottom;
pos = (255,0);
},
{
name = top;
pos = (255,495);
}
);
layerId = master01;
shapes = (
{
closed = 1;
nodes = (
(146,377,o),
(181,429,o),
(263,429,cs),
(300,429,o),
(341,418,o),
(385,399,c),
(410,469,l),
(358,492,o),
(306,505,o),
(258,505,cs),
(130,505,o),
(62,418,o),
(62,277,cs),
(62,218,ls),
(62,76,o),
(130,-10,o),
(258,-10,cs),
(309,-10,o),
(364,3,o),
(417,27,c),
(392,96,l),
(345,75,o),
(302,65,o),
(263,65,cs),
(181,65,o),
(146,117,o),
(146,218,cs),
(146,277,ls)
);
}
);
width = 449;
},
{
anchors = (
{
name = bottom;
pos = (264,0);
},
{
name = top;
pos = (264,507);
}
);
layerId = "D73FB141-FF25-4743-A62C-F58A1C57CDB9";
shapes = (
{
closed = 1;
nodes = (
(167,369,o),
(196,411,o),
(264,411,cs),
(296,411,o),
(335,402,o),
(384,383,c),
(417,482,l),
(359,505,o),
(308,517,o),
(258,517,cs),
(124,517,o),
(52,425,o),
(52,283,cs),
(52,224,ls),
(52,82,o),
(124,-10,o),
(258,-10,cs),
(310,-10,o),
(362,2,o),
(422,26,c),
(389,123,l),
(339,104,o),
(297,96,o),
(264,96,cs),
(196,96,o),
(167,138,o),
(167,224,cs),
(167,283,ls)
);
}
);
width = 448;
},
{
anchors = (
{
name = bottom;
pos = (220,0);
},
{
name = top;
pos = (310,507);
}
);
layerId = "7D2027AC-297A-4D58-8EA2-55B17EBAD0F9";
shapes = (
{
closed = 1;
nodes = (
(186,371,o),
(231,411,o),
(293,411,cs),
(324,411,o),
(361,402,o),
(403,384,c),
(441,483,l),
(387,506,o),
(339,517,o),
(292,517,cs),
(172,517,o),
(85,442,o),
(59,294,cs),
(50,242,ls),
(23,89,o),
(93,-10,o),
(237,-10,cs),
(278,-10,o),
(321,-2,o),
(383,21,c),
(366,120,l),
(315,102,o),
(283,96,o),
(251,96,cs),
(173,96,o),
(144,142,o),
(161,234,cs),
(172,294,ls)
);
}
);
width = 450.29713;
},
{
anchors = (
{
name = bottom;
pos = (212,0);
},
{
name = top;
pos = (300,495);
}
);
layerId = "C21AB58A-0F03-4AE0-976E-29AD56D058A6";
shapes = (
{
closed = 1;
nodes = (
(166,378,o),
(217,429,o),
(291,429,cs),
(326,429,o),
(365,417,o),
(407,397,c),
(436,467,l),
(387,491,o),
(337,505,o),
(289,505,cs),
(171,505,o),
(92,422,o),
(69,288,cs),
(61,237,ls),
(38,96,o),
(89,-10,o),
(238,-10,cs),
(281,-10,o),
(328,0,o),
(380,19,c),
(366,90,l),
(320,73,o),
(280,65,o),
(245,65,cs),
(149,65,o),
(126,135,o),
(142,234,cs),
(151,288,ls)
);
}
);
width = 451;
},
{
anchors = (
{
name = bottom;
pos = (256,0);
},
{
name = top;
pos = (256,487);
}
);
layerId = "552872BC-8C7A-453E-A7A0-DCEE3439D276";
shapes = (
{
closed = 1;
nodes = (
(133,383,o),
(172,442,o),
(263,442,cs),
(304,442,o),
(346,430,o),
(386,411,c),
(406,461,l),
(359,485,o),
(305,497,o),
(258,497,cs),
(134,497,o),
(70,414,o),
(70,274,cs),
(70,214,ls),
(70,73,o),
(134,-10,o),
(258,-10,cs),
(309,-10,o),
(366,4,o),
(415,29,c),
(395,78,l),
(350,57,o),
(306,45,o),
(263,45,cs),
(172,45,o),
(133,104,o),
(133,214,cs),
(133,274,ls)
);
}
);
width = 451;
},
{
anchors = (
{
name = bottom;
pos = (213,0);
},
{
name = top;
pos = (299,487);
}
);
layerId = "EEA6B9EF-1944-48F9-8F0D-85D16B14CE21";
shapes = (
{
closed = 1;
nodes = (
(154,383,o),
(208,442,o),
(290,442,cs),
(328,442,o),
(369,427,o),
(411,407,c),
(434,457,l),
(388,482,o),
(336,497,o),
(287,497,cs),
(172,497,o),
(97,410,o),
(77,284,cs),
(69,234,ls),
(48,101,o),
(87,-10,o),
(239,-10,cs),
(284,-10,o),
(333,1,o),
(378,18,c),
(367,70,l),
(324,55,o),
(279,45,o),
(242,45,cs),
(133,45,o),
(114,131,o),
(130,234,cs),
(138,284,ls)
);
}
);
width = 451.82611;
}
);
unicode = 99;
}
{
glyphname = e;
kernLeft = o;
kernRight = e;
layers = (
{
layerId = master01;
shapes = (
{
closed = 1;
nodes = (
(422,97,l),
(372,74,o),
(318,64,o),
(276,64,cs),
(182,64,o),
(143,117,o),
(143,218,cs),
(143,220,l),
(438,220,l),
(446,256,o),
(450,287,o),
(450,316,cs),
(450,445,o),
(365,505,o),
(263,505,cs),
(135,505,o),
(62,415,o),
(62,278,cs),
(62,218,ls),
(62,76,o),
(131,-10,o),
(274,-10,cs),
(324,-10,o),
(387,0,o),
(447,29,c)
);
},
{
closed = 1;
nodes = (
(321,433,o),
(370,399,o),
(370,324,cs),
(370,314,o),
(369,302,o),
(367,290,c),
(143,290,l),
(147,381,o),
(186,433,o),
(263,433,cs)
);
}
);
width = 504;
},
{
layerId = "D73FB141-FF25-4743-A62C-F58A1C57CDB9";
shapes = (
{
closed = 1;
nodes = (
(431,126,l),
(379,104,o),
(330,94,o),
(285,94,cs),
(200,94,o),
(163,135,o),
(161,218,c),
(455,218,l),
(464,252,o),
(468,284,o),
(468,312,cs),
(468,454,o),
(368,517,o),
(263,517,cs),
(132,517,o),
(50,425,o),
(50,284,cs),
(50,224,ls),
(50,82,o),
(128,-10,o),
(279,-10,cs),
(334,-10,o),
(394,1,o),
(464,29,c)
);
},
{
closed = 1;
nodes = (
(314,420,o),
(355,388,o),
(355,324,cs),
(355,318,o),
(355,312,o),
(354,306,c),
(162,306,l),
(167,379,o),
(202,420,o),
(263,420,cs)
);
}
);
width = 521;
},
{
layerId = "7D2027AC-297A-4D58-8EA2-55B17EBAD0F9";
shapes = (
{
closed = 1;
nodes = (
(408,122,l),
(345,100,o),
(294,94,o),
(265,94,cs),
(177,94,o),
(144,136,o),
(154,218,c),
(443,218,l),
(469,260,o),
(482,303,o),
(482,346,cs),
(482,469,o),
(391,517,o),
(294,517,cs),
(170,517,o),
(81,430,o),
(57,294,cs),
(48,242,ls),
(22,89,o),
(95,-10,o),
(250,-10,cs),
(298,-10,o),
(351,-4,o),
(424,24,c)
);
},
{
closed = 1;
nodes = (
(339,417,o),
(372,393,o),
(372,346,cs),
(372,333,o),
(370,321,o),
(365,306,c),
(170,306,l),
(187,379,o),
(228,417,o),
(290,417,cs)
);
}
);
width = 522.3031;
},
{
layerId = "C21AB58A-0F03-4AE0-976E-29AD56D058A6";
shapes = (
{
closed = 1;
nodes = (
(396,90,l),
(344,72,o),
(294,64,o),
(257,64,cs),
(153,64,o),
(126,128,o),
(138,220,c),
(427,220,l),
(457,270,o),
(467,313,o),
(467,352,cs),
(467,458,o),
(385,505,o),
(295,505,cs),
(173,505,o),
(90,418,o),
(69,288,cs),
(60,237,ls),
(37,96,o),
(90,-10,o),
(250,-10,cs),
(298,-10,o),
(352,-1,o),
(409,20,c)
);
},
{
closed = 1;
nodes = (
(346,432,o),
(387,406,o),
(387,350,cs),
(387,333,o),
(384,312,o),
(374,290,c),
(150,290,l),
(165,379,o),
(216,432,o),
(292,432,cs)
);
}
);
width = 505;
},
{
layerId = "552872BC-8C7A-453E-A7A0-DCEE3439D276";
shapes = (
{
closed = 1;
nodes = (
(417,78,l),
(367,55,o),
(311,45,o),
(271,45,cs),
(172,45,o),
(131,104,o),
(131,214,cs),
(131,226,l),
(427,226,l),
(435,261,o),
(439,292,o),
(439,320,cs),
(439,439,o),
(363,497,o),
(264,497,cs),
(138,497,o),
(70,409,o),
(70,274,cs),
(70,214,ls),
(70,73,o),
(135,-10,o),
(271,-10,cs),
(319,-10,o),
(382,1,o),
(437,29,c)
);
},
{
closed = 1;
nodes = (
(326,442,o),
(380,407,o),
(380,325,cs),
(380,311,o),
(379,296,o),
(376,279,c),
(131,279,l),
(131,380,o),
(175,442,o),
(264,442,cs)
);
}
);
width = 493;
},
{
layerId = "EEA6B9EF-1944-48F9-8F0D-85D16B14CE21";
shapes = (
{
closed = 1;
nodes = (
(389,70,l),
(344,54,o),
(294,45,o),
(253,45,cs),
(136,45,o),
(115,127,o),
(129,226,c),
(419,226,l),
(449,279,o),
(457,322,o),
(457,357,cs),
(457,452,o),
(382,497,o),
(296,497,cs),
(175,497,o),
(97,410,o),
(77,284,cs),
(69,234,ls),
(48,101,o),
(88,-10,o),
(250,-10,cs),
(299,-10,o),
(353,0,o),
(400,18,c)
);
},
{
closed = 1;
nodes = (
(154,383,o),
(211,442,o),
(294,442,cs),
(351,442,o),
(398,415,o),
(398,354,cs),
(398,333,o),
(394,306,o),
(378,279,c),
(137,279,l),
(138,284,ls)
);
}
);
width = 494.5254;
}
);
unicode = 101;
}
{
glyphname = f;
kernLeft = f;
kernRight = f;
layers = (
{
layerId = master01;
shapes = (
{
closed = 1;
nodes = (
(348,495,l),
(186,495,l),
(186,578,ls),
(186,646,o),
(217,675,o),
(273,675,cs),
(298,675,o),
(329,668,o),
(362,655,c),
(385,724,l),
(347,741,o),
(302,750,o),
(263,750,cs),
(146,750,o),
(104,669,o),
(104,577,cs),
(104,495,l),
(18,495,l),
(18,423,l),
(104,423,l),
(104,0,l),
(186,0,l),
(186,423,l),
(348,423,l)
);
}
);
width = 350;
},
{
layerId = "D73FB141-FF25-4743-A62C-F58A1C57CDB9";
shapes = (
{
closed = 1;
nodes = (
(372,507,l),
(214,507,l),
(214,560,ls),
(214,622,o),
(243,642,o),
(297,642,cs),
(321,642,o),
(350,637,o),
(383,626,c),
(411,725,l),
(372,740,o),
(321,750,o),
(276,750,cs),
(152,750,o),
(99,671,o),
(99,560,cs),
(99,507,l),
(17,507,l),
(17,407,l),
(99,407,l),
(99,0,l),
(214,0,l),
(214,407,l),
(372,407,l)
);
}
);
width = 377;
},
{
layerId = "7D2027AC-297A-4D58-8EA2-55B17EBAD0F9";
shapes = (
{
closed = 1;
nodes = (
(416,507,l),
(258,507,l),
(268,560,ls),
(279,622,o),
(312,642,o),
(366,642,cs),
(389,642,o),
(417,637,o),
(448,626,c),
(490,724,l),
(455,739,o),
(412,750,o),
(363,750,cs),
(234,750,o),
(174,678,o),
(153,560,cs),
(144,507,l),
(61,507,l),
(44,407,l),
(126,407,l),
(54,0,l),
(169,0,l),
(241,407,l),
(399,407,l)
);
}
);
width = 373.33927;
},
{
layerId = "C21AB58A-0F03-4AE0-976E-29AD56D058A6";
shapes = (
{
closed = 1;
nodes = (
(392,495,l),
(229,495,l),
(244,578,ls),
(256,646,o),
(293,675,o),
(350,675,cs),
(375,675,o),
(403,668,o),
(434,655,c),
(466,721,l),
(430,739,o),
(388,750,o),
(346,750,cs),
(230,750,o),
(180,676,o),
(162,577,cs),
(148,495,l),
(61,495,l),
(49,423,l),
(135,423,l),
(60,0,l),
(142,0,l),
(217,423,l),
(379,423,l)
);
}
);
width = 347;
},
{
layerId = "552872BC-8C7A-453E-A7A0-DCEE3439D276";
shapes = (
{
closed = 1;
nodes = (
(333,487,l),
(168,487,l),
(168,590,ls),
(168,663,o),
(201,697,o),
(257,697,cs),
(284,697,o),
(315,690,o),
(349,675,c),
(369,724,l),
(330,742,o),
(290,750,o),
(255,750,cs),
(143,750,o),
(108,668,o),
(108,589,cs),
(108,487,l),
(19,487,l),
(19,434,l),
(108,434,l),
(108,0,l),
(168,0,l),
(168,434,l),
(333,434,l)
);
}
);
width = 332;
},
{
layerId = "EEA6B9EF-1944-48F9-8F0D-85D16B14CE21";
shapes = (
{
closed = 1;
nodes = (
(376,487,l),
(211,487,l),
(229,590,ls),
(242,663,o),
(281,697,o),
(340,697,cs),
(366,697,o),
(393,690,o),
(425,675,c),
(451,720,l),
(414,741,o),
(372,750,o),
(336,750,cs),
(228,750,o),
(184,676,o),
(169,589,cs),
(151,487,l),
(62,487,l),
(53,434,l),
(142,434,l),
(65,0,l),
(125,0,l),
(202,434,l),
(367,434,l)
);
}
);
width = 330.04457;
}
);
unicode = 102;
}
{
glyphname = g;
kernLeft = g;
kernRight = g;
layers = (
{
anchors = (
{
name = bottom;
pos = (260,-213);
},
{
name = top;
pos = (260,495);
}
);
layerId = master01;
shapes = (
{
closed = 1;
nodes = (
(484,19,o),
(426,63,o),
(330,63,cs),
(218,63,ls),
(179,63,o),
(162,78,o),
(162,103,cs),
(162,122,o),
(171,144,o),
(191,166,c),
(207,163,o),
(223,161,o),
(240,161,cs),
(257,161,ls),
(357,161,o),
(438,220,o),
(438,328,cs),
(438,379,o),
(419,413,o),
(391,437,c),
(499,422,l),
(499,495,l),
(321,495,l),
(301,502,o),
(279,505,o),
(257,505,cs),
(240,505,ls),
(138,505,o),
(58,447,o),
(58,333,cs),
(58,264,o),
(88,215,o),
(135,187,c),
(106,154,o),
(89,120,o),
(89,85,cs),
(89,35,o),
(125,-14,o),
(212,-14,cs),
(327,-14,ls),
(380,-14,o),
(403,-34,o),
(403,-70,cs),
(403,-120,o),
(352,-151,o),
(261,-151,cs),
(202,-151,o),
(140,-138,o),
(74,-100,c),
(46,-164,l),
(113,-205,o),
(191,-223,o),
(261,-223,cs),
(399,-223,o),
(484,-160,o),
(484,-62,cs)
);
},
{
closed = 1;
nodes = (
(240,232,ls),
(186,232,o),
(140,265,o),
(140,333,cs),
(140,400,o),
(186,434,o),
(240,434,cs),
(257,434,ls),
(309,434,o),
(356,400,o),
(356,333,cs),
(356,265,o),
(309,232,o),
(257,232,cs)
);
}
);
width = 520;
},
{
anchors = (
{
name = bottom;
pos = (266,-213);
},
{
name = top;
pos = (266,507);
}
);
layerId = "D73FB141-FF25-4743-A62C-F58A1C57CDB9";
shapes = (
{
closed = 1;
nodes = (
(500,36,o),
(438,85,o),
(346,85,cs),
(224,85,ls),
(193,85,o),
(179,98,o),
(179,120,cs),
(179,135,o),
(185,152,o),
(200,168,c),
(212,166,o),
(225,165,o),
(238,165,cs),
(255,165,ls),
(359,165,o),
(443,225,o),
(443,328,cs),
(443,373,o),
(431,403,o),
(411,425,c),
(511,409,l),
(511,507,l),
(330,507,l),
(307,514,o),
(281,517,o),
(255,517,cs),
(238,517,ls),
(131,517,o),
(48,458,o),
(48,341,cs),
(48,272,o),
(79,222,o),
(127,193,c),
(98,163,o),
(80,129,o),
(80,91,cs),
(80,35,o),
(119,-20,o),
(217,-20,cs),
(337,-20,ls),
(372,-20,o),
(388,-36,o),
(388,-63,cs),
(388,-101,o),
(343,-125,o),
(259,-125,cs),
(199,-125,o),
(136,-112,o),
(72,-80,c),
(39,-171,l),
(105,-208,o),
(189,-223,o),
(260,-223,cs),
(410,-223,o),
(500,-159,o),
(500,-51,cs)
);
},
{
closed = 1;
nodes = (
(238,259,ls),
(195,259,o),
(159,288,o),
(159,341,cs),
(159,394,o),
(195,423,o),
(238,423,cs),
(255,423,ls),
(296,423,o),
(333,394,o),
(333,341,cs),
(333,288,o),
(296,259,o),
(255,259,cs)
);
}
);
width = 531;
},
{
anchors = (
{
name = bottom;
pos = (198,-213);
},
{
name = top;
pos = (325,507);
}
);
background = {
shapes = (
{
closed = 1;
nodes = (
(519,452,l),
(455,493,o),
(377,517,o),
(299,517,cs),
(159,517,o),
(82,434,o),
(58,280,cs),
(51,236,ls),
(28,91,o),
(78,-10,o),
(177,-10,cs),
(218,-10,o),
(271,7,o),
(338,69,c),
(326,0,ls),
(314,-70,o),
(293,-121,o),
(201,-121,cs),
(170,-121,o),
(118,-115,o),
(61,-95,c),
(36,-193,l),
(97,-213,o),
(155,-223,o),
(207,-223,cs),
(372,-223,o),
(419,-129,o),
(441,0,cs)
);
},
{
closed = 1;
nodes = (
(176,280,ls),
(189,362,o),
(231,414,o),
(309,414,cs),
(337,414,o),
(363,408,o),
(394,393,c),
(359,193,l),
(301,121,o),
(254,97,o),
(219,97,cs),
(173,97,o),
(154,140,o),
(169,236,cs)
);
}
);
};
layerId = "7D2027AC-297A-4D58-8EA2-55B17EBAD0F9";
shapes = (
{
closed = 1;
nodes = (
(474,36,o),
(421,85,o),
(329,85,cs),
(207,85,ls),
(176,85,o),
(164,98,o),
(168,120,cs),
(171,135,o),
(180,152,o),
(198,168,c),
(209,166,o),
(222,165,o),
(235,165,cs),
(252,165,ls),
(356,165,o),
(451,225,o),
(469,328,cs),
(477,373,o),
(470,403,o),
(454,425,c),
(551,409,l),
(568,507,l),
(387,507,l),
(366,514,o),
(340,517,o),
(314,517,cs),
(297,517,ls),
(190,517,o),
(97,458,o),
(76,341,cs),
(64,272,o),
(86,222,o),
(129,193,c),
(95,163,o),
(71,129,o),
(64,91,cs),
(54,35,o),
(84,-20,o),
(182,-20,cs),
(302,-20,ls),
(337,-20,o),
(350,-36,o),
(345,-63,cs),
(338,-101,o),
(289,-125,o),
(205,-125,cs),
(145,-125,o),
(84,-112,o),
(26,-80,c),
(-23,-171,l),
(36,-208,o),
(118,-223,o),
(189,-223,cs),
(339,-223,o),
(440,-159,o),
(459,-51,cs)
);
},
{
closed = 1;
nodes = (
(252,259,ls),
(209,259,o),
(178,288,o),
(187,341,cs),
(197,394,o),
(238,423,o),
(281,423,cs),
(298,423,ls),
(339,423,o),
(371,394,o),
(361,341,cs),
(352,288,o),
(310,259,o),
(269,259,cs)
);
}
);
width = 560.55765;
},
{
anchors = (
{
name = bottom;
pos = (196,-213);
},
{
name = top;
pos = (321,495);
}
);
background = {
shapes = (
{
closed = 1;
nodes = (
(502,442,l),
(440,482,o),
(371,505,o),
(301,505,cs),
(169,505,o),
(90,422,o),
(69,277,cs),
(62,228,ls),
(42,91,o),
(90,-10,o),
(190,-10,cs),
(240,-10,o),
(296,13,o),
(356,79,c),
(342,0,ls),
(326,-92,o),
(301,-149,o),
(190,-149,cs),
(149,-149,o),
(104,-141,o),
(55,-121,c),
(34,-191,l),
(87,-212,o),
(139,-223,o),
(193,-223,cs),
(361,-223,o),
(403,-122,o),
(424,0,cs)
);
},
{
closed = 1;
nodes = (
(154,277,ls),
(168,371,o),
(216,430,o),
(306,430,cs),
(341,430,o),
(375,421,o),
(413,402,c),
(374,183,l),
(311,94,o),
(255,64,o),
(213,64,cs),
(156,64,o),
(132,123,o),
(147,228,cs)
);
}
);
};
layerId = "C21AB58A-0F03-4AE0-976E-29AD56D058A6";
shapes = (
{
closed = 1;
nodes = (
(460,19,o),
(410,63,o),
(314,63,cs),
(202,63,ls),
(163,63,o),
(149,78,o),
(153,103,cs),
(157,122,o),
(170,144,o),
(193,166,c),
(209,163,o),
(225,161,o),
(242,161,cs),
(259,161,ls),
(359,161,o),
(450,220,o),
(469,328,cs),
(478,379,o),
(465,413,o),
(441,437,c),
(547,422,l),
(559,495,l),
(381,495,l),
(363,502,o),
(341,505,o),
(319,505,cs),
(302,505,ls),
(200,505,o),
(110,447,o),
(90,333,cs),
(78,264,o),
(99,215,o),
(141,187,c),
(106,154,o),
(83,120,o),
(77,85,cs),
(68,35,o),
(96,-14,o),
(183,-14,cs),
(298,-14,ls),
(351,-14,o),
(370,-34,o),
(364,-70,cs),
(355,-120,o),
(299,-151,o),
(208,-151,cs),
(149,-151,o),
(89,-138,o),
(30,-100,c),
(-10,-164,l),
(50,-205,o),
(125,-223,o),
(195,-223,cs),
(333,-223,o),
(429,-160,o),
(446,-62,cs)
);
},
{
closed = 1;
nodes = (
(254,232,ls),
(200,232,o),
(160,265,o),
(172,333,cs),
(184,400,o),
(236,434,o),
(290,434,cs),
(307,434,ls),
(359,434,o),
(400,400,o),
(388,333,cs),
(376,265,o),
(323,232,o),
(271,232,cs)
);
}
);
width = 554;
},
{
anchors = (
{
name = bottom;
pos = (257,-213);
},
{
name = top;
pos = (257,487);
}
);
layerId = "552872BC-8C7A-453E-A7A0-DCEE3439D276";
shapes = (
{
closed = 1;
nodes = (
(474,9,o),
(418,49,o),
(320,49,cs),
(215,49,ls),
(171,49,o),
(152,65,o),
(152,93,cs),
(152,114,o),
(162,139,o),
(186,166,c),
(204,161,o),
(222,159,o),
(242,159,cs),
(259,159,ls),
(356,159,o),
(435,218,o),
(435,328,cs),
(435,382,o),
(411,420,o),
(379,445,c),
(491,432,l),
(491,487,l),
(317,487,l),
(299,494,o),
(279,497,o),
(259,497,cs),
(242,497,ls),
(143,497,o),
(65,441,o),
(65,328,cs),
(65,260,o),
(95,211,o),
(142,184,c),
(111,149,o),
(95,115,o),
(95,81,cs),
(95,35,o),
(129,-10,o),
(210,-10,cs),
(321,-10,ls),
(386,-10,o),
(413,-34,o),
(413,-75,cs),
(413,-133,o),
(358,-169,o),
(263,-169,cs),
(205,-169,o),
(144,-157,o),
(76,-114,c),
(52,-160,l),
(119,-204,o),
(193,-223,o),
(262,-223,cs),
(392,-223,o),
(474,-162,o),
(474,-70,cs)
);
},
{
closed = 1;
nodes = (
(242,214,ls),
(181,214,o),
(128,250,o),
(128,328,cs),
(128,405,o),
(180,442,o),
(242,442,cs),
(259,442,ls),
(319,442,o),
(372,405,o),
(372,328,cs),
(372,250,o),
(319,214,o),
(259,214,cs)
);
}
);
width = 514;
},
{
anchors = (
{
name = bottom;
pos = (195,-213);
},
{
name = top;
pos = (318,487);
}
);
background = {
shapes = (
{
closed = 1;
nodes = (
(491,436,l),
(430,475,o),
(368,497,o),
(303,497,cs),
(177,497,o),
(96,415,o),
(77,275,cs),
(70,224,ls),
(52,92,o),
(99,-10,o),
(200,-10,cs),
(257,-10,o),
(315,19,o),
(370,88,c),
(354,0,ls),
(335,-107,o),
(307,-168,o),
(183,-168,cs),
(135,-168,o),
(95,-159,o),
(51,-139,c),
(33,-190,l),
(81,-212,o),
(129,-223,o),
(185,-223,cs),
(355,-223,o),
(393,-118,o),
(414,0,cs)
);
},
{
closed = 1;
nodes = (
(140,275,ls),
(154,378,o),
(206,442,o),
(305,442,cs),
(345,442,o),
(384,431,o),
(427,409,c),
(386,180,l),
(321,78,o),
(258,43,o),
(210,43,cs),
(145,43,o),
(118,113,o),
(133,224,cs)
);
}
);
};
layerId = "EEA6B9EF-1944-48F9-8F0D-85D16B14CE21";
shapes = (
{
closed = 1;
nodes = (
(440,9,o),
(391,49,o),
(293,49,cs),
(188,49,ls),
(144,49,o),
(128,65,o),
(133,93,cs),
(137,114,o),
(151,139,o),
(180,166,c),
(197,161,o),
(215,159,o),
(235,159,cs),
(252,159,ls),
(349,159,o),
(438,218,o),
(458,328,cs),
(467,382,o),
(450,420,o),
(422,445,c),
(532,432,l),
(542,487,l),
(368,487,l),
(351,494,o),
(331,497,o),
(311,497,cs),
(294,497,ls),
(195,497,o),
(108,441,o),
(88,328,cs),
(76,260,o),
(97,211,o),
(139,184,c),
(102,149,o),
(80,115,o),
(74,81,cs),
(66,35,o),
(92,-10,o),
(173,-10,cs),
(284,-10,ls),
(349,-10,o),
(372,-34,o),
(365,-75,cs),
(354,-133,o),
(293,-169,o),
(198,-169,cs),
(140,-169,o),
(81,-157,o),
(21,-114,c),
(-11,-160,l),
(48,-204,o),
(119,-223,o),
(188,-223,cs),
(318,-223,o),
(410,-162,o),
(427,-70,cs)
);
},
{
closed = 1;
nodes = (
(245,214,ls),
(184,214,o),
(137,250,o),
(151,328,cs),
(164,405,o),
(223,442,o),
(285,442,cs),
(302,442,ls),
(362,442,o),
(408,405,o),
(395,328,cs),
(381,250,o),
(322,214,o),
(262,214,cs)
);
}
);
width = 550.12144;
}
);
unicode = 103;
}
{
glyphname = h;
kernRight = n;
layers = (
{
layerId = master01;
shapes = (
{
closed = 1;
nodes = (
(380,428,o),
(406,396,o),
(406,326,cs),
(406,0,l),
(488,0,l),
(488,338,ls),
(488,444,o),
(438,505,o),
(346,505,cs),
(293,505,o),
(239,487,o),
(170,429,c),
(170,740,l),
(88,740,l),
(88,0,l),
(170,0,l),
(170,357,l),
(241,414,o),
(288,428,o),
(326,428,cs)
);
}
);
width = 571;
},
{
layerId = "D73FB141-FF25-4743-A62C-F58A1C57CDB9";
shapes = (
{
closed = 1;
nodes = (
(374,410,o),
(396,383,o),
(396,326,cs),
(396,0,l),
(511,0,l),
(511,340,ls),
(511,452,o),
(459,517,o),
(362,517,cs),
(306,517,o),
(255,496,o),
(194,444,c),
(194,740,l),
(79,740,l),
(79,0,l),
(194,0,l),
(194,351,l),
(253,397,o),
(293,410,o),
(327,410,cs)
);
}
);
width = 584;
},
{
layerId = "7D2027AC-297A-4D58-8EA2-55B17EBAD0F9";
shapes = (
{
closed = 1;
nodes = (
(401,410,o),
(419,383,o),
(408,326,cs),
(351,0,l),
(466,0,l),
(524,328,ls),
(543,436,o),
(501,517,o),
(400,517,cs),
(353,517,o),
(297,499,o),
(224,428,c),
(279,740,l),
(164,740,l),
(34,0,l),
(149,0,l),
(204,314,l),
(283,393,o),
(329,410,o),
(361,410,cs)
);
}
);
width = 584;
},
{
layerId = "C21AB58A-0F03-4AE0-976E-29AD56D058A6";
shapes = (
{
closed = 1;
nodes = (
(410,428,o),
(432,392,o),
(418,320,cs),
(362,0,l),
(444,0,l),
(502,327,ls),
(520,433,o),
(475,505,o),
(383,505,cs),
(334,505,o),
(274,487,o),
(198,409,c),
(256,740,l),
(174,740,l),
(44,0,l),
(126,0,l),
(182,317,l),
(267,409,o),
(323,428,o),
(361,428,cs)
);
}
);
width = 571;
},
{
layerId = "552872BC-8C7A-453E-A7A0-DCEE3439D276";
shapes = (
{
closed = 1;
nodes = (
(385,440,o),
(413,405,o),
(413,327,cs),
(413,0,l),
(473,0,l),
(473,338,ls),
(473,440,o),
(425,497,o),
(336,497,cs),
(285,497,o),
(230,482,o),
(155,420,c),
(155,740,l),
(95,740,l),
(95,0,l),
(155,0,l),
(155,361,l),
(235,426,o),
(285,440,o),
(326,440,cs)
);
}
);
width = 563;
},
{
layerId = "EEA6B9EF-1944-48F9-8F0D-85D16B14CE21";
shapes = (
{
closed = 1;
nodes = (
(417,440,o),
(441,399,o),
(426,316,cs),
(370,0,l),
(430,0,l),
(488,327,ls),
(506,431,o),
(458,497,o),
(372,497,cs),
(323,497,o),
(260,479,o),
(182,397,c),
(242,740,l),
(182,740,l),
(52,0,l),
(112,0,l),
(168,319,l),
(256,420,o),
(318,440,o),
(362,440,cs)
);
}
);
width = 563.34108;
}
);
unicode = 104;
}
{
glyphname = i;
layers = (
{
layerId = master01;
shapes = (
{
closed = 1;
nodes = (
(175,708,l),
(83,708,l),
(83,616,l),
(175,616,l)
);
},
{
ref = idotless;
}
);
width = 259;
},
{
layerId = "D73FB141-FF25-4743-A62C-F58A1C57CDB9";
shapes = (
{
closed = 1;
nodes = (
(197,722,l),
(76,722,l),
(76,603,l),
(197,603,l)
);
},
{
ref = idotless;
}
);
width = 273;
},
{
layerId = "7D2027AC-297A-4D58-8EA2-55B17EBAD0F9";
shapes = (
{
closed = 1;
nodes = (
(279,722,l),
(158,722,l),
(137,603,l),
(258,603,l)
);
},
{
ref = idotless;
}
);
width = 273;
},
{
layerId = "C21AB58A-0F03-4AE0-976E-29AD56D058A6";
shapes = (
{
closed = 1;
nodes = (
(256,708,l),
(164,708,l),
(149,616,l),
(241,616,l)
);
},
{
ref = idotless;
}
);
width = 260;
},
{
layerId = "552872BC-8C7A-453E-A7A0-DCEE3439D276";
shapes = (
{
closed = 1;
nodes = (
(161,699,l),
(89,699,l),
(89,626,l),
(161,626,l)
);
},
{
ref = idotless;
}
);
width = 250;
},
{
layerId = "EEA6B9EF-1944-48F9-8F0D-85D16B14CE21";
shapes = (
{
closed = 1;
nodes = (
(242,699,l),
(169,699,l),
(157,626,l),
(230,626,l)
);
},
{
ref = idotless;
}
);
width = 251.61931;
}
);
unicode = 105;
}
{
glyphname = j;
layers = (
{
layerId = master01;
shapes = (
{
closed = 1;
nodes = (
(175,708,l),
(83,708,l),
(83,616,l),
(175,616,l)
);
},
{
ref = jdotless;
}
);
width = 259;
},
{
layerId = "D73FB141-FF25-4743-A62C-F58A1C57CDB9";
shapes = (
{
closed = 1;
nodes = (
(197,722,l),
(76,722,l),
(76,603,l),
(197,603,l)
);
},
{
ref = jdotless;
}
);
width = 273;
},
{
layerId = "7D2027AC-297A-4D58-8EA2-55B17EBAD0F9";
shapes = (
{
closed = 1;
nodes = (
(279,722,l),
(158,722,l),
(137,603,l),
(258,603,l)
);
},
{
ref = jdotless;
}
);
width = 273;
},
{
layerId = "C21AB58A-0F03-4AE0-976E-29AD56D058A6";
shapes = (
{
closed = 1;
nodes = (
(256,708,l),
(164,708,l),
(148,616,l),
(240,616,l)
);
},
{
ref = jdotless;
}
);
width = 259;
},
{
layerId = "552872BC-8C7A-453E-A7A0-DCEE3439D276";
shapes = (
{
closed = 1;
nodes = (
(161,699,l),
(88,699,l),
(88,626,l),
(161,626,l)
);
},
{
ref = jdotless;
}
);
width = 250;
},
{
layerId = "EEA6B9EF-1944-48F9-8F0D-85D16B14CE21";
shapes = (
{
closed = 1;
nodes = (
(241,699,l),
(168,699,l),
(156,626,l),
(229,626,l)
);
},
{
ref = jdotless;
}
);
width = 250.61931;
}
);
unicode = 106;
}
{
glyphname = l;
kernRight = l;
layers = (
{
anchors = (
{
name = bottom;
pos = (132,0);
},
{
name = center;
pos = (132,248);
},
{
name = top;
pos = (132,740);
},
{
name = topright;
pos = (244,740);
}
);
layerId = master01;
shapes = (
{
closed = 1;
nodes = (
(87,46,o),
(117,-5,o),
(205,-5,cs),
(228,-5,l),
(228,70,l),
(212,70,ls),
(177,70,o),
(169,88,o),
(169,124,cs),
(169,740,l),
(87,740,l),
(87,120,ls)
);
}
);
width = 264;
},
{
anchors = (
{
name = bottom;
pos = (138,0);
},
{
name = center;
pos = (138,254);
},
{
name = top;
pos = (138,740);
},
{
name = topright;
pos = (256,740);
}
);
layerId = "D73FB141-FF25-4743-A62C-F58A1C57CDB9";
shapes = (
{
closed = 1;
nodes = (
(76,71,o),
(102,-5,o),
(216,-5,cs),
(244,-5,l),
(244,101,l),
(228,101,ls),
(199,101,o),
(191,123,o),
(191,143,cs),
(191,740,l),
(76,740,l),
(76,143,ls)
);
}
);
width = 276;
},
{
anchors = (
{
name = bottom;
pos = (93,0);
},
{
name = center;
pos = (138,254);
},
{
name = top;
pos = (224,740);
},
{
name = topright;
pos = (342,740);
}
);
layerId = "7D2027AC-297A-4D58-8EA2-55B17EBAD0F9";
shapes = (
{
closed = 1;
nodes = (
(44,73,o),
(62,-5,o),
(179,-5,cs),
(198,-5,l),
(217,101,l),
(205,101,ls),
(174,101,o),
(168,123,o),
(171,143,cs),
(276,740,l),
(161,740,l),
(57,148,ls)
);
}
);
width = 276.19097;
},
{
anchors = (
{
name = bottom;
pos = (88,0);
},
{
name = center;
pos = (132,248);
},
{
name = top;
pos = (219,740);
},
{
name = topright;
pos = (331,740);
}
);
layerId = "C21AB58A-0F03-4AE0-976E-29AD56D058A6";
shapes = (
{
closed = 1;
nodes = (
(52,49,o),
(74,-5,o),
(166,-5,cs),
(183,-5,l),
(197,70,l),
(182,70,ls),
(145,70,o),
(141,87,o),
(147,124,cs),
(255,740,l),
(173,740,l),
(65,125,ls)
);
}
);
width = 264;
},
{
anchors = (
{
name = bottom;
pos = (128,0);
},
{
name = center;
pos = (128,244);
},
{
name = top;
pos = (128,740);
},
{
name = topright;
pos = (236,740);
}
);
layerId = "552872BC-8C7A-453E-A7A0-DCEE3439D276";
shapes = (
{
closed = 1;
nodes = (
(95,30,o),
(127,-5,o),
(199,-5,cs),
(218,-5,l),
(218,50,l),
(202,50,ls),
(164,50,o),
(155,66,o),
(155,112,cs),
(155,740,l),
(95,740,l),
(95,105,ls)
);
}
);
width = 256;
},
{
anchors = (
{
name = bottom;
pos = (85,0);
},
{
name = center;
pos = (128,244);
},
{
name = top;
pos = (216,740);
},
{
name = topright;
pos = (324,740);
}
);
layerId = "EEA6B9EF-1944-48F9-8F0D-85D16B14CE21";
shapes = (
{
closed = 1;
nodes = (
(58,34,o),
(82,-5,o),
(158,-5,cs),
(174,-5,l),
(184,50,l),
(168,50,ls),
(127,50,o),
(123,64,o),
(132,112,cs),
(242,740,l),
(182,740,l),
(71,110,ls)
);
}
);
width = 256;
}
);
unicode = 108;
}
{
glyphname = m;
kernLeft = n;
kernRight = n;
layers = (
{
layerId = master01;
shapes = (
{
closed = 1;
nodes = (
(372,428,o),
(396,396,o),
(396,326,cs),
(396,0,l),
(478,0,l),
(478,338,ls),
(478,344,o),
(478,351,o),
(477,357,c),
(548,413,o),
(592,428,o),
(629,428,cs),
(679,428,o),
(703,396,o),
(703,326,cs),
(703,0,l),
(785,0,l),
(785,338,ls),
(785,444,o),
(737,505,o),
(649,505,cs),
(593,505,o),
(538,484,o),
(465,422,c),
(445,475,o),
(403,505,o),
(341,505,cs),
(288,505,o),
(236,484,o),
(166,426,c),
(166,495,l),
(88,495,l),
(88,0,l),
(170,0,l),
(170,357,l),
(240,413,o),
(284,428,o),
(321,428,cs)
);
}
);
width = 869;
},
{
layerId = "D73FB141-FF25-4743-A62C-F58A1C57CDB9";
shapes = (
{
closed = 1;
nodes = (
(251,397,o),
(289,410,o),
(322,410,cs),
(365,410,o),
(386,383,o),
(386,326,cs),
(386,0,l),
(501,0,l),
(501,351,l),
(558,397,o),
(596,410,o),
(629,410,cs),
(672,410,o),
(693,383,o),
(693,326,cs),
(693,0,l),
(808,0,l),
(808,340,ls),
(808,452,o),
(757,517,o),
(664,517,cs),
(605,517,o),
(550,493,o),
(484,435,c),
(462,488,o),
(419,517,o),
(357,517,cs),
(301,517,o),
(250,494,o),
(188,440,c),
(188,507,l),
(79,507,l),
(79,0,l),
(194,0,l),
(194,351,l)
);
}
);
width = 881;
},
{
layerId = "7D2027AC-297A-4D58-8EA2-55B17EBAD0F9";
shapes = (
{
closed = 1;
nodes = (
(391,410,o),
(408,383,o),
(398,326,cs),
(341,0,l),
(456,0,l),
(512,315,l),
(589,392,o),
(632,410,o),
(663,410,cs),
(698,410,o),
(715,383,o),
(705,326,cs),
(648,0,l),
(763,0,l),
(821,328,ls),
(840,436,o),
(799,517,o),
(702,517,cs),
(652,517,o),
(593,497,o),
(515,417,c),
(503,478,o),
(463,517,o),
(395,517,cs),
(347,517,o),
(291,497,o),
(217,421,c),
(232,507,l),
(123,507,l),
(34,0,l),
(149,0,l),
(205,315,l),
(282,392,o),
(325,410,o),
(356,410,cs)
);
}
);
width = 881;
},
{
layerId = "C21AB58A-0F03-4AE0-976E-29AD56D058A6";
shapes = (
{
closed = 1;
nodes = (
(400,428,o),
(421,392,o),
(408,320,cs),
(352,0,l),
(434,0,l),
(490,317,l),
(575,408,o),
(627,428,o),
(664,428,cs),
(708,428,o),
(730,392,o),
(717,320,cs),
(660,0,l),
(742,0,l),
(800,327,ls),
(819,433,o),
(775,505,o),
(686,505,cs),
(636,505,o),
(573,485,o),
(494,401,c),
(485,465,o),
(443,505,o),
(378,505,cs),
(330,505,o),
(271,486,o),
(194,405,c),
(209,495,l),
(132,495,l),
(44,0,l),
(126,0,l),
(182,317,l),
(266,408,o),
(319,428,o),
(356,428,cs)
);
}
);
width = 869;
},
{
layerId = "552872BC-8C7A-453E-A7A0-DCEE3439D276";
shapes = (
{
closed = 1;
nodes = (
(377,440,o),
(403,405,o),
(403,327,cs),
(403,0,l),
(463,0,l),
(463,338,ls),
(463,346,o),
(463,354,o),
(462,361,c),
(541,425,o),
(589,440,o),
(629,440,cs),
(685,440,o),
(711,405,o),
(711,327,cs),
(711,0,l),
(771,0,l),
(771,338,ls),
(771,440,o),
(725,497,o),
(639,497,cs),
(587,497,o),
(531,479,o),
(452,413,c),
(434,467,o),
(393,497,o),
(331,497,cs),
(280,497,o),
(227,480,o),
(152,417,c),
(152,487,l),
(95,487,l),
(95,0,l),
(155,0,l),
(155,361,l),
(234,425,o),
(281,440,o),
(321,440,cs)
);
}
);
width = 861;
},
{
layerId = "EEA6B9EF-1944-48F9-8F0D-85D16B14CE21";
shapes = (
{
closed = 1;
nodes = (
(407,440,o),
(431,399,o),
(416,316,cs),
(360,0,l),
(420,0,l),
(476,318,l),
(564,419,o),
(623,440,o),
(666,440,cs),
(716,440,o),
(740,399,o),
(725,316,cs),
(669,0,l),
(729,0,l),
(787,327,ls),
(805,431,o),
(759,497,o),
(676,497,cs),
(625,497,o),
(561,478,o),
(481,391,c),
(473,457,o),
(431,497,o),
(367,497,cs),
(318,497,o),
(257,478,o),
(179,394,c),
(195,487,l),
(138,487,l),
(52,0,l),
(112,0,l),
(168,318,l),
(255,419,o),
(314,440,o),
(357,440,cs)
);
}
);
width = 862.34108;
}
);
unicode = 109;
}
{
glyphname = n;
kernLeft = n;
kernRight = n;
layers = (
{
layerId = master01;
shapes = (
{
closed = 1;
nodes = (
(380,428,o),
(406,396,o),
(406,326,cs),
(406,0,l),
(488,0,l),
(488,338,ls),
(488,444,o),
(438,505,o),
(346,505,cs),
(292,505,o),
(237,486,o),
(166,426,c),
(166,495,l),
(88,495,l),
(88,0,l),
(170,0,l),
(170,357,l),
(241,414,o),
(288,428,o),
(326,428,cs)
);
}
);
width = 571;
},
{
layerId = "D73FB141-FF25-4743-A62C-F58A1C57CDB9";
shapes = (
{
closed = 1;
nodes = (
(374,410,o),
(396,383,o),
(396,326,cs),
(396,0,l),
(511,0,l),
(511,340,ls),
(511,452,o),
(459,517,o),
(362,517,cs),
(304,517,o),
(251,494,o),
(188,439,c),
(188,507,l),
(79,507,l),
(79,0,l),
(194,0,l),
(194,351,l),
(253,397,o),
(293,410,o),
(327,410,cs)
);
}
);
width = 584;
},
{
layerId = "7D2027AC-297A-4D58-8EA2-55B17EBAD0F9";
shapes = (
{
closed = 1;
nodes = (
(401,410,o),
(419,383,o),
(408,326,cs),
(351,0,l),
(466,0,l),
(524,328,ls),
(543,436,o),
(501,517,o),
(400,517,cs),
(351,517,o),
(293,498,o),
(217,421,c),
(232,507,l),
(123,507,l),
(34,0,l),
(149,0,l),
(204,314,l),
(283,393,o),
(329,410,o),
(361,410,cs)
);
}
);
width = 584;
},
{
layerId = "C21AB58A-0F03-4AE0-976E-29AD56D058A6";
shapes = (
{
closed = 1;
nodes = (
(410,428,o),
(431,392,o),
(418,320,cs),
(362,0,l),
(444,0,l),
(502,327,ls),
(521,432,o),
(474,505,o),
(383,505,cs),
(334,505,o),
(272,486,o),
(194,404,c),
(209,495,l),
(132,495,l),
(44,0,l),
(126,0,l),
(183,318,l),
(268,409,o),
(323,428,o),
(361,428,cs)
);
}
);
width = 571;
},
{
layerId = "552872BC-8C7A-453E-A7A0-DCEE3439D276";
shapes = (
{
closed = 1;
nodes = (
(385,440,o),
(413,405,o),
(413,327,cs),
(413,0,l),
(473,0,l),
(473,338,ls),
(473,440,o),
(425,497,o),
(336,497,cs),
(285,497,o),
(229,481,o),
(152,417,c),
(152,487,l),
(95,487,l),
(95,0,l),
(155,0,l),
(155,361,l),
(235,426,o),
(285,440,o),
(326,440,cs)
);
}
);
width = 563;
},
{
layerId = "EEA6B9EF-1944-48F9-8F0D-85D16B14CE21";
shapes = (
{
closed = 1;
nodes = (
(417,440,o),
(441,399,o),
(426,316,cs),
(370,0,l),
(430,0,l),
(488,327,ls),
(506,431,o),
(458,497,o),
(372,497,cs),
(322,497,o),
(258,479,o),
(178,393,c),
(195,487,l),
(138,487,l),
(52,0,l),
(112,0,l),
(168,319,l),
(256,420,o),
(318,440,o),
(362,440,cs)
);
}
);
width = 563.34122;
}
);
unicode = 110;
}
